<?xml version="1.0" standalone="no"?><!DOCTYPE svg PUBLIC "-//W3C//DTD SVG 1.1//EN" "http://www.w3.org/Graphics/SVG/1.1/DTD/svg11.dtd" ><svg xmlns="http://www.w3.org/2000/svg"><metadata></metadata><defs><font id="Ascender - Droid Arabic Kufi Bold" horiz-adv-x="3766"><font-face font-family="Droid Arabic Kufi" font-weight="700" font-stretch="normal" units-per-em="2048" panose-1="2 11 8 6 3 8 4 2 2 4" ascent="2625" descent="-1260" x-height="4" bbox="-651 -1260 3592 2625" underline-thickness="102" underline-position="-256" unicode-range="U+0000-fefc" /><missing-glyph horiz-adv-x="1229" d="M102 -362 l0 1806 l1024 0 l0 -1806 l-1024 0 ZM217 -248 l795 0 l0 1577 l-795 0 l0 -1577 Z" /><glyph glyph-name=".null" unicode="" d="" /><glyph glyph-name="nonmarkingreturn" unicode="" d="" /><glyph glyph-name="nonbreakingspace" unicode="  Ê" d="" /><glyph glyph-name="uni0600" unicode="&#x600;" d="M1729 -492 l-1463 0 q-107 0 -166 65.5 q-59 65.5 -59 180.5 l1216 0 q0 224 127 389 l205 -133 q-86 -130 -86 -256 l226 0 l0 -246 Z" /><glyph glyph-name="uni0601" unicode="&#x601;" d="M2695 -428 q55 30 88 67.5 q33 37.5 33 69.5 q0 51 -55 51 q-74 0 -410 -78 q-452 -106 -646 -138.5 q-194 -32.5 -304 -32.5 q-66 0 -127.5 41.5 q-61.5 41.5 -79.5 99.5 q-24 -58 -90 -99.5 q-66 -41.5 -133 -41.5 q-92 0 -194 115 q-72 79 -93 96.5 q-21 17.5 -39 17.5 q-21 0 -47 -23.5 q-26 -23.5 -89 -95.5 q-104 -119 -214 -119 q-117 0 -185.5 70 q-68.5 70 -68.5 207 q0 103 45 207 l207 0 q-41 -95 -41 -154 q0 -43 22 -63.5 q22 -20.5 54 -20.5 q24 0 45.5 21 q21.5 21 73.5 98 q81 119 206 119 q98 0 194 -115 q66 -79 87 -97 q21 -18 41 -18 q54 0 76 30 q22 30 22 101 l0 99 l225 0 l0 -99 q0 -137 125 -137 q99 0 269.5 31 q170.5 31 443.5 97 q289 70 445.5 99 q156.5 29 244.5 29 q103 0 168.5 -66.5 q65.5 -66.5 65.5 -170.5 q0 -89 -57.5 -170.5 q-57.5 -81.5 -209.5 -180.5 l-98 154 Z" /><glyph glyph-name="uni0602" unicode="&#x602;" d="M2474 -246 q0 -246 -225 -246 l-1575 0 q-541 0 -541 373 q0 156 96 247 q96 91 256 91 q162 0 297.5 -130.5 q135.5 -130.5 186.5 -334.5 l1505 0 ZM485 -31 q-40 0 -67 -20 q-27 -20 -27 -64 q0 -64 70.5 -96 q70.5 -32 259.5 -35 q-44 118 -99.5 166.5 q-55.5 48.5 -136.5 48.5 Z" /><glyph glyph-name="uni0603" unicode="&#x603;" d="M1673 -246 l0 47 q0 157 -72 241.5 q-72 84.5 -208 84.5 q-120 0 -250.5 -91.5 q-130.5 -91.5 -227.5 -244.5 l0 -37 l758 0 ZM610 -246 l0 563 l305 0 l0 -276 q114 160 259 246 q145 86 296 86 q145 0 262 -71.5 q117 -71.5 181.5 -203 q64.5 -131.5 64.5 -303.5 l0 -287 l-1712 0 q-107 0 -166 65.5 q-59 65.5 -59 180.5 l569 0 Z" /><glyph glyph-name="uni060C" unicode="&#x60c;" d="M133 23 q52 202 176 479 l219 0 q-63 -255 -100 -502 l-281 0 l-14 23 Z" /><glyph glyph-name="uni060D" unicode="&#x60d;" d="M662 0 l-111 0 q-70 0 -120 -38 q-50 -38 -90.5 -111.5 q-40.5 -73.5 -104.5 -274.5 l-207 72 q91 301 222.5 449.5 q131.5 148.5 297.5 148.5 l113 0 l0 -246 Z" /><glyph glyph-name="uni060E" unicode="&#x60e;" d="M2382 246 q0 -246 -225 -246 l-1575 0 q-541 0 -541 373 q0 156 96 247 q96 91 256 91 q162 0 297.5 -130.5 q135.5 -130.5 186.5 -334.5 l1505 0 ZM393 461 q-40 0 -67 -20.5 q-27 -20.5 -27 -63.5 q0 -64 70.5 -96 q70.5 -32 259.5 -35 q-44 118 -99.5 166.5 q-55.5 48.5 -136.5 48.5 Z" /><glyph glyph-name="uni060F" unicode="&#x60f;" d="M793 -668 q-123 0 -232 42.5 q-109 42.5 -176 115.5 q-62 -56 -129 -129 l-123 119 q84 92 164 166 q-12 48 -12 102 q0 243 272 457 q-76 57 -134 155 q-58 98 -58 181 q0 229 150.5 361 q150.5 132 414.5 132 q90 0 188.5 -20 q98.5 -20 155.5 -47 l-86 -240 q-140 61 -266 61 q-127 0 -196 -67.5 q-69 -67.5 -69 -192.5 q0 -40 19 -94.5 q19 -54.5 65 -109.5 q165 89 355 149 l71 -231 q-206 -52 -353 -147.5 q-147 -95.5 -202 -209.5 q174 101 308 101 q170 0 272 -84.5 q102 -84.5 102 -225.5 q0 -94 -69 -173.5 q-69 -79.5 -186 -125 q-117 -45.5 -246 -45.5 ZM879 -225 q-122 0 -273 -103 q52 -90 207 -90 q105 0 160 26.5 q55 26.5 55 72.5 q0 42 -40 68 q-40 26 -109 26 Z" /><glyph glyph-name="uni0610" unicode="&#x610;" d="M131 1628 l0 43 q0 94 -90 94 q-95 0 -154 -123 l0 -14 l244 0 ZM-248 1489 q16 27 26.5 65 q10.5 38 10.5 74 l0 156 l98 28 l0 -90 q59 121 179 121 q81 0 121 -42 q40 -42 40 -132 l0 -121 l-340 0 q-27 -57 -84 -110 l-51 51 Z" /><glyph glyph-name="uni0611" unicode="&#x611;" d="M-80 1614 l54 -3 l26 1 q-43 28 -43 82 q0 58 37.5 87 q37.5 29 93.5 29 q49 0 94 -18 l-26 -80 q-30 14 -66 14 q-23 0 -37 -13.5 q-14 -13.5 -14 -35.5 q0 -41 39 -55 q22 3 45.5 9 q23.5 6 66.5 28 l0 -86 q-40 -17 -103.5 -29 q-63.5 -12 -113.5 -12 q-30 0 -65 14 q-30 -63 -72 -108 l-51 51 q16 27 26.5 65 q10.5 38 10.5 74 l0 74 l98 29 l0 -117 Z" /><glyph glyph-name="uni0612" unicode="&#x612;" d="M-326 1239 q-16 34 -16 72 q0 79 63 136 q63 57 222 101 q-7 15 -21 64 q-24 90 -104 90 q-48 0 -115 -35 l-43 86 q32 17 81 30 q49 13 101 13 q156 0 181 -149 q10 -63 26.5 -101 q16.5 -38 54.5 -67 l-59 -76 q-36 27 -63 65 q-103 -27 -138 -45.5 q-35 -18.5 -54 -44.5 q-19 -26 -19 -61 q0 -11 6 -29 l-103 -49 ZM121 1233 q-53 0 -84.5 12 q-31.5 12 -59.5 31 l48 76 q30 -23 73 -23 q28 0 48 22 q20 22 20 62 l0 361 l117 30 l0 -397 q0 -77 -44.5 -125.5 q-44.5 -48.5 -117.5 -48.5 Z" /><glyph glyph-name="uni0613" unicode="&#x613;" d="M141 1233 q-52 0 -83.5 12 q-31.5 12 -59.5 31 l47 76 q30 -23 74 -23 q28 0 47.5 22 q19.5 22 19.5 62 l0 361 l117 30 l0 -397 q0 -80 -44.5 -127 q-44.5 -47 -117.5 -47 ZM41 1513 l0 43 q0 95 -90 95 q-92 0 -154 -123 l0 -15 l244 0 ZM-338 1374 q37 67 37 139 l0 156 l98 29 l0 -90 q58 121 178 121 q82 0 122 -42.5 q40 -42.5 40 -132.5 l0 -120 l-340 0 q-28 -59 -84 -111 l-51 51 ZM-66 1788 q-18 0 -33.5 13.5 q-15.5 13.5 -15.5 41.5 q0 51 49 51 q54 0 54 -51 q0 -28 -16 -41.5 q-16 -13.5 -38 -13.5 Z" /><glyph glyph-name="uni0614" unicode="&#x614;" d="M-14 1651 l90 28 l0 -61 q0 -72 49 -72 q26 0 36.5 20.5 q10.5 20.5 10.5 69.5 l0 37 l96 29 l0 -90 q0 -74 -36 -116 q-36 -42 -105 -42 q-59 0 -94 49 q-29 -39 -89.5 -58 q-60.5 -19 -215.5 -42 l-29 63 l93 21 q126 27 160 51 q34 24 34 72 l0 41 Z" /><glyph glyph-name="uni0615" unicode="&#x615;" d="M-238 1311 l31 0 l0 372 l123 0 l0 -239 q56 92 162 92 q91 0 130.5 -47.5 q39.5 -47.5 39.5 -151.5 l0 -155 l-486 0 l0 129 ZM125 1311 l0 10 q0 54 -16 80 q-16 26 -54 26 q-52 0 -83.5 -27 q-31.5 -27 -53.5 -67 l-2 -22 l209 0 Z" /><glyph glyph-name="uni061B" unicode="&#x61b;" d="M307 0 q-83 0 -128.5 44 q-45.5 44 -45.5 126 q0 81 46.5 125.5 q46.5 44.5 127.5 44.5 q84 0 130 -44 q46 -44 46 -126 q0 -84 -45 -127 q-45 -43 -131 -43 ZM141 924 q52 202 176 479 l220 0 q-65 -266 -101 -502 l-280 0 l-15 23 Z" /><glyph glyph-name="uni061F" unicode="&#x61f;" d="M489 545 q0 63 -26.5 102 q-26.5 39 -108.5 103 q-129 101 -175 181.5 q-46 80.5 -46 188.5 q0 169 117 266 q117 97 323 97 q99 0 210.5 -34 q111.5 -34 209.5 -91 l-102 -221 q-85 42 -164.5 71 q-79.5 29 -148.5 29 q-79 0 -117.5 -37 q-38.5 -37 -38.5 -94 q0 -45 12 -77.5 q12 -32.5 39 -63 q27 -30.5 100 -88.5 q100 -79 140.5 -151.5 q40.5 -72.5 40.5 -166.5 l0 -74 l-265 0 l0 60 ZM610 -27 q-82 0 -128 45.5 q-46 45.5 -46 124.5 q0 82 45.5 126 q45.5 44 128.5 44 q85 0 130.5 -43 q45.5 -43 45.5 -127 q0 -81 -46 -125.5 q-46 -44.5 -130 -44.5 Z" /><glyph glyph-name="uni0621" unicode="&#x621;&#xfe80;" d="M133 178 q111 29 195 41 q-66 39 -105 112 q-39 73 -39 161 q0 179 128 285 q128 106 345 106 q90 0 166.5 -16.5 q76.5 -16.5 122.5 -43.5 l-61 -229 q-77 43 -195 43 q-94 0 -151.5 -46.5 q-57.5 -46.5 -57.5 -146.5 q0 -60 32.5 -108 q32.5 -48 84.5 -70 q66 11 192 26 q126 15 195 19 l0 -248 q-143 0 -420 -34 q-277 -34 -432 -64 l0 213 Z" /><glyph glyph-name="uni0627" unicode="&#x627;&#xfe8d;" d="M205 1556 l305 0 l0 -1556 l-305 0 l0 1556 Z" /><glyph glyph-name="uni062D" unicode="&#x62d;&#xfea1;" d="M559 -668 q-210 0 -338.5 116.5 q-128.5 116.5 -128.5 309.5 q0 109 43.5 199.5 q43.5 90.5 127 164 q83.5 73.5 217.5 137 q134 63.5 358 124.5 q-32 97 -50 166 q-31 121 -97.5 180 q-66.5 59 -176.5 59 q-134 0 -305 -94 l-109 226 q99 52 228 83 q129 31 250 31 q407 0 475 -395 q35 -193 81.5 -283.5 q46.5 -90.5 131.5 -154.5 l-156 -201 q-100 79 -166 172 q-247 -63 -347 -113.5 q-100 -50.5 -153 -119 q-53 -68.5 -53 -164.5 q0 -86 64.5 -139.5 q64.5 -53.5 165.5 -53.5 q137 0 301 43 l34 -223 q-199 -70 -397 -70 Z" /><glyph glyph-name="uni062F" unicode="&#x62f;&#xfea9;" d="M92 246 l684 0 q-42 189 -102.5 305.5 q-60.5 116.5 -154 201 q-93.5 84.5 -228.5 140.5 l115 287 q274 -110 439.5 -339.5 q165.5 -229.5 239.5 -602.5 l0 -238 l-993 0 l0 246 Z" /><glyph glyph-name="uni0631" unicode="&#x631;&#xfead;" d="M295 -492 q-105 0 -192.5 25 q-87.5 25 -184.5 90 l123 199 q54 -34 95.5 -47 q41.5 -13 99.5 -13 q82 0 132 62.5 q50 62.5 50 157.5 l0 1032 l305 0 l0 -1047 q0 -211 -116.5 -335 q-116.5 -124 -311.5 -124 Z" /><glyph glyph-name="uni0633" unicode="&#x633;&#xfeb1;" d="M1559 246 q102 0 149 57 q47 57 47 180 l0 371 l305 0 l0 -395 q0 -50 -6 -92 q51 -68 101.5 -94.5 q50.5 -26.5 128.5 -26.5 l126 0 l0 768 l306 0 l0 -1014 l-426 0 q-174 0 -322 154 q-115 -154 -342 -154 l-244 0 q-37 -492 -602 -492 l-90 0 q-171 0 -297.5 72 q-126.5 72 -193 202.5 q-66.5 130.5 -66.5 299.5 q0 116 28 236.5 q28 120.5 77 216.5 l270 0 q-32 -110 -51 -230.5 q-19 -120.5 -19 -224.5 q0 -149 75 -237.5 q75 -88.5 198 -88.5 l61 0 q158 0 232.5 85.5 q74.5 85.5 74.5 240.5 l0 774 l305 0 l0 -608 l175 0 Z" /><glyph glyph-name="uni0635" unicode="&#x635;&#xfeb9;" d="M690 -492 q-171 0 -297.5 72 q-126.5 72 -193 202.5 q-66.5 130.5 -66.5 299.5 q0 116 28 236.5 q28 120.5 77 216.5 l270 0 q-32 -110 -51 -230.5 q-19 -120.5 -19 -224.5 q0 -149 75 -237.5 q75 -88.5 198 -88.5 l61 0 q158 0 232.5 85.5 q74.5 85.5 74.5 240.5 l0 934 l305 0 l0 -359 q187 379 555 379 q252 0 380 -132.5 q128 -132.5 128 -409.5 l0 -492 l-1065 0 q-15 -242 -168 -367 q-153 -125 -434 -125 l-90 0 ZM2142 246 l0 252 q0 149 -68.5 219.5 q-68.5 70.5 -211.5 70.5 q-277 0 -478 -382 l0 -160 l758 0 Z" /><glyph glyph-name="uni0637" unicode="&#x637;&#xfec1;" d="M1294 246 l0 252 q0 149 -68.5 219.5 q-68.5 70.5 -211.5 70.5 q-276 0 -477 -382 l0 -160 l757 0 ZM41 246 l190 0 l0 1310 l306 0 l0 -901 q187 379 555 379 q251 0 379 -132.5 q128 -132.5 128 -409.5 l0 -492 l-1558 0 l0 246 Z" /><glyph glyph-name="uni0639" unicode="&#x639;&#xfec9;" d="M600 -668 q-210 0 -338.5 114.5 q-128.5 114.5 -128.5 301.5 q0 229 260 408 q-72 72 -126 182 q-54 110 -54 203 q0 230 151.5 361.5 q151.5 131.5 413.5 131.5 q90 0 188.5 -20 q98.5 -20 155.5 -47 l-86 -240 q-81 35 -142.5 48 q-61.5 13 -123.5 13 q-128 0 -196 -67.5 q-68 -67.5 -68 -192.5 q0 -86 21 -146.5 q21 -60.5 63 -117.5 q177 79 356 135 l72 -231 q-314 -79 -450 -177 q-136 -98 -136 -227 q0 -85 58.5 -133.5 q58.5 -48.5 171.5 -48.5 q137 0 301 43 l34 -223 q-199 -70 -397 -70 Z" /><glyph glyph-name="uni0640" unicode="&#x640;" d="M360 246 q11 0 11 -8 l0 -228 q0 -10 -11 -10 l-370 0 q-10 0 -10 10 l0 228 q0 8 10 8 l370 0 Z" /><glyph glyph-name="uni0643" unicode="&#x643;&#xfed9;" d="M662 739 l116 19 q-40 20 -66 55.5 q-26 35.5 -26 83.5 q0 86 60.5 136 q60.5 50 164.5 50 q98 0 168 -36 l-41 -105 q-54 27 -110 27 q-45 0 -72 -27.5 q-27 -27.5 -27 -71.5 q0 -61 62 -92 l36 6 q103 16 167 21 l0 -119 q-133 -8 -432 -51 l0 104 ZM541 0 q-189 0 -298.5 110 q-109.5 110 -109.5 302 q0 77 18 164.5 q18 87.5 48 148.5 l270 0 q-31 -133 -31 -268 q0 -95 53 -153 q53 -58 140 -58 l665 0 l0 1310 l306 0 l0 -1556 l-1061 0 Z" /><glyph glyph-name="uni0644" unicode="&#x644;&#xfedd;" d="M690 -492 q-171 0 -297.5 72 q-126.5 72 -193 202.5 q-66.5 130.5 -66.5 299.5 q0 116 28 236.5 q28 120.5 77 216.5 l270 0 q-32 -110 -51 -230.5 q-19 -120.5 -19 -224.5 q0 -149 75 -237.5 q75 -88.5 198 -88.5 l61 0 q158 0 232.5 85.5 q74.5 85.5 74.5 240.5 l0 1476 l305 0 l0 -1484 q0 -564 -604 -564 l-90 0 Z" /><glyph glyph-name="uni0645" unicode="&#x645;&#xfee1;" d="M133 -57 q0 134 70 213 q70 79 198 88 q-55 130 -55 284 q0 90 31 195 q31 105 74 174 q92 54 204 85.5 q112 31.5 201 31.5 q140 0 254 -59.5 q114 -59.5 178 -170 q64 -110.5 64 -254.5 q0 -156 -72.5 -276 q-72.5 -120 -201.5 -187 q-129 -67 -285 -67 l-189 0 q-92 0 -129 -36.5 q-37 -36.5 -37 -121.5 l0 -497 l-305 0 l0 598 ZM629 485 q0 -104 47 -239 l78 0 q123 0 206.5 83 q83.5 83 83.5 201 q0 112 -53.5 175 q-53.5 63 -140.5 63 q-92 0 -191 -57 q-30 -108 -30 -226 Z" /><glyph glyph-name="uni0647" unicode="&#x647;&#xfee9;" d="M643 -20 q-250 0 -380 119 q-130 119 -130 352 q0 159 65.5 294.5 q65.5 135.5 182.5 212 q117 76.5 268 76.5 q139 0 253 -74 q114 -74 185.5 -212.5 q71.5 -138.5 71.5 -296.5 q0 -243 -130 -357 q-130 -114 -386 -114 ZM641 229 q108 0 159.5 57.5 q51.5 57.5 51.5 174.5 q0 132 -62.5 229.5 q-62.5 97.5 -150.5 97.5 q-88 0 -149.5 -95 q-61.5 -95 -61.5 -232 q0 -118 52.5 -175 q52.5 -57 160.5 -57 Z" /><glyph glyph-name="uni0648" unicode="&#x648;&#xfeed;" d="M569 -492 q-139 0 -240.5 21.5 q-101.5 21.5 -195.5 77.5 l119 223 q83 -43 157 -60.5 q74 -17.5 154 -17.5 q116 0 179 63.5 q63 63.5 63 174.5 l0 10 l-203 0 q-219 0 -337 124 q-118 124 -118 353 q0 162 81 284.5 q81 122.5 229 187.5 q148 65 342 65 l311 0 l0 -1020 q0 -233 -141.5 -359.5 q-141.5 -126.5 -399.5 -126.5 ZM805 246 l0 522 l-66 0 q-131 0 -204.5 -74 q-73.5 -74 -73.5 -209 q0 -123 50 -181 q50 -58 153 -58 l141 0 Z" /><glyph glyph-name="uni0649" unicode="&#x649;&#xfeef;" d="M545 -492 q-117 0 -212 59.5 q-95 59.5 -147.5 166.5 q-52.5 107 -52.5 241 q0 200 66 396 l272 0 q-26 -85 -34.5 -161 q-8.5 -76 -8.5 -190 q0 -70 34.5 -132.5 q34.5 -62.5 91.5 -98 q57 -35.5 118 -35.5 l354 0 q159 0 232 29 q73 29 73 94 q0 42 -27.5 75.5 q-27.5 33.5 -92.5 73.5 q-86 54 -197.5 129.5 q-111.5 75.5 -154 133.5 q-42.5 58 -42.5 127 q0 120 108.5 273.5 q108.5 153.5 260.5 248 q152 94.5 291 94.5 q48 0 97.5 -18.5 q49.5 -18.5 141.5 -77.5 l-110 -223 q-41 23 -80 39 q-39 16 -82 16 q-54 0 -142.5 -57 q-88.5 -57 -146 -125 q-57.5 -68 -57.5 -119 q0 -32 46.5 -75.5 q46.5 -43.5 135.5 -99.5 q83 -52 175 -128 q92 -76 136.5 -145.5 q44.5 -69.5 44.5 -135.5 q0 -188 -156.5 -281.5 q-156.5 -93.5 -451.5 -93.5 l-483 0 Z" /><glyph glyph-name="uni064B" unicode="&#x64b;" d="M-240 1722 l480 179 l0 -132 l-480 -180 l0 133 ZM-240 1954 l480 178 l0 -131 l-480 -180 l0 133 Z" /><glyph glyph-name="uni064C" unicode="&#x64c;" d="M47 1597 q-51 0 -91 10 q-40 10 -74 28 q-34 18 -83 61 l-90 -76 l-76 98 l179 158 q114 -160 227 -160 q25 0 41 4 q-62 88 -62 172 q0 80 53.5 128 q53.5 48 137.5 48 q83 0 132.5 -47 q49.5 -47 49.5 -120 q0 -83 -46.5 -152.5 q-46.5 -69.5 -127 -110.5 q-80.5 -41 -170.5 -41 ZM190 1761 q45 26 61.5 62 q16.5 36 16.5 65 q0 29 -17.5 46.5 q-17.5 17.5 -45.5 17.5 q-25 0 -44.5 -17.5 q-19.5 -17.5 -19.5 -52.5 q0 -53 49 -121 Z" /><glyph glyph-name="uni064D" unicode="&#x64d;" d="M-240 -700 l480 178 l0 -131 l-480 -181 l0 134 ZM-240 -449 l480 179 l0 -131 l-480 -181 l0 133 Z" /><glyph glyph-name="uni064E" unicode="&#x64e;" d="M-240 1722 l480 179 l0 -132 l-480 -180 l0 133 Z" /><glyph glyph-name="uni064F" unicode="&#x64f;" d="M-82 1597 q-117 0 -219 74 l70 101 q86 -56 145 -56 q50 0 84 10 q-57 87 -57 166 q0 80 53.5 128 q53.5 48 136.5 48 q83 0 132.5 -47 q49.5 -47 49.5 -120 q0 -75 -55.5 -147 q-55.5 -72 -145 -114.5 q-89.5 -42.5 -194.5 -42.5 ZM106 1767 q44 26 63 60 q19 34 19 65 q0 26 -17.5 43 q-17.5 17 -43.5 17 q-26 0 -46 -17.5 q-20 -17.5 -20 -52.5 q0 -49 45 -115 Z" /><glyph glyph-name="uni0650" unicode="&#x650;" d="M-240 -449 l480 179 l0 -131 l-480 -181 l0 133 Z" /><glyph glyph-name="uni0651" unicode="&#x651;" d="M-147 1651 q-85 0 -132 52.5 q-47 52.5 -47 145.5 l0 129 l127 0 l0 -96 q0 -56 15 -84.5 q15 -28.5 57 -28.5 q41 0 60.5 20.5 q19.5 20.5 19.5 74.5 l0 166 l117 0 l0 -125 q0 -45 15.5 -70 q15.5 -25 61.5 -25 q42 0 58 22 q16 22 16 91 l0 137 l127 0 l0 -170 q0 -94 -48.5 -146 q-48.5 -52 -137.5 -52 q-94 0 -144 61 q-51 -102 -165 -102 Z" /><glyph glyph-name="uni0652" unicode="&#x652;" d="M-2 1671 q-103 0 -163 58.5 q-60 58.5 -60 156.5 q0 98 60 156.5 q60 58.5 163 58.5 q101 0 165 -58.5 q64 -58.5 64 -154.5 q0 -97 -62.5 -157 q-62.5 -60 -166.5 -60 ZM-2 1796 q40 0 65 24 q25 24 25 66 q0 42 -25 66 q-25 24 -65 24 q-40 0 -65 -24 q-25 -24 -25 -66 q0 -42 22.5 -66 q22.5 -24 67.5 -24 Z" /><glyph glyph-name="uni0653" unicode="&#x653;" d="M-324 1561 q13 129 69 196.5 q56 67.5 142 67.5 q42 0 82.5 -17.5 q40.5 -17.5 78.5 -39 q38 -21.5 72.5 -39 q34.5 -17.5 63.5 -17.5 q45 0 68 26.5 q23 26.5 39 88.5 l104 0 q-10 -123 -65 -193.5 q-55 -70.5 -146 -70.5 q-40 0 -79.5 17.5 q-39.5 17.5 -77.5 38.5 q-38 21 -73.5 38.5 q-35.5 17.5 -66.5 17.5 q-45 0 -68.5 -26.5 q-23.5 -26.5 -37.5 -87.5 l-105 0 Z" /><glyph glyph-name="uni0654" unicode="&#x654;" d="M-203 1669 l117 19 q-40 20 -66 55.5 q-26 35.5 -26 83.5 q0 88 61 137 q61 49 164 49 q101 0 168 -37 l-41 -104 q-52 26 -111 26 q-44 0 -71 -26 q-27 -26 -27 -72 q0 -32 18 -56 q18 -24 44 -36 l36 6 q104 16 166 21 l0 -119 q-73 -5 -241.5 -25 q-168.5 -20 -190.5 -26 l0 104 Z" /><glyph glyph-name="uni0655" unicode="&#x655;" d="M-223 -500 l117 19 q-41 20 -67 55.5 q-26 35.5 -26 83.5 q0 86 61 136 q61 50 165 50 q101 0 168 -37 l-41 -104 q-57 27 -111 27 q-44 0 -71 -26.5 q-27 -26.5 -27 -72.5 q0 -61 61 -92 l37 6 q100 16 166 21 l0 -119 q-73 -5 -241.5 -25 q-168.5 -20 -190.5 -26 l0 104 Z" /><glyph glyph-name="uni0656" unicode="&#x656;" d="M-59 -395 l137 0 l0 -398 l-137 0 l0 398 Z" /><glyph glyph-name="uni0657" unicode="&#x657;" d="M-115 1405 q0 80 48 145.5 q48 65.5 180 141.5 l41 -62 q-90 -46 -150 -106 q47 -15 78 -50 q31 -35 31 -73 q0 -50 -39.5 -85.5 q-39.5 -35.5 -87.5 -35.5 q-46 0 -73.5 35.5 q-27.5 35.5 -27.5 89.5 ZM-35 1462 q-12 -21 -12 -53 q0 -51 41 -51 q14 0 28.5 11 q14.5 11 14.5 30 q0 11 -6 20.5 q-6 9.5 -15.5 17.5 q-9.5 8 -50.5 25 Z" /><glyph glyph-name="uni0658" unicode="&#x658;" d="M123 1544 q0 -112 -34.5 -170.5 q-34.5 -58.5 -100.5 -58.5 q-131 0 -131 186 l63 0 q0 -96 68 -96 q33 0 49 31.5 q16 31.5 16 105.5 l70 2 Z" /><glyph glyph-name="uni0659" unicode="&#x659;" d="M315 1534 l-122 -244 l-451 0 l113 244 l460 0 Z" /><glyph glyph-name="uni065D" unicode="&#x65d;" d="M94 1198 q-103 0 -194.5 42.5 q-91.5 42.5 -146 114 q-54.5 71.5 -54.5 146.5 q0 75 51.5 121.5 q51.5 46.5 130.5 46.5 q84 0 137.5 -48.5 q53.5 -48.5 53.5 -127.5 q0 -80 -58 -166 q34 -10 84 -10 q60 0 146 55 l69 -100 q-101 -74 -219 -74 ZM-94 1368 q45 66 45 115 q0 35 -20 52 q-20 17 -46 17 q-26 0 -43.5 -16.5 q-17.5 -16.5 -17.5 -42.5 q0 -31 19 -65 q19 -34 63 -60 Z" /><glyph glyph-name="uni065E" unicode="&#x65e;" d="M258 1524 l-82 -244 l-430 -164 l72 244 l440 164 ZM-86 1464 q-40 0 -68 25 q-28 25 -28 78 q0 54 28 78 q28 24 68 24 q38 0 66 -24 q28 -24 28 -78 q0 -53 -28 -78 q-28 -25 -66 -25 ZM94 958 q-40 0 -68 25 q-28 25 -28 78 q0 54 28 78 q28 24 68 24 q38 0 66 -24 q28 -24 28 -78 q0 -53 -28 -78 q-28 -25 -66 -25 Z" /><glyph glyph-name="uni0660" unicode="&#x660;" d="M205 836 l366 0 l0 -465 l-366 0 l0 465 Z" /><glyph glyph-name="uni0661" unicode="&#x661;" d="M205 1380 l305 0 l0 -1380 l-305 0 l0 1380 Z" /><glyph glyph-name="uni0662" unicode="&#x662;" d="M92 1186 l0 194 l946 0 l0 -260 l-610 0 l418 -1120 l-324 0 l-430 1186 Z" /><glyph glyph-name="uni0663" unicode="&#x663;" d="M92 1380 l307 0 l111 -286 q12 -13 29 -13 q24 0 31.5 56.5 q7.5 56.5 7.5 242.5 l243 0 q0 -225 -8 -286 q15 -13 57 -13 q45 0 66 25.5 q21 25.5 29 83.5 q8 58 8 190 l244 0 l0 -28 q0 -251 -68.5 -358 q-68.5 -107 -228.5 -107 q-98 0 -164 47 q-45 -45 -109 -45 q-62 0 -90 14 l350 -903 l-317 0 l-498 1380 Z" /><glyph glyph-name="uni0664" unicode="&#x664;" d="M678 -20 q-136 0 -251 41 q-115 41 -184 107 q-69 66 -69 132 q0 59 34.5 114.5 q34.5 55.5 110.5 119.5 q76 64 252 182 l-105 85 q-206 166 -206 230 q0 53 90.5 139 q90.5 86 238 169 q147.5 83 306.5 135 l76 -256 q-92 -30 -183.5 -71.5 q-91.5 -41.5 -157 -82.5 q-65.5 -41 -65.5 -53 q0 -10 28 -35.5 q28 -25.5 316 -245.5 q-236 -164 -304.5 -219 q-68.5 -55 -103 -95 q-34.5 -40 -34.5 -65 q0 -31 74 -55.5 q74 -24.5 182 -24.5 q176 0 328 48 l0 -250 q-145 -49 -373 -49 Z" /><glyph glyph-name="uni0665" unicode="&#x665;" d="M639 -20 q-265 0 -385.5 136.5 q-120.5 136.5 -120.5 415.5 q0 225 68.5 430 q68.5 205 185.5 321 q117 116 258 116 q137 0 251 -111.5 q114 -111.5 184.5 -317 q70.5 -205.5 70.5 -438.5 q0 -195 -54.5 -317 q-54.5 -122 -163 -178.5 q-108.5 -56.5 -294.5 -56.5 ZM637 229 q205 0 205 312 q0 258 -58.5 435 q-58.5 177 -148.5 177 q-54 0 -101 -81.5 q-47 -81.5 -75.5 -225 q-28.5 -143.5 -28.5 -307.5 q0 -310 207 -310 Z" /><glyph glyph-name="uni0666" unicode="&#x666;" d="M557 1120 l-557 0 l0 260 l862 0 l0 -1380 l-305 0 l0 1120 Z" /><glyph glyph-name="uni0667" unicode="&#x667;" d="M41 1380 l319 0 l185 -776 q35 -171 45 -291 l6 0 q2 45 18.5 147 q16.5 102 26.5 144 l184 776 l320 0 l-395 -1380 l-314 0 l-395 1380 Z" /><glyph glyph-name="uni0668" unicode="&#x668;" d="M436 1380 l314 0 l395 -1380 l-320 0 l-184 776 q-11 44 -27 144 q-16 100 -18 147 l-6 0 q-10 -120 -45 -291 l-185 -776 l-319 0 l395 1380 Z" /><glyph glyph-name="uni0669" unicode="&#x669;" d="M739 516 l-164 0 q-514 0 -514 453 q0 203 129 317.5 q129 114.5 349 114.5 q256 0 380.5 -163 q124.5 -163 124.5 -486 l0 -752 l-305 0 l0 516 ZM739 752 q0 208 -49 307.5 q-49 99.5 -151 99.5 q-82 0 -128 -52.5 q-46 -52.5 -46 -143.5 q0 -103 56 -157 q56 -54 163 -54 l155 0 Z" /><glyph glyph-name="uni066A" unicode="&#x66a;" d="M199 1266 l258 0 l0 -258 l-258 0 l0 258 ZM870 1380 l240 0 l-768 -1380 l-240 0 l768 1380 ZM748 401 l258 0 l0 -258 l-258 0 l0 258 Z" /><glyph glyph-name="uni066B" unicode="&#x66b;" d="M133 -264 q63 255 100 502 l281 0 l14 -23 q-52 -202 -176 -479 l-219 0 Z" /><glyph glyph-name="uni066C" unicode="&#x66c;" d="M133 287 q63 257 100 501 l281 0 l14 -22 q-52 -202 -176 -479 l-219 0 Z" /><glyph glyph-name="uni066D" unicode="&#x66d;" d="M571 911 l-137 -311 l-235 119 l221 297 l-338 26 l39 250 l364 -104 l-41 368 l263 0 l-41 -368 l372 104 l33 -252 l-340 -24 l223 -297 l-227 -121 l-156 313 Z" /><glyph glyph-name="uni066E" unicode="&#x66e;" d="M541 0 q-189 0 -298.5 110 q-109.5 110 -109.5 302 q0 77 18 164.5 q18 87.5 48 148.5 l270 0 q-31 -133 -31 -268 q0 -95 53 -153 q53 -58 140 -58 l665 0 l0 768 l306 0 l0 -1014 l-1061 0 Z" /><glyph glyph-name="uni066F" unicode="&#x66f;" d="M676 -492 q-154 0 -278.5 74 q-124.5 74 -194.5 206.5 q-70 132.5 -70 293.5 q0 116 28 236.5 q28 120.5 77 216.5 l270 0 q-32 -110 -51 -230.5 q-19 -120.5 -19 -224.5 q0 -154 84.5 -240 q84.5 -86 245.5 -86 l346 0 q198 0 287.5 56.5 q89.5 56.5 89.5 179.5 l0 10 l-145 0 l-12 0 q-147 0 -260.5 62 q-113.5 62 -176.5 177 q-63 115 -63 269 q0 154 69.5 268 q69.5 114 204.5 176 q135 62 326 62 l362 0 l0 -961 q0 -276 -139.5 -410.5 q-139.5 -134.5 -439.5 -134.5 l-541 0 ZM1491 246 l0 522 l-53 0 q-291 0 -291 -272 q0 -125 76 -187.5 q76 -62.5 211 -62.5 l57 0 Z" /><glyph glyph-name="uni0670" unicode="&#x670;" d="M-59 2058 l137 0 l0 -397 l-137 0 l0 397 Z" /><glyph glyph-name="uni06A9" unicode="&#x6a9;&#xfb8e;" d="M541 0 q-191 0 -299.5 110 q-108.5 110 -108.5 302 q0 162 66 313 l270 0 q-31 -164 -31 -268 q0 -98 52.5 -154.5 q52.5 -56.5 140.5 -56.5 l727 0 l0 329 q0 124 -85 190 q-85 66 -241 66 l-348 0 l0 222 q108 229 305.5 403.5 q197.5 174.5 458.5 267.5 l113 -274 q-177 -53 -333.5 -158.5 q-156.5 -105.5 -226.5 -214.5 l78 0 q584 0 584 -463 l0 -614 l-1122 0 Z" /><glyph glyph-name="uni06AA" unicode="&#x6aa;" d="M84 311 q320 -65 653 -65 l1170 0 q0 124 -85 190 q-85 66 -241 66 l-1089 0 l0 221 q109 231 306 405 q197 174 457 267 l113 -275 q-176 -53 -332.5 -158 q-156.5 -105 -226.5 -214 l819 0 q290 0 437 -118 q147 -118 147 -345 l0 -285 l-1376 0 q-217 0 -434 34.5 q-217 34.5 -361 96.5 l43 180 Z" /><glyph glyph-name="uni06AB" unicode="&#x6ab;" d="M1329 999 q-78 0 -133 34 q-55 34 -78 97 q-48 -55 -117 -157 l78 0 q290 0 437 -118 q147 -118 147 -345 l0 -510 l-1122 0 q-191 0 -299.5 110 q-108.5 110 -108.5 302 q0 162 66 313 l270 0 q-31 -164 -31 -268 q0 -98 52.5 -154.5 q52.5 -56.5 140.5 -56.5 l727 0 l0 225 q0 124 -85 190 q-85 66 -241 66 l-348 0 l0 221 q136 289 336 492 q200 203 428 284 l113 -274 q-50 -15 -115 -47 q51 -25 82 -72.5 q31 -47.5 31 -113.5 q0 -99 -63 -158.5 q-63 -59.5 -167 -59.5 ZM1329 1124 q40 0 65 24 q25 24 25 66 q0 42 -25 66.5 q-25 24.5 -65 24.5 q-40 0 -65 -24.5 q-25 -24.5 -25 -66.5 q0 -42 22.5 -66 q22.5 -24 67.5 -24 Z" /><glyph glyph-name="uni06BA" unicode="&#x6ba;&#xfb9e;" d="M690 -492 q-171 0 -297.5 72 q-126.5 72 -193 202.5 q-66.5 130.5 -66.5 299.5 q0 116 28 236.5 q28 120.5 77 216.5 l270 0 q-32 -110 -51 -230.5 q-19 -120.5 -19 -224.5 q0 -149 75 -237.5 q75 -88.5 198 -88.5 l61 0 q158 0 232.5 85.5 q74.5 85.5 74.5 240.5 l0 934 l305 0 l0 -942 q0 -564 -604 -564 l-90 0 Z" /><glyph glyph-name="uni06BE" unicode="&#x6be;&#xfbaa;" d="M842 246 l0 278 q0 106 -37.5 154.5 q-37.5 48.5 -118.5 48.5 q-69 0 -113.5 -58 q-44.5 -58 -44.5 -149 q0 -274 248 -274 l66 0 ZM133 246 l180 0 q-42 38 -70 109 q-28 71 -28 177 q0 120 64 225.5 q64 105.5 172.5 165.5 q108.5 60 232.5 60 q139 0 244 -58 q105 -58 162 -159.5 q57 -101.5 57 -228.5 l0 -291 l285 0 l0 379 q0 261 -129 399.5 q-129 138.5 -373 138.5 q-153 0 -270.5 -18.5 q-117.5 -18.5 -227.5 -59.5 l-70 234 q141 49 277 69.5 q136 20.5 291 20.5 q403 0 605 -194.5 q202 -194.5 202 -563.5 l0 -651 l-1604 0 l0 246 Z" /><glyph glyph-name="uni06C1.fina" unicode="&#x6c1;&#xfba7;" d="M1638 246 q11 0 11 -8 l0 -228 q0 -10 -11 -10 l-561 0 l0 743 q-116 -43 -212 -125.5 q-96 -82.5 -189 -215.5 q-93 -133 -232 -402 l-342 0 q160 297 231.5 406.5 q71.5 109.5 146.5 197 q75 87.5 162 159.5 q87 72 192 130 q105 58 233 100 l315 0 l0 -747 l256 0 Z" /><glyph glyph-name="uni06C4" unicode="&#x6c4;" d="M1096 -51 q0 -179 -102.5 -351 q-102.5 -172 -303.5 -319 l-174 195 l64 55 q-73 17 -115.5 70 q-42.5 53 -42.5 137 q0 98 60 156.5 q60 58.5 163 58.5 q85 0 143 -41 l0 90 l-200 0 q-219 0 -337 124 q-118 124 -118 353 q0 162 81 285 q81 123 228.5 187.5 q147.5 64.5 341.5 64.5 l312 0 l0 -1065 ZM791 246 l0 522 l-66 0 q-131 0 -205 -74 q-74 -74 -74 -209 q0 -123 50.5 -181 q50.5 -58 152.5 -58 l142 0 ZM645 -354 q40 0 65 24 q25 24 25 66 q0 42 -25 66 q-25 24 -65 24 q-40 0 -65 -24 q-25 -24 -25 -66 q0 -42 22.5 -66 q22.5 -24 67.5 -24 Z" /><glyph glyph-name="uni06C5" unicode="&#x6c5;" d="M1096 -51 q0 -179 -102.5 -351 q-102.5 -172 -303.5 -319 l-174 195 q102 87 148 137 l-37 15 q-58 24 -121 24 q-85 0 -133 -21 l-74 168 q45 34 102 54 q57 20 107 20 q35 0 77 -12 q42 -12 116 -41 l71 -25 q16 50 16 107 l0 100 l-200 0 q-219 0 -337 124 q-118 124 -118 353 q0 162 81 285 q81 123 228.5 187.5 q147.5 64.5 341.5 64.5 l312 0 l0 -1065 ZM791 246 l0 522 l-66 0 q-131 0 -205 -74 q-74 -74 -74 -209 q0 -123 50.5 -181 q50.5 -58 152.5 -58 l142 0 Z" /><glyph glyph-name="uni06CD" unicode="&#x6cd;" d="M373 -25 q0 116 13 187 q13 71 48 157 l-409 -122 l-66 170 l643 270 l123 -219 q-24 -96 -40.5 -207.5 q-16.5 -111.5 -16.5 -190.5 q0 -107 72.5 -186.5 q72.5 -79.5 170.5 -79.5 l355 0 q159 0 232 29 q73 29 73 94 q0 42 -27.5 75.5 q-27.5 33.5 -92.5 73.5 q-76 48 -191.5 125.5 q-115.5 77.5 -159 136.5 q-43.5 59 -43.5 128 q0 120 108.5 273.5 q108.5 153.5 260.5 248 q152 94.5 290 94.5 q49 0 98.5 -18.5 q49.5 -18.5 141.5 -77.5 l-111 -223 q-96 55 -162 55 q-51 0 -135 -52.5 q-84 -52.5 -147.5 -123 q-63.5 -70.5 -63.5 -125.5 q0 -30 41 -70.5 q41 -40.5 168 -121.5 q63 -40 153 -115 q90 -75 133.5 -143 q43.5 -68 43.5 -134 q0 -188 -156.5 -281.5 q-156.5 -93.5 -451.5 -93.5 l-484 0 q-118 0 -213 60.5 q-95 60.5 -146.5 168 q-51.5 107.5 -51.5 238.5 Z" /><glyph glyph-name="uni06D2" unicode="&#x6d2;&#xfbae;" d="M524 -492 q-206 0 -319 86 q-113 86 -113 242 q0 90 37.5 156.5 q37.5 66.5 116 121 q78.5 54.5 258.5 128.5 q153 63 209.5 102 q56.5 39 79 88 q22.5 49 22.5 137 l0 76 l305 0 l0 -82 q0 -133 -35 -217.5 q-35 -84.5 -113 -146 q-78 -61.5 -231 -119.5 q-172 -67 -233 -99 q-61 -32 -86 -62.5 q-25 -30.5 -25 -72.5 q0 -92 123 -92 l959 0 l0 -246 l-955 0 Z" /><glyph glyph-name="uni06D4" unicode="&#x6d4;" d="M360 246 q11 0 11 -8 l0 -228 q0 -10 -11 -10 l-370 0 q-10 0 -10 10 l0 228 q0 8 10 8 l370 0 Z" /><glyph glyph-name="uni06D6" unicode="&#x6d6;" d="M-301 1188 q-43 0 -65.5 -16 q-22.5 -16 -22.5 -42 q0 -40 53 -40 l490 0 l0 -99 l-521 0 q-64 0 -103.5 38.5 q-39.5 38.5 -39.5 98.5 q0 70 60 114 q60 44 145 44 l153 0 l0 494 l123 0 l0 -494 l92 0 l0 232 l123 0 l0 -113 q73 151 222 151 q102 0 152 -52.5 q50 -52.5 50 -164.5 l0 -151 l-911 0 ZM489 1286 l0 55 q0 117 -112 117 q-114 0 -191 -153 l0 -19 l303 0 Z" /><glyph glyph-name="uni06D7" unicode="&#x6d7;" d="M119 1286 q-39 50 -39 109 q0 91 63.5 144.5 q63.5 53.5 175.5 53.5 l146 0 l0 -405 l-766 0 q-43 0 -65.5 -16 q-22.5 -16 -22.5 -42 q0 -40 53 -40 l490 0 l0 -99 l-521 0 q-64 0 -103.5 38.5 q-39.5 38.5 -39.5 98.5 q0 70 60 114 q60 44 145 44 l153 0 l0 494 l123 0 l0 -494 l148 0 ZM342 1286 l0 209 l-20 0 q-56 0 -86.5 -27.5 q-30.5 -27.5 -30.5 -78.5 q0 -50 30 -76.5 q30 -26.5 84 -26.5 l23 0 ZM240 1665 q-23 0 -39.5 14 q-16.5 14 -16.5 45 q0 31 16.5 44.5 q16.5 13.5 39.5 13.5 q21 0 37 -13.5 q16 -13.5 16 -44.5 q0 -31 -16 -45 q-16 -14 -37 -14 ZM379 1665 q-23 0 -39 14 q-16 14 -16 45 q0 58 55 58 q53 0 53 -58 q0 -31 -15.5 -45 q-15.5 -14 -37.5 -14 Z" /><glyph glyph-name="uni06D8" unicode="&#x6d8;" d="M-133 1092 q-23 54 -23 114 q0 30 11.5 73 q11.5 43 29.5 75 q85 45 164 45 q88 0 142.5 -53 q54.5 -53 54.5 -140 q0 -95 -64 -154 q-64 -59 -159 -59 l-248 0 q-4 0 -4 4 l0 90 q0 5 4 5 l92 0 ZM-43 1188 q0 -47 20 -96 l31 0 q49 0 82 33 q33 33 33 81 q0 47 -22 70.5 q-22 23.5 -56 23.5 q-38 0 -76 -22 q-12 -44 -12 -90 Z" /><glyph glyph-name="uni06D9" unicode="&#x6d9;" d="M-211 1092 l148 0 l-107 413 l129 0 l96 -413 l6 0 q47 0 63.5 25 q16.5 25 16.5 69 l0 430 l121 0 l0 -438 q0 -84 -45 -134.5 q-45 -50.5 -129 -50.5 l-299 0 l0 99 Z" /><glyph glyph-name="uni06DA" unicode="&#x6da;" d="M-2 995 q-84 0 -135 46.5 q-51 46.5 -51 123.5 q0 84 66 144.5 q66 60.5 231 107.5 l-19 66 q-26 96 -110 96 q-54 0 -121 -39 l-45 90 q84 47 192 47 q162 0 189 -159 q14 -78 31.5 -112.5 q17.5 -34.5 54.5 -62.5 l-62 -79 q-41 28 -67 67 q-105 -28 -143.5 -47.5 q-38.5 -19.5 -58.5 -46 q-20 -26.5 -20 -63.5 q0 -35 25.5 -56.5 q25.5 -21.5 67.5 -21.5 q52 0 120 16 l15 -88 q-80 -29 -160 -29 ZM55 1139 q-21 0 -37 14 q-16 14 -16 45 q0 31 16 45 q16 14 37 14 q23 0 39.5 -14 q16.5 -14 16.5 -45 q0 -31 -16.5 -45 q-16.5 -14 -39.5 -14 Z" /><glyph glyph-name="uni06DC" unicode="&#x6dc;" d="M-80 1276 q45 0 61.5 25.5 q16.5 25.5 16.5 70.5 l0 148 l123 0 l0 -158 q0 -21 -4 -39 q21 -26 41 -36.5 q20 -10.5 51 -10.5 l51 0 l0 307 l123 0 l0 -405 l-172 0 q-68 0 -127 61 q-48 -61 -137 -61 l-99 0 q-16 -197 -239 -197 l-37 0 q-104 0 -163.5 62.5 q-59.5 62.5 -59.5 166.5 q0 97 43 183 l106 0 q-26 -110 -26 -183 q0 -60 29.5 -95.5 q29.5 -35.5 78.5 -35.5 l25 0 q123 0 123 131 l0 310 l122 0 l0 -244 l70 0 Z" /><glyph glyph-name="uni06DD" unicode="&#x6dd;" d="M2251 715 q0 -246 -105 -465 q-105 -219 -278 -369 l2 -28 q0 -56 -39 -95 q-39 -39 -94 -39 q-39 0 -74 23 q-240 -127 -514 -127 q-272 0 -512 127 q-35 -23 -74 -23 q-55 0 -94 39 q-39 39 -39 95 l2 28 q-178 154 -278 369 q-105 219 -105 465 q0 243 102.5 461.5 q102.5 218.5 280.5 371.5 l-2 29 q0 55 39 93 q39 38 94 38 q39 0 74 -20 q240 127 514 127 q272 0 512 -127 q35 20 74 20 q55 0 94 -38 q39 -38 39 -93 l-2 -29 q179 -154 281 -372.5 q102 -218.5 102 -460.5 ZM1817 1577 q0 33 -24 55.5 q-24 22.5 -54 22.5 q-33 0 -56.5 -23.5 q-23.5 -23.5 -23.5 -54.5 q0 -33 23.5 -56.5 q23.5 -23.5 56.5 -23.5 q30 0 54 23.5 q24 23.5 24 56.5 ZM1602 1595 q-211 109 -451 109 q-242 0 -453 -109 l904 0 ZM641 1577 q0 31 -23.5 54.5 q-23.5 23.5 -56.5 23.5 q-31 0 -54.5 -22.5 q-23.5 -22.5 -23.5 -55.5 q0 -33 23.5 -56.5 q23.5 -23.5 54.5 -23.5 q35 0 57.5 23.5 q22.5 23.5 22.5 56.5 ZM2140 715 q0 218 -91 413 q-91 195 -249 332 q-28 -16 -63 -16 q-56 0 -95 41 l-985 0 q-39 -41 -94 -41 q-35 0 -63 16 q-160 -139 -251 -336.5 q-91 -197.5 -89 -408.5 q0 -451 340 -746 q28 17 63 17 q55 0 94 -41 l985 0 q39 41 95 41 q35 0 63 -17 q340 295 340 746 ZM1817 -147 q0 32 -24 54.5 q-24 22.5 -54 22.5 q-33 0 -56.5 -22.5 q-23.5 -22.5 -23.5 -54.5 q0 -31 23.5 -54.5 q23.5 -23.5 56.5 -23.5 q30 0 54 22.5 q24 22.5 24 55.5 ZM1602 -166 l-904 0 q211 -108 453 -108 q240 0 451 108 ZM641 -147 q0 32 -22.5 54.5 q-22.5 22.5 -57.5 22.5 q-31 0 -54.5 -22.5 q-23.5 -22.5 -23.5 -54.5 q0 -33 23.5 -55.5 q23.5 -22.5 54.5 -22.5 q33 0 56.5 23.5 q23.5 23.5 23.5 54.5 Z" /><glyph glyph-name="uni06DE" unicode="&#x6de;" d="M2171 750 l-309 -312 l0 -438 l-441 0 l-311 -311 l-309 311 l-441 0 l0 438 l-311 312 l311 311 l0 438 l441 0 l309 311 l311 -311 l441 0 l0 -438 l309 -311 ZM436 365 l0 -289 l289 0 l-289 289 ZM725 1425 l-289 0 l0 -288 l289 288 ZM1786 1137 l0 288 l-291 0 l291 -288 ZM1786 76 l0 289 l-291 -289 l291 0 ZM905 0 l205 -205 l205 205 l-410 0 ZM360 954 l-204 -204 l204 -205 l0 409 ZM1315 1499 l-205 207 l-205 -207 l410 0 ZM1786 1030 l-395 395 l-560 0 l-395 -395 l0 -561 l395 -393 l560 0 l395 393 l0 561 ZM2064 750 l-202 204 l0 -409 l202 205 ZM1327 750 q0 -91 -63.5 -154.5 q-63.5 -63.5 -153.5 -63.5 q-88 0 -152.5 63.5 q-64.5 63.5 -64.5 154.5 q0 90 64.5 153.5 q64.5 63.5 152.5 63.5 q90 0 153.5 -63.5 q63.5 -63.5 63.5 -153.5 ZM1253 750 q0 59 -42 101 q-42 42 -101 42 q-59 0 -100 -42 q-41 -42 -41 -101 q0 -60 41 -102 q41 -42 100 -42 q59 0 101 42 q42 42 42 102 Z" /><glyph glyph-name="uni06DF" unicode="&#x6df;" d="M0 1012 q-66 0 -102.5 39 q-36.5 39 -36.5 110 q0 72 36.5 111 q36.5 39 102.5 39 q65 0 102 -40.5 q37 -40.5 37 -109.5 q0 -68 -37 -108.5 q-37 -40.5 -102 -40.5 Z" /><glyph glyph-name="uni06E0" unicode="&#x6e0;" d="M137 1079 l-276 0 l0 277 l276 0 l0 -277 Z" /><glyph glyph-name="uni06E1" unicode="&#x6e1;" d="M-229 993 q-4 0 -4 4 l0 90 q0 5 4 5 l331 0 l0 2 q-31 24 -49 116 q-12 56 -33.5 77.5 q-21.5 21.5 -64.5 21.5 q-53 0 -111 -31 l-37 90 q72 39 173 39 q83 0 128 -36.5 q45 -36.5 60 -121.5 q20 -120 57 -157 l0 -99 l-454 0 Z" /><glyph glyph-name="uni06E2" unicode="&#x6e2;" d="M-219 1233 q0 111 108 121 q-22 52 -22 114 q0 36 11.5 78 q11.5 42 29.5 70 q85 45 164 45 q87 0 141.5 -52.5 q54.5 -52.5 54.5 -140.5 q0 -93 -62.5 -153 q-62.5 -60 -160.5 -60 l-76 0 q-32 0 -48.5 -12 q-16.5 -12 -16.5 -49 l0 -201 l-123 0 l0 240 ZM-20 1450 q0 -46 20 -96 l31 0 q47 0 80.5 32.5 q33.5 32.5 33.5 81.5 q0 47 -21.5 71 q-21.5 24 -55.5 24 q-38 0 -76 -23 q-12 -44 -12 -90 Z" /><glyph glyph-name="uni06E3" unicode="&#x6e3;" d="M-43 -197 q45 0 61.5 26 q16.5 26 16.5 71 l0 147 l123 0 l0 -158 l-4 -36 q21 -28 41 -39 q20 -11 51 -11 l51 0 l0 308 l123 0 l0 -406 l-172 0 q-67 0 -127 62 q-49 -62 -137 -62 l-99 0 q-16 -197 -239 -197 l-37 0 q-102 0 -162.5 62.5 q-60.5 62.5 -60.5 167.5 q0 98 43 182 l106 0 q-27 -111 -27 -182 q0 -60 29.5 -95.5 q29.5 -35.5 79.5 -35.5 l25 0 q122 0 122 131 l0 309 l123 0 l0 -244 l70 0 Z" /><glyph glyph-name="uni06E4" unicode="&#x6e4;" d="M-141 1151 q5 48 26 77 q21 29 58 29 q25 0 65 -22 q40 -23 53 -23 q19 0 28 10.5 q9 10.5 15 34.5 l43 0 q-5 -48 -26.5 -77 q-21.5 -29 -59.5 -29 q-22 0 -62 23 q-40 22 -56 22 q-17 0 -26.5 -10 q-9.5 -10 -14.5 -35 l-43 0 Z" /><glyph glyph-name="uni06E5" unicode="&#x6e5;" d="M215 993 q-56 0 -95 8.5 q-39 8.5 -79 32.5 l47 88 q56 -30 125 -30 q96 0 96 94 l0 4 l-80 0 q-81 0 -131.5 47 q-50.5 47 -50.5 145 q0 97 69.5 155 q69.5 58 190.5 58 l125 0 l0 -407 q0 -93 -58 -144 q-58 -51 -159 -51 ZM309 1288 l0 209 l-26 0 q-56 0 -83.5 -31 q-27.5 -31 -27.5 -82 q0 -96 82 -96 l55 0 Z" /><glyph glyph-name="uni06E6" unicode="&#x6e6;" d="M213 993 q-77 0 -124.5 33 q-47.5 33 -47.5 98 q0 51 32 87 q32 36 132 77 q80 32 102.5 55.5 q22.5 23.5 22.5 75.5 l0 29 l123 0 l0 -33 q0 -76 -33 -117.5 q-33 -41.5 -119 -74.5 q-78 -29 -107.5 -48.5 q-29.5 -19.5 -29.5 -46.5 q0 -36 49 -36 l383 0 l0 -99 l-383 0 Z" /><glyph glyph-name="uni06E7" unicode="&#x6e7;" d="M-158 993 q-77 0 -124.5 33 q-47.5 33 -47.5 98 q0 50 32 86 q32 36 132 78 q80 32 102.5 55.5 q22.5 23.5 22.5 75.5 l0 29 l123 0 l0 -33 q0 -76 -33 -117.5 q-33 -41.5 -119 -74.5 q-78 -29 -107.5 -48.5 q-29.5 -19.5 -29.5 -46.5 q0 -36 49 -36 l383 0 l0 -99 l-383 0 Z" /><glyph glyph-name="uni06E8" unicode="&#x6e8;" d="M-12 993 q-104 0 -164 63 q-60 63 -60 167 q0 92 43 180 l107 0 q-27 -111 -27 -182 q0 -60 29.5 -94.5 q29.5 -34.5 79.5 -34.5 l24 0 q123 0 123 129 l0 374 l123 0 l0 -376 q0 -226 -241 -226 l-37 0 ZM14 1595 q-23 0 -39 14.5 q-16 14.5 -16 43.5 q0 31 16 45 q16 14 39 14 q23 0 39.5 -14 q16.5 -14 16.5 -45 q0 -29 -16.5 -43.5 q-16.5 -14.5 -39.5 -14.5 Z" /><glyph glyph-name="uni06E9" unicode="&#x6e9;" d="M1180 0 l-1131 0 l230 260 l0 590 l-230 258 l565 567 l566 -567 l-230 -258 l0 -590 l230 -260 ZM1102 1108 l-488 489 l-487 -489 l211 -238 l0 -630 l-160 -185 l873 0 l-160 185 l0 630 l211 238 ZM995 1108 l-149 -170 l0 -807 l-463 0 l0 807 l-150 170 l381 381 l381 -381 ZM922 1108 l-308 307 l-307 -307 l125 -139 l0 -783 l365 0 l0 783 l125 139 ZM834 1108 l-89 -96 l0 -746 l-262 0 l0 746 l-88 96 l219 223 l220 -223 ZM780 1108 l-166 170 l-165 -170 l73 -82 l0 -717 l183 0 l0 717 l75 82 Z" /><glyph glyph-name="uni06EA" unicode="&#x6ea;" d="M211 -489 l-211 -211 l-211 211 l211 210 l211 -210 ZM104 -489 l-104 104 l-104 -104 l104 -105 l104 105 Z" /><glyph glyph-name="uni06EB" unicode="&#x6eb;" d="M211 1157 l-211 -211 l-211 211 l211 211 l211 -211 ZM104 1157 l-104 105 l-104 -105 l104 -104 l104 104 Z" /><glyph glyph-name="uni06ED" unicode="&#x6ed;" d="M-260 -530 q0 52 27 84.5 q27 32.5 81 35.5 q-22 52 -22 115 q0 36 11.5 78 q11.5 42 29.5 70 q85 45 164 45 q87 0 141.5 -52.5 q54.5 -52.5 54.5 -140.5 q0 -93 -62.5 -153 q-62.5 -60 -160.5 -60 l-76 0 q-32 0 -48.5 -12 q-16.5 -12 -16.5 -49 l0 -201 l-123 0 l0 240 ZM-61 -313 q0 -44 20 -97 l31 0 q48 0 81 33.5 q33 33.5 33 81.5 q0 47 -21.5 70.5 q-21.5 23.5 -55.5 23.5 q-38 0 -76 -22 q-12 -44 -12 -90 Z" /><glyph glyph-name="uni06F4" unicode="&#x6f4;" d="M92 1380 l301 0 l88 -227 q57 -44 162 -63 q-40 26 -61 69.5 q-21 43.5 -21 95.5 q0 179 240 179 q73 0 131 -21 l-29 -133 q-42 14 -86 14 q-34 0 -55 -20.5 q-21 -20.5 -21 -61.5 q0 -101 101 -129 q55 9 81 34 q26 25 38 73.5 q12 48.5 12 128.5 l244 0 l0 -25 q0 -196 -95.5 -301.5 q-95.5 -105.5 -263.5 -105.5 q-99 0 -163.5 11.5 q-64.5 11.5 -147.5 51.5 l360 -950 l-317 0 l-498 1380 Z" /><glyph glyph-name="uni06F5" unicode="&#x6f5;" d="M780 229 q82 0 82 320 q0 150 -32 293.5 q-32 143.5 -84 227 q-52 83.5 -111 83.5 q-54 0 -107 -88 q-53 -88 -85.5 -229 q-32.5 -141 -32.5 -287 q0 -318 94 -318 q32 0 45.5 45 q13.5 45 19.5 130 l152 -3 q5 -85 16.5 -129.5 q11.5 -44.5 42.5 -44.5 ZM444 -20 q-146 0 -228.5 146.5 q-82.5 146.5 -82.5 405.5 q0 225 68.5 430 q68.5 205 185.5 321 q117 116 258 116 q137 0 251 -111.5 q114 -111.5 184.5 -317 q70.5 -205.5 70.5 -438.5 q0 -265 -80.5 -408.5 q-80.5 -143.5 -226.5 -143.5 q-64 0 -118.5 33.5 q-54.5 33.5 -86.5 88.5 q-26 -52 -79 -87 q-53 -35 -116 -35 Z" /><glyph glyph-name="uni06F6" unicode="&#x6f6;" d="M141 0 q115 344 340 569 q-152 37 -250 149.5 q-98 112.5 -98 264.5 q0 201 123 309.5 q123 108.5 356 108.5 q88 0 190.5 -23.5 q102.5 -23.5 160.5 -50.5 l-84 -233 q-140 61 -269 61 q-86 0 -135 -51 q-49 -51 -49 -150 q0 -93 56.5 -156 q56.5 -63 168.5 -89 q47 33 120 76.5 q73 43.5 122 66.5 l102 -242 q-239 -138 -365 -273 q-126 -135 -210 -337 l-279 0 Z" /><glyph glyph-name="uni0750" unicode="&#x750;" d="M541 0 q-189 0 -298.5 110 q-109.5 110 -109.5 302 q0 77 18 164.5 q18 87.5 48 148.5 l270 0 q-31 -133 -31 -268 q0 -95 53 -153 q53 -58 140 -58 l893 0 l0 768 l305 0 l0 -1014 l-1288 0 ZM703 -512 q-61 0 -99 38 q-38 38 -38 109 q0 72 36.5 110 q36.5 38 100.5 38 q63 0 99 -39 q36 -39 36 -109 q0 -70 -37 -108.5 q-37 -38.5 -98 -38.5 ZM1051 -512 q-61 0 -99 38 q-38 38 -38 109 q0 72 36.5 110 q36.5 38 100.5 38 q63 0 99 -39 q36 -39 36 -109 q0 -70 -37 -108.5 q-37 -38.5 -98 -38.5 ZM1397 -512 q-61 0 -99 38 q-38 38 -38 109 q0 72 36.5 110 q36.5 38 100.5 38 q63 0 99 -39 q36 -39 36 -109 q0 -70 -37 -108.5 q-37 -38.5 -98 -38.5 Z" /><glyph glyph-name="uni075B" unicode="&#x75b;" d="M70 -104 l284 0 q6 33 6 67 l0 1051 l306 0 l0 -1047 l-4 -71 l129 0 l0 -199 l-179 0 q-42 -105 -121.5 -209 q-79.5 -104 -218.5 -225 l-184 211 q128 108 197 223 l-215 0 l0 199 Z" /><glyph glyph-name="uni076A" unicode="&#x76a;" d="M766 1110 l313 0 l0 446 l305 0 l0 -446 l148 0 l0 -219 l-148 0 l0 -819 q0 -564 -604 -564 l-90 0 q-171 0 -297.5 72 q-126.5 72 -193 202.5 q-66.5 130.5 -66.5 299.5 q0 116 28 236.5 q28 120.5 77 216.5 l270 0 q-32 -110 -51 -230.5 q-19 -120.5 -19 -224.5 q0 -149 75 -237.5 q75 -88.5 198 -88.5 l61 0 q158 0 232.5 85.5 q74.5 85.5 74.5 240.5 l0 811 l-313 0 l0 219 Z" /><glyph glyph-name="uni25CC" unicode="&#x25cc;" d="M980 918 q0 -50 -48 -50 q-52 0 -52 50 q0 50 52 50 q48 0 48 -50 ZM832 1016 q0 -49 -48 -49 q-52 0 -52 49 q0 51 52 51 q48 0 48 -51 ZM1079 770 q0 -51 -51 -51 q-49 0 -49 51 q0 49 51 49 q49 0 49 -49 ZM1115 596 q0 -50 -48 -50 q-52 0 -52 50 q0 50 52 50 q48 0 48 -50 ZM658 1053 q0 -51 -50 -51 q-50 0 -50 51 q0 49 50 49 q50 0 50 -49 ZM485 1016 q0 -49 -51 -49 q-49 0 -49 49 q0 51 49 51 q51 0 51 -51 ZM1079 422 q0 -49 -51 -49 q-49 0 -49 49 q0 51 49 51 q51 0 51 -51 ZM337 918 q0 -50 -50 -50 q-50 0 -50 47 q0 53 50 53 q50 0 50 -50 ZM980 272 q0 -49 -48 -49 q-52 0 -52 49 q0 51 52 51 q48 0 48 -51 ZM832 174 q0 -48 -48 -48 q-52 0 -52 48 q0 52 52 52 q48 0 48 -52 ZM238 770 q0 -51 -48 -51 q-52 0 -52 51 q0 49 50 49 q50 0 50 -49 ZM202 596 q1 -50 -48 -50 q-52 0 -52 50 q0 50 52 50 q49 0 48 -50 ZM658 141 q0 -51 -50 -51 q-50 0 -50 51 q0 49 50 49 q50 0 50 -49 ZM238 422 q0 -49 -50 -49 q-50 0 -50 49 q0 51 50 51 q50 0 50 -51 ZM485 178 q0 -52 -51 -52 q-49 0 -49 48 q0 52 49 52 q51 0 51 -48 ZM337 272 q0 -49 -50 -49 q-50 0 -50 49 q0 51 50 51 q50 0 50 -51 Z" /><glyph glyph-name="uni06A9.fina" unicode="&#xfb8f;" d="M541 0 q-191 0 -299.5 110 q-108.5 110 -108.5 302 q0 162 66 313 l270 0 q-31 -164 -31 -268 q0 -98 52.5 -154.5 q52.5 -56.5 140.5 -56.5 l727 0 l0 329 q0 124 -85 190 q-85 66 -241 66 l-348 0 l0 222 q108 229 305.5 403.5 q197.5 174.5 458.5 267.5 l113 -274 q-177 -53 -333.5 -158.5 q-156.5 -105.5 -226.5 -214.5 l78 0 q584 0 584 -463 l0 -368 l266 0 q10 0 10 -8 l0 -228 q0 -10 -10 -10 l-1388 0 Z" /><glyph glyph-name="uni06BA.fina" unicode="&#xfb9f;" d="M1649 246 q10 0 10 -8 l0 -228 q0 -10 -10 -10 l-267 0 q-37 -492 -602 -492 l-90 0 q-171 0 -297.5 72 q-126.5 72 -193 202.5 q-66.5 130.5 -66.5 299.5 q0 116 28 236.5 q28 120.5 77 216.5 l270 0 q-32 -110 -51 -230.5 q-19 -120.5 -19 -224.5 q0 -149 75 -237.5 q75 -88.5 198 -88.5 l61 0 q158 0 232.5 85.5 q74.5 85.5 74.5 240.5 l0 934 l305 0 l0 -768 l265 0 Z" /><glyph glyph-name="uni06C1.init" unicode="&#xfba8;" d="M348 -457 q-99 0 -159 56.5 q-60 56.5 -60 150.5 q0 119 111 250 l-250 0 q-10 0 -10 10 l0 228 q0 8 10 8 l256 0 l0 768 l305 0 l0 -1014 l-105 0 q-94 -117 -94 -188 q0 -29 18.5 -48.5 q18.5 -19.5 53.5 -19.5 l139 0 l0 -201 l-215 0 Z" /><glyph glyph-name="uni06C1.medi" unicode="&#xfba9;" d="M1305 246 q10 0 10 -8 l0 -228 q0 -10 -10 -10 l-252 0 l0 -457 l-336 0 q-422 0 -563 457 l-164 0 q-10 0 -10 10 l0 228 q0 8 10 8 l377 0 q53 -193 101 -284.5 q48 -91.5 112.5 -132 q64.5 -40.5 167.5 -40.5 l0 457 l557 0 Z" /><glyph glyph-name="uni06BE.fina" unicode="&#xfbab;" d="M1911 246 q10 0 10 -8 l0 -228 q0 -10 -10 -10 l-1778 0 l0 246 l180 0 q-42 38 -70 109 q-28 71 -28 177 q0 120 64 225.5 q64 105.5 172.5 165.5 q108.5 60 232.5 60 q139 0 244 -58 q105 -58 162 -159.5 q57 -101.5 57 -228.5 l0 -291 l285 0 l0 379 q0 261 -129 399.5 q-129 138.5 -373 138.5 q-153 0 -270.5 -18.5 q-117.5 -18.5 -227.5 -59.5 l-70 234 q141 49 277 69.5 q136 20.5 291 20.5 q403 0 605 -194.5 q202 -194.5 202 -563.5 l0 -405 l174 0 ZM842 246 l0 278 q0 106 -37.5 154.5 q-37.5 48.5 -118.5 48.5 q-69 0 -113.5 -58 q-44.5 -58 -44.5 -149 q0 -274 248 -274 l66 0 Z" /><glyph glyph-name="uni06D2.fina" unicode="&#xfbaf;" d="M887 246 q10 0 10 -8 l0 -228 q0 -10 -10 -10 l-269 0 q-109 0 -165 -39.5 q-56 -39.5 -56 -105.5 q0 -45 33 -73 q33 -28 98 -28 l897 0 l0 -246 l-970 0 q-158 0 -260.5 95.5 q-102.5 95.5 -102.5 246.5 q0 113 68 203.5 q68 90.5 187 141.5 q119 51 259 51 l281 0 Z" /><glyph glyph-name="uniFD3E" unicode="&#xfd3e;" d="M82 561 q0 265 77.5 496 q77.5 231 223.5 405 l250 0 q-141 -193 -213 -424 q-72 -231 -72 -475 q0 -245 73.5 -473.5 q73.5 -228.5 209.5 -413.5 l-248 0 q-147 170 -224 397 q-77 227 -77 488 Z" /><glyph glyph-name="uniFD3F" unicode="&#xfd3f;" d="M612 561 q0 -263 -77.5 -490 q-77.5 -227 -223.5 -395 l-248 0 q135 184 209 412.5 q74 228.5 74 474.5 q0 244 -72 475 q-72 231 -213 424 l250 0 q147 -175 224 -406.5 q77 -231.5 77 -494.5 Z" /><glyph glyph-name="allah" unicode="&#xfdf2;" d="M731 0 q-284 0 -441 132.5 q-157 132.5 -157 369.5 q0 151 72 268 q72 117 206.5 180.5 q134.5 63.5 319.5 63.5 l57 0 l0 100 l308 0 l0 -868 l342 0 l0 1083 l305 0 l0 -1083 l397 0 l0 1083 l305 0 l0 -1329 l-1714 0 ZM2716 1556 l305 0 l0 -1556 l-305 0 l0 1556 ZM791 246 l0 522 l-54 0 q-140 0 -215.5 -69 q-75.5 -69 -75.5 -199 q0 -122 74 -188 q74 -66 213 -66 l58 0 ZM1378 1436 q-85 0 -131.5 52.5 q-46.5 52.5 -46.5 145.5 l0 129 l127 0 l0 -96 q0 -56 15 -84.5 q15 -28.5 57 -28.5 q41 0 60.5 21 q19.5 21 19.5 74 l0 166 l116 0 l0 -125 q0 -45 16 -70 q16 -25 62 -25 q42 0 58 22 q16 22 16 91 l0 137 l127 0 l0 -170 q0 -94 -48.5 -146 q-48.5 -52 -137.5 -52 q-94 0 -144 61 q-51 -102 -166 -102 ZM1479 2294 l116 0 l0 -316 l-116 0 l0 316 Z" /><glyph glyph-name="riyal" unicode="&#xfdfc;" d="M690 -492 q-171 0 -297.5 72 q-126.5 72 -193 202.5 q-66.5 130.5 -66.5 299.5 q0 116 28 236.5 q28 120.5 77 216.5 l270 0 q-32 -110 -51 -230.5 q-19 -120.5 -19 -224.5 q0 -149 75 -237.5 q75 -88.5 198 -88.5 l61 0 q158 0 232.5 85.5 q74.5 85.5 74.5 240.5 l0 1476 l305 0 l0 -1484 q0 -564 -604 -564 l-90 0 ZM1733 1556 l305 0 l0 -1310 l502 0 l0 768 l305 0 l0 -1014 l-1112 0 l0 1556 ZM3164 -492 q-105 0 -191.5 24.5 q-86.5 24.5 -185.5 90.5 l123 199 q54 -34 95.5 -47 q41.5 -13 99.5 -13 q82 0 132 62.5 q50 62.5 50 157.5 l0 1032 l305 0 l0 -1047 q0 -211 -116.5 -335 q-116.5 -124 -311.5 -124 ZM2179 -512 q-61 0 -99 38 q-38 38 -38 109 q0 72 36.5 110 q36.5 38 100.5 38 q63 0 99 -39 q36 -39 36 -109 q0 -70 -37 -108.5 q-37 -38.5 -98 -38.5 ZM2527 -512 q-61 0 -99 38 q-38 38 -38 109 q0 72 36.5 110 q36.5 38 100.5 38 q63 0 99 -39 q36 -39 36 -109 q0 -70 -37 -108.5 q-37 -38.5 -98 -38.5 Z" /><glyph glyph-name="uni0627.fina" unicode="&#xfe8e;" d="M766 246 q10 0 10 -8 l0 -228 q0 -10 -10 -10 l-561 0 l0 1556 l305 0 l0 -1310 l256 0 Z" /><glyph glyph-name="uni062D.fina" unicode="&#xfea2;" d="M1319 0 q-142 0 -228.5 42 q-86.5 42 -146.5 130 q-247 -63 -347 -113.5 q-100 -50.5 -153 -119 q-53 -68.5 -53 -164.5 q0 -86 64.5 -139.5 q64.5 -53.5 165.5 -53.5 q137 0 301 43 l34 -223 q-199 -70 -397 -70 q-210 0 -338.5 116.5 q-128.5 116.5 -128.5 309.5 q0 109 44 200.5 q44 91.5 128 165 q84 73.5 216.5 135.5 q132.5 62 359.5 124 q-29 81 -52 166 q-33 122 -98.5 180.5 q-65.5 58.5 -175.5 58.5 q-134 0 -305 -94 l-109 226 q99 52 228 83 q129 31 250 31 q407 0 475 -395 q33 -184 104 -288.5 q71 -104.5 162 -104.5 l12 0 q10 0 10 -8 l0 -228 q0 -10 -10 -10 l-12 0 Z" /><glyph glyph-name="uni062D.init" unicode="&#xfea3;" d="M-10 0 q-10 0 -10 10 l0 228 q0 8 10 8 l825 0 l0 2 q-80 72 -123 291 q-28 138 -82.5 193.5 q-54.5 55.5 -163.5 55.5 q-72 0 -135 -18 q-63 -18 -137 -59 l-92 225 q183 98 428 98 q205 0 319 -92 q114 -92 150 -303 q53 -305 143 -393 l0 -246 l-1132 0 Z" /><glyph glyph-name="uni062D.medi" unicode="&#xfea4;" d="M-10 0 q-10 0 -10 10 l0 228 q0 8 10 8 l827 0 q-81 76 -125 293 q-28 138 -82.5 193.5 q-54.5 55.5 -163.5 55.5 q-72 0 -135 -18 q-63 -18 -137 -59 l-92 225 q183 98 428 98 q205 0 319 -92 q114 -92 150 -303 q53 -305 143 -393 l133 0 q11 0 11 -8 l0 -228 q0 -10 -11 -10 l-1265 0 Z" /><glyph glyph-name="uni062F.fina" unicode="&#xfeaa;" d="M92 246 l684 0 q-42 189 -102.5 305.5 q-60.5 116.5 -154 201 q-93.5 84.5 -228.5 140.5 l115 287 q270 -108 435 -334 q165 -226 242 -600 l269 0 q10 0 10 -8 l0 -228 q0 -10 -10 -10 l-1260 0 l0 246 Z" /><glyph glyph-name="uni0631.fina" unicode="&#xfeae;" d="M989 246 q10 0 10 -8 l0 -228 q0 -10 -10 -10 l-266 0 l0 -33 q0 -211 -116.5 -335 q-116.5 -124 -311.5 -124 q-105 0 -192.5 25 q-87.5 25 -184.5 90 l123 199 q54 -34 95.5 -47 q41.5 -13 99.5 -13 q82 0 132 62.5 q50 62.5 50 157.5 l0 1032 l305 0 l0 -768 l266 0 Z" /><glyph glyph-name="uni0633.fina" unicode="&#xfeb2;" d="M2982 246 q10 0 10 -8 l0 -228 q0 -10 -10 -10 l-692 0 q-174 0 -322 154 q-115 -154 -342 -154 l-244 0 q-37 -492 -602 -492 l-90 0 q-171 0 -297.5 72 q-126.5 72 -193 202.5 q-66.5 130.5 -66.5 299.5 q0 116 28 236.5 q28 120.5 77 216.5 l270 0 q-32 -110 -51 -230.5 q-19 -120.5 -19 -224.5 q0 -149 75 -237.5 q75 -88.5 198 -88.5 l61 0 q158 0 232.5 85.5 q74.5 85.5 74.5 240.5 l0 774 l305 0 l0 -608 l175 0 q102 0 149 57 q47 57 47 180 l0 371 l305 0 l0 -395 q0 -50 -6 -92 q51 -68 101.5 -94.5 q50.5 -26.5 128.5 -26.5 l126 0 l0 768 l306 0 l0 -768 l266 0 Z" /><glyph glyph-name="uni0633.init" unicode="&#xfeb3;" d="M-10 0 q-10 0 -10 10 l0 228 q0 8 10 8 l256 0 l0 608 l305 0 l0 -608 l174 0 q102 0 149.5 56.5 q47.5 56.5 47.5 180.5 l0 371 l305 0 l0 -395 q0 -50 -6 -92 q50 -67 100 -94 q50 -27 129 -27 l127 0 l0 768 l305 0 l0 -1014 l-426 0 q-173 0 -321 154 q-115 -154 -342 -154 l-803 0 Z" /><glyph glyph-name="uni0633.medi" unicode="&#xfeb4;" d="M2148 246 q11 0 11 -8 l0 -228 q0 -10 -11 -10 l-692 0 q-173 0 -321 154 q-115 -154 -342 -154 l-803 0 q-10 0 -10 10 l0 228 q0 8 10 8 l256 0 l0 608 l305 0 l0 -608 l174 0 q102 0 149.5 56.5 q47.5 56.5 47.5 180.5 l0 371 l305 0 l0 -395 q0 -50 -6 -92 q50 -67 100 -94 q50 -27 129 -27 l127 0 l0 768 l305 0 l0 -768 l266 0 Z" /><glyph glyph-name="uni0635.fina" unicode="&#xfeba;" d="M2714 246 q10 0 10 -8 l0 -228 q0 -10 -10 -10 l-1332 0 q-15 -242 -168 -367 q-153 -125 -434 -125 l-90 0 q-171 0 -297.5 72 q-126.5 72 -193 202.5 q-66.5 130.5 -66.5 299.5 q0 116 28 236.5 q28 120.5 77 216.5 l270 0 q-32 -110 -51 -230.5 q-19 -120.5 -19 -224.5 q0 -149 75 -237.5 q75 -88.5 198 -88.5 l61 0 q158 0 232.5 85.5 q74.5 85.5 74.5 240.5 l0 934 l305 0 l0 -359 q187 379 555 379 q252 0 380 -132.5 q128 -132.5 128 -409.5 l0 -246 l267 0 ZM2142 246 l0 252 q0 149 -68.5 219.5 q-68.5 70.5 -211.5 70.5 q-277 0 -478 -382 l0 -160 l758 0 Z" /><glyph glyph-name="uni0635.init" unicode="&#xfebb;" d="M1294 246 l0 252 q0 149 -68.5 219.5 q-68.5 70.5 -211.5 70.5 q-276 0 -477 -382 l0 -160 l757 0 ZM-10 0 q-10 0 -10 10 l0 228 q0 8 10 8 l241 0 l0 768 l306 0 l0 -359 q187 379 555 379 q251 0 379 -132.5 q128 -132.5 128 -409.5 l0 -492 l-1609 0 Z" /><glyph glyph-name="uni0635.medi" unicode="&#xfebc;" d="M-10 0 q-10 0 -10 10 l0 228 q0 8 10 8 l241 0 l0 768 l306 0 l0 -359 q187 379 555 379 q251 0 379 -132.5 q128 -132.5 128 -409.5 l0 -246 l267 0 q10 0 10 -8 l0 -228 q0 -10 -10 -10 l-1876 0 ZM1294 246 l0 252 q0 149 -68.5 219.5 q-68.5 70.5 -211.5 70.5 q-276 0 -477 -382 l0 -160 l757 0 Z" /><glyph glyph-name="uni0637.fina" unicode="&#xfec2;" d="M41 246 l190 0 l0 1310 l306 0 l0 -901 q187 379 555 379 q251 0 379 -132.5 q128 -132.5 128 -409.5 l0 -246 l267 0 q10 0 10 -8 l0 -228 q0 -10 -10 -10 l-1825 0 l0 246 ZM1294 246 l0 252 q0 149 -68.5 219.5 q-68.5 70.5 -211.5 70.5 q-276 0 -477 -382 l0 -160 l757 0 Z" /><glyph glyph-name="uni0637.init" unicode="&#xfec3;" d="M1356 246 l0 252 q0 149 -68.5 219.5 q-68.5 70.5 -212.5 70.5 q-276 0 -477 -382 l0 -160 l758 0 ZM-10 0 q-10 0 -10 10 l0 228 q0 8 10 8 l303 0 l0 1310 l305 0 l0 -901 q187 379 555 379 q252 0 380 -132.5 q128 -132.5 128 -409.5 l0 -492 l-1671 0 Z" /><glyph glyph-name="uni0637.medi" unicode="&#xfec4;" d="M-10 0 q-10 0 -10 10 l0 228 q0 8 10 8 l241 0 l0 1310 l306 0 l0 -901 q187 379 555 379 q251 0 379 -132.5 q128 -132.5 128 -409.5 l0 -246 l267 0 q10 0 10 -8 l0 -228 q0 -10 -10 -10 l-1876 0 ZM1294 246 l0 252 q0 149 -68.5 219.5 q-68.5 70.5 -211.5 70.5 q-276 0 -477 -382 l0 -160 l757 0 Z" /><glyph glyph-name="uni0639.fina" unicode="&#xfeca;" d="M141 -252 q0 135 81.5 259.5 q81.5 124.5 252.5 248.5 q-131 123 -223.5 292.5 q-92.5 169.5 -118.5 336.5 q119 99 276 157 q157 58 300 58 q291 0 514 -123 q0 -212 -86 -392 q-86 -180 -250 -315 q82 -24 186 -24 l236 0 q10 0 10 -8 l0 -228 q0 -10 -10 -10 l-260 0 q-82 0 -184 31 q-102 31 -193 84 q-123 -92 -177.5 -175.5 q-54.5 -83.5 -54.5 -175.5 q0 -85 58.5 -133.5 q58.5 -48.5 171.5 -48.5 q137 0 301 43 l35 -223 q-111 -38 -205 -54 q-94 -16 -193 -16 q-210 0 -338.5 114.5 q-128.5 114.5 -128.5 301.5 ZM438 776 q65 -221 242 -385 q107 77 174.5 189.5 q67.5 112.5 77.5 236.5 q-52 21 -105.5 29 q-53.5 8 -126.5 8 q-66 0 -143 -24 q-77 -24 -119 -54 Z" /><glyph glyph-name="uni0639.init" unicode="&#xfecb;" d="M-10 0 q-10 0 -10 10 l0 228 q0 8 10 8 l315 0 q-76 34 -121 115 q-45 81 -45 180 q0 230 151.5 361.5 q151.5 131.5 414.5 131.5 q90 0 188.5 -20 q98.5 -20 155.5 -47 l-86 -240 q-79 34 -141 47.5 q-62 13.5 -126 13.5 q-126 0 -195 -67 q-69 -67 -69 -193 q0 -124 71 -203 q71 -79 191 -79 l375 0 l0 -246 l-1079 0 Z" /><glyph glyph-name="uni0639.medi" unicode="&#xfecc;" d="M1247 246 q10 0 10 -8 l0 -228 q0 -10 -10 -10 l-260 0 q-96 0 -200 32.5 q-104 32.5 -179 82.5 q-188 -115 -381 -115 l-237 0 q-10 0 -10 10 l0 228 q0 8 10 8 l205 0 q46 0 101.5 11 q55.5 11 90.5 28 q-61 47 -129 148 q-68 101 -118 221 q-50 120 -68 231 q120 100 275.5 157.5 q155.5 57.5 299.5 57.5 q293 0 514 -123 q0 -222 -90 -407 q-90 -185 -244 -283 q76 -41 185 -41 l235 0 ZM612 412 q240 143 258 405 q-89 37 -231 37 q-66 0 -142 -23 q-76 -23 -120 -55 q30 -113 92.5 -212 q62.5 -99 142.5 -152 Z" /><glyph glyph-name="uni0643.fina" unicode="&#xfeda;" d="M541 0 q-189 0 -298.5 110 q-109.5 110 -109.5 302 q0 77 18 164.5 q18 87.5 48 148.5 l270 0 q-31 -133 -31 -268 q0 -95 53 -153 q53 -58 140 -58 l665 0 l0 1310 l306 0 l0 -1310 l266 0 q10 0 10 -8 l0 -228 q0 -10 -10 -10 l-1327 0 ZM662 739 l116 19 q-40 20 -66 55.5 q-26 35.5 -26 83.5 q0 86 60.5 136 q60.5 50 164.5 50 q98 0 168 -36 l-41 -105 q-54 27 -110 27 q-45 0 -72 -27.5 q-27 -27.5 -27 -71.5 q0 -61 62 -92 l36 6 q103 16 167 21 l0 -119 q-133 -8 -432 -51 l0 104 Z" /><glyph glyph-name="uni0643.init" unicode="&#xfedb;" d="M-10 0 q-10 0 -10 10 l0 228 q0 8 10 8 l801 0 l0 329 q0 124 -85 190 q-85 66 -241 66 l-348 0 l0 222 q108 229 305.5 403.5 q197.5 174.5 458.5 267.5 l112 -274 q-178 -54 -333 -159 q-155 -105 -226 -214 l78 0 q584 0 584 -463 l0 -614 l-1106 0 Z" /><glyph glyph-name="uni0643.medi" unicode="&#xfedc;" d="M-10 0 q-10 0 -10 10 l0 228 q0 8 10 8 l801 0 l0 329 q0 124 -85 190 q-85 66 -241 66 l-348 0 l0 222 q108 229 305.5 403.5 q197.5 174.5 458.5 267.5 l112 -274 q-178 -54 -333 -159 q-155 -105 -226 -214 l78 0 q584 0 584 -463 l0 -368 l266 0 q10 0 10 -8 l0 -228 q0 -10 -10 -10 l-1372 0 Z" /><glyph glyph-name="uni0644.fina" unicode="&#xfede;" d="M690 -492 q-171 0 -297.5 72 q-126.5 72 -193 202.5 q-66.5 130.5 -66.5 299.5 q0 116 28 236.5 q28 120.5 77 216.5 l270 0 q-32 -110 -51 -230.5 q-19 -120.5 -19 -224.5 q0 -149 75 -237.5 q75 -88.5 198 -88.5 l61 0 q158 0 232.5 85.5 q74.5 85.5 74.5 240.5 l0 1476 l305 0 l0 -1310 l267 0 q10 0 10 -8 l0 -228 q0 -10 -10 -10 l-269 0 q-37 -492 -602 -492 l-90 0 Z" /><glyph glyph-name="uni0644.init" unicode="&#xfedf;" d="M-10 0 q-10 0 -10 10 l0 228 q0 8 10 8 l256 0 l0 1310 l305 0 l0 -1556 l-561 0 Z" /><glyph glyph-name="uni0644.medi" unicode="&#xfee0;" d="M-10 0 q-10 0 -10 10 l0 228 q0 8 10 8 l256 0 l0 1310 l305 0 l0 -1310 l266 0 q10 0 10 -8 l0 -228 q0 -10 -10 -10 l-827 0 Z" /><glyph glyph-name="uni0645.fina" unicode="&#xfee2;" d="M1520 0 q-109 0 -187.5 31 q-78.5 31 -150.5 106 q-79 -68 -180 -102.5 q-101 -34.5 -209 -34.5 l-189 0 q-92 0 -129 -36.5 q-37 -36.5 -37 -121.5 l0 -497 l-305 0 l0 598 q0 134 70 213 q70 79 198 88 q-55 130 -55 284 q0 90 31 195 q31 105 74 174 q92 54 204 85.5 q112 31.5 201 31.5 q140 0 254 -59.5 q114 -59.5 178 -170 q64 -110.5 64 -254.5 q0 -108 -39 -208 q37 -42 85 -59 q48 -17 122 -17 l10 0 q10 0 10 -8 l0 -228 q0 -10 -10 -10 l-10 0 ZM629 485 q0 -104 47 -239 l78 0 q123 0 206.5 83 q83.5 83 83.5 201 q0 112 -53.5 175 q-53.5 63 -140.5 63 q-92 0 -191 -57 q-30 -108 -30 -226 Z" /><glyph glyph-name="uni0645.init" unicode="&#xfee3;" d="M221 246 q-55 126 -55 282 q0 89 30 192 q30 103 74 177 q99 57 210.5 87 q111.5 30 195.5 30 q140 0 254.5 -60 q114.5 -60 177.5 -169.5 q63 -109.5 63 -254.5 q0 -156 -72.5 -276 q-72.5 -120 -201.5 -187 q-129 -67 -285 -67 l-622 0 q-10 0 -10 10 l0 228 q0 8 10 8 l231 0 ZM449 485 q0 -104 47 -239 l77 0 q124 0 207.5 83 q83.5 83 83.5 201 q0 109 -53 173.5 q-53 64.5 -141 64.5 q-92 0 -191 -57 q-30 -108 -30 -226 Z" /><glyph glyph-name="uni0645.medi" unicode="&#xfee4;" d="M221 246 q-55 126 -55 282 q0 89 30 192 q30 103 74 177 q99 57 210.5 87 q111.5 30 195.5 30 q140 0 254.5 -60 q114.5 -60 177.5 -169.5 q63 -109.5 63 -254.5 q0 -112 -38 -211 q37 -40 84.5 -56.5 q47.5 -16.5 119.5 -16.5 l11 0 q10 0 10 -8 l0 -228 q0 -10 -10 -10 l-11 0 q-108 0 -187.5 30.5 q-79.5 30.5 -150.5 106.5 q-78 -68 -179 -102.5 q-101 -34.5 -208 -34.5 l-622 0 q-10 0 -10 10 l0 228 q0 8 10 8 l231 0 ZM449 485 q0 -104 47 -239 l77 0 q124 0 207.5 83 q83.5 83 83.5 201 q0 109 -53 173.5 q-53 64.5 -141 64.5 q-92 0 -191 -57 q-30 -108 -30 -226 Z" /><glyph glyph-name="uni0647.fina" unicode="&#xfeea;" d="M1352 246 q10 0 10 -8 l0 -228 q0 -10 -10 -10 l-621 0 q-284 0 -441 132.5 q-157 132.5 -157 369.5 q0 151 72 268 q72 117 206.5 180.5 q134.5 63.5 319.5 63.5 l57 0 l0 100 l308 0 l0 -868 l256 0 ZM791 246 l0 522 l-54 0 q-140 0 -215.5 -69 q-75.5 -69 -75.5 -199 q0 -122 74 -188 q74 -66 213 -66 l58 0 Z" /><glyph glyph-name="uni0647.init" unicode="&#xfeeb;" d="M770 246 l0 278 q0 106 -37.5 154.5 q-37.5 48.5 -118.5 48.5 q-70 0 -113.5 -58.5 q-43.5 -58.5 -43.5 -148.5 q0 -274 248 -274 l65 0 ZM-10 0 q-10 0 -10 10 l0 228 q0 8 10 8 l252 0 q-42 38 -70.5 109 q-28.5 71 -28.5 177 q0 120 64 225.5 q64 105.5 172.5 165.5 q108.5 60 232.5 60 q139 0 244.5 -57.5 q105.5 -57.5 162 -160.5 q56.5 -103 56.5 -228 l0 -291 l285 0 l0 379 q0 260 -128 399 q-128 139 -374 139 q-153 0 -269.5 -18.5 q-116.5 -18.5 -228.5 -59.5 l-69 234 q141 49 277 69.5 q136 20.5 290 20.5 q404 0 605.5 -194.5 q201.5 -194.5 201.5 -563.5 l0 -651 l-1675 0 Z" /><glyph glyph-name="uni0647.medi" unicode="&#xfeec;" d="M1921 246 q10 0 10 -8 l0 -228 q0 -10 -10 -10 l-1931 0 q-10 0 -10 10 l0 228 q0 8 10 8 l252 0 q-42 38 -70.5 109 q-28.5 71 -28.5 177 q0 120 64 225.5 q64 105.5 172.5 165.5 q108.5 60 232.5 60 q139 0 244.5 -57.5 q105.5 -57.5 162 -160.5 q56.5 -103 56.5 -228 l0 -291 l285 0 l0 379 q0 260 -128 399 q-128 139 -374 139 q-153 0 -269.5 -18.5 q-116.5 -18.5 -228.5 -59.5 l-69 234 q141 49 277 69.5 q136 20.5 290 20.5 q404 0 605.5 -194.5 q201.5 -194.5 201.5 -563.5 l0 -405 l256 0 ZM770 246 l0 278 q0 106 -37.5 154.5 q-37.5 48.5 -118.5 48.5 q-70 0 -113.5 -58.5 q-43.5 -58.5 -43.5 -148.5 q0 -274 248 -274 l65 0 Z" /><glyph glyph-name="uni0648.fina" unicode="&#xfeee;" d="M1366 246 q10 0 10 -8 l0 -228 q0 -10 -10 -10 l-256 0 q0 -234 -141.5 -363 q-141.5 -129 -399.5 -129 q-139 0 -240.5 21.5 q-101.5 21.5 -195.5 77.5 l119 223 q83 -43 157 -60.5 q74 -17.5 154 -17.5 q116 0 179 63.5 q63 63.5 63 174.5 l0 10 l-203 0 q-219 0 -337 124 q-118 124 -118 353 q0 162 81 284.5 q81 122.5 229 187.5 q148 65 342 65 l311 0 l0 -768 l256 0 ZM805 246 l0 522 l-66 0 q-131 0 -204.5 -74 q-73.5 -74 -73.5 -209 q0 -123 50 -181 q50 -58 153 -58 l141 0 Z" /><glyph glyph-name="uni0649.fina" unicode="&#xfef0;" d="M2058 0 q-110 0 -187.5 31 q-77.5 31 -160.5 119 q-22 23 -104 138 q-97 135 -152 180.5 q-55 45.5 -104 45.5 q-33 0 -83 -34 q-50 -34 -84 -79 q-34 -45 -34 -77 q0 -42 35.5 -73 q35.5 -31 112.5 -57 q131 -44 193.5 -84 q62.5 -40 94 -97 q31.5 -57 31.5 -134 q0 -181 -146.5 -276 q-146.5 -95 -441.5 -95 l-483 0 q-117 0 -212 59.5 q-95 59.5 -147.5 166.5 q-52.5 107 -52.5 241 q0 200 66 396 l272 0 q-26 -85 -34.5 -161 q-8.5 -76 -8.5 -190 q0 -70 34.5 -132.5 q34.5 -62.5 91.5 -98 q57 -35.5 118 -35.5 l354 0 q166 0 226.5 25 q60.5 25 60.5 84 q0 35 -33.5 59.5 q-33.5 24.5 -107.5 44.5 q-172 44 -239 117 q-67 73 -67 197 q0 107 77.5 224.5 q77.5 117.5 200.5 198 q123 80.5 236 80.5 q66 0 122 -25.5 q56 -25.5 108.5 -77 q52.5 -51.5 171.5 -221.5 q94 -135 151.5 -174.5 q57.5 -39.5 124.5 -39.5 l10 0 q11 0 11 -8 l0 -228 q0 -10 -11 -10 l-10 0 Z" /><glyph glyph-name="uni06440627.isol" unicode="&#xfefb;" d="M92 246 l371 0 l-264 1034 l319 0 l244 -1034 l14 0 q102 0 149.5 56.5 q47.5 56.5 47.5 180.5 l0 1073 l305 0 l0 -1097 q0 -209 -115.5 -334 q-115.5 -125 -318.5 -125 l-752 0 l0 246 Z" /><glyph glyph-name="uni06440627.fina" unicode="&#xfefc;" d="M1544 246 q10 0 10 -8 l0 -228 q0 -10 -10 -10 l-1452 0 l0 246 l371 0 l-264 1034 l319 0 l244 -1034 l211 0 l0 1310 l305 0 l0 -1310 l266 0 Z" /></font>
</defs>
</svg>
