<?xml version="1.0" standalone="no"?><!DOCTYPE svg PUBLIC "-//W3C//DTD SVG 1.1//EN" "http://www.w3.org/Graphics/SVG/1.1/DTD/svg11.dtd" ><svg xmlns="http://www.w3.org/2000/svg"><metadata></metadata><defs><font id="2.000;UKWN;TheGroup12-Regular" horiz-adv-x="3020"><font-face font-family="TheGroup12" font-weight="400" font-stretch="normal" units-per-em="2048" panose-1="0 0 0 0 0 0 0 0 0 0" ascent="2548" descent="-1781" x-height="0" bbox="-893 -1741 2857 2548" underline-thickness="102" underline-position="-306" unicode-range="U+0020-fdf2" /><missing-glyph horiz-adv-x="2099" d="M391 -1741 l0 4199 l1331 0 l0 -4199 l-1331 0 ZM700 -154 l699 0 l0 476 l-420 0 l0 -236 l141 0 l0 96 l140 0 l0 -196 l-420 0 l0 336 l-140 0 l0 -476 ZM700 -406 l0 -475 l699 0 l0 475 l-699 0 ZM700 414 l699 0 l0 420 l-139 0 l0 -279 l-560 0 l0 -141 ZM700 653 l420 0 l0 293 l279 0 l0 139 l-699 0 l0 -139 l279 0 l0 -155 l-279 0 l0 -138 ZM700 -977 l0 -139 l295 0 l-295 -197 l0 -139 l699 0 l0 139 l-428 0 l293 197 l135 0 l0 139 l-699 0 ZM700 1198 l699 0 l0 143 l-279 0 l0 293 l-420 0 l0 -436 ZM700 1745 l699 0 l0 137 l-279 0 l0 156 l279 0 l0 139 l-694 0 l0 -139 l274 0 l0 -156 l-279 0 l0 -137 ZM840 -545 l420 0 l0 -196 l-420 0 l0 196 ZM840 1341 l0 152 l139 0 l0 -152 l-139 0 Z" /><glyph glyph-name="space" unicode=" " d="" /><glyph glyph-name="exclam" unicode="!" d="M197 162 l155 155 l158 -157 l-158 -156 l-155 158 ZM231 1434 l224 0 l-56 -973 l-112 0 l-56 973 Z" /><glyph glyph-name="quotedbl" unicode="&quot;" d="M168 1434 l176 0 l-35 -377 l-106 0 l-35 377 ZM428 1434 l176 0 l-35 -377 l-106 0 l-35 377 Z" /><glyph glyph-name="numbersign" unicode="#" d="M61 369 l21 125 l260 0 l72 454 l-271 0 l21 125 l268 0 l57 361 l144 0 l-58 -361 l390 0 l57 361 l143 0 l-57 -361 l270 0 l-20 -125 l-268 0 l-72 -454 l278 0 l-20 -125 l-279 0 l-57 -369 l-143 0 l57 369 l-389 0 l-57 -369 l-144 0 l58 369 l-261 0 ZM485 494 l389 0 l72 454 l-389 0 l-72 -454 Z" /><glyph glyph-name="dollar" unicode="$" d="M80 428 l213 0 q0 -112 63 -178.5 q63 -66.5 172 -87.5 l0 504 q-115 43 -176 77 q-227 121 -227 334 q0 153 110.5 260 q110.5 107 292.5 133 l0 199 l187 0 l0 -196 q109 -12 194 -58 q114 -61 175 -161 q61 -100 61 -220 l-213 0 q0 64 -20.5 115.5 q-20.5 51.5 -70.5 92 q-50 40.5 -126 54.5 l0 -485 q224 -69 329 -171.5 q105 -102.5 105 -266.5 q0 -161 -116.5 -266.5 q-116.5 -105.5 -317.5 -122.5 l0 -220 l-187 0 l0 222 q-199 27 -323.5 143.5 q-124.5 116.5 -124.5 298.5 ZM338 1079 q0 -131 190 -207 l0 422 q-93 -20 -141.5 -76 q-48.5 -56 -48.5 -139 ZM715 156 q107 15 163 71 q56 56 56 144 q0 86 -48.5 138.5 q-48.5 52.5 -170.5 96.5 l0 -450 Z" /><glyph glyph-name="percent" unicode="%" d="M72 0 l917 1434 l225 0 l-917 -1434 l-225 0 ZM72 1180 q0 129 74 207.5 q74 78.5 198 78.5 q124 0 199 -78.5 q75 -78.5 75 -207.5 q0 -129 -75 -208 q-75 -79 -199 -79 q-124 0 -198 78.5 q-74 78.5 -74 208.5 ZM248 1180 q0 -144 96 -144 q98 0 98 144 q0 145 -98 145 q-96 0 -96 -145 ZM743 46 q-75 79 -75 208 q0 129 75 208 q75 79 199 79 q124 0 198 -78.5 q74 -78.5 74 -208.5 q0 -130 -74 -208.5 q-74 -78.5 -198 -78.5 q-124 0 -199 79 ZM844 254 q0 -145 98 -145 q96 0 96 145 q0 143 -96 143 q-98 0 -98 -143 Z" /><glyph glyph-name="ampersand" unicode="&amp;" d="M86 358 l0 13 q0 76 22.5 140 q22.5 64 65 113.5 q42.5 49.5 89.5 85.5 q47 36 110 72 q-82 103 -115 176 q-33 73 -33 160 l0 8 q0 155 105 247.5 q105 92.5 280 92.5 q171 0 268 -87 q97 -87 97 -236 l0 -19 q0 -71 -23.5 -129.5 q-23.5 -58.5 -70.5 -105.5 q-47 -47 -93.5 -79 q-46.5 -32 -115.5 -71 l293 -338 q38 110 47 265 l198 0 q-10 -263 -106 -426 l207 -240 l-260 0 l-78 90 q-151 -110 -389 -110 q-239 0 -368.5 103 q-129.5 103 -129.5 275 ZM291 356 q0 -96 78.5 -153.5 q78.5 -57.5 222.5 -57.5 q162 0 260 82 l-197 228 q-42 49 -163 186 q-97 -58 -149 -121 q-52 -63 -52 -151 l0 -13 ZM430 1118 q0 -63 30 -117 q30 -54 91 -122 q107 56 163 109 q56 53 56 128 l0 21 q0 73 -40.5 118 q-40.5 45 -121.5 45 q-85 0 -131.5 -49.5 q-46.5 -49.5 -46.5 -126.5 l0 -6 Z" /><glyph glyph-name="quotesingle" unicode="&#39;" d="M145 1434 l177 0 l-35 -377 l-107 0 l-35 377 Z" /><glyph glyph-name="parenleft" unicode="(" d="M158 717 q0 512 225 860 l109 0 q-158 -369 -158 -860 q0 -488 158 -860 l-109 0 q-225 351 -225 860 Z" /><glyph glyph-name="parenright" unicode=")" d="M123 -143 q158 372 158 860 q0 491 -158 860 l108 0 q226 -349 226 -860 q0 -508 -226 -860 l-108 0 Z" /><glyph glyph-name="asterisk" unicode="*" d="M127 834 l338 159 l-338 162 l68 119 l309 -215 l-31 375 l137 0 l-30 -373 l309 213 l67 -119 l-338 -160 l338 -161 l-67 -119 l-309 215 l30 -375 l-137 0 l31 373 l-309 -213 l-68 119 ZM473 995 l35 -59 l67 0 l35 57 l-35 60 l-67 0 l-35 -58 Z" /><glyph glyph-name="plus" unicode="+" d="M55 455 l0 184 l303 0 l0 303 l185 0 l0 -303 l303 0 l0 -184 l-303 0 l0 -303 l-185 0 l0 303 l-303 0 Z" /><glyph glyph-name="comma" unicode="," d="M186 -156 l0 422 l201 0 l-84 -422 l-117 0 Z" /><glyph glyph-name="hyphen" unicode="-" d="M102 459 l41 186 l652 0 l-41 -186 l-652 0 Z" /><glyph glyph-name="period" unicode="." d="M178 160 l158 157 l156 -155 l-156 -158 l-158 156 Z" /><glyph glyph-name="slash" unicode="/" d="M164 -289 l444 1864 l146 2 l-445 -1864 l-145 -2 Z" /><glyph glyph-name="zero" unicode="0" d="M150 715 q0 751 464 751 q465 0 465 -751 q0 -752 -465 -752 q-464 0 -464 752 ZM614 1278 q-239 0 -239 -563 q0 -563 239 -563 q122 0 181 146 q59 146 59 417 q0 271 -59 417 q-59 146 -181 146 Z" /><glyph glyph-name="one" unicode="1" d="M270 1053 l0 204 l533 209 l10 0 l0 -1466 l-205 0 l0 1184 l-338 -131 Z" /><glyph glyph-name="two" unicode="2" d="M123 0 l0 201 l459 415 q120 108 188 222.5 q68 114.5 68 212.5 q0 106 -61 162.5 q-61 56.5 -167 56.5 q-106 0 -169 -69 q-63 -69 -72 -193 l-201 0 q9 209 123 333.5 q114 124.5 330 124.5 q204 0 313.5 -112 q109.5 -112 109.5 -307 q0 -259 -315 -547 l-336 -307 l711 0 l0 -193 l-981 0 Z" /><glyph glyph-name="three" unicode="3" d="M121 408 l203 0 q9 -114 77.5 -179 q68.5 -65 178.5 -65 q121 0 190.5 60.5 q69.5 60.5 69.5 166.5 q0 118 -69 186 q-69 68 -189 68 l-99 0 l0 174 l99 0 q215 0 215 234 q0 101 -58.5 159 q-58.5 58 -158.5 58 q-97 0 -156.5 -63 q-59.5 -63 -71.5 -189 l-200 0 q13 208 128.5 328 q115.5 120 299.5 120 q196 0 310 -109.5 q114 -109.5 114 -299.5 q0 -100 -42 -182 q-42 -82 -116 -132 q96 -47 148.5 -137.5 q52.5 -90.5 52.5 -208.5 q0 -200 -125 -315 q-125 -115 -342 -115 q-209 0 -331 118 q-122 118 -128 323 Z" /><glyph glyph-name="four" unicode="4" d="M90 313 l0 176 l617 945 l258 0 l0 -928 l217 0 l0 -193 l-217 0 l0 -313 l-205 0 l0 313 l-670 0 ZM311 506 l449 0 l0 686 l-449 -686 Z" /><glyph glyph-name="five" unicode="5" d="M164 403 l203 0 q13 -113 83.5 -180 q70.5 -67 172.5 -67 q131 0 197.5 78 q66.5 78 66.5 219 q0 125 -64 202.5 q-64 77.5 -188 77.5 q-76 0 -133.5 -27 q-57.5 -27 -85.5 -69 l-201 14 l72 783 l743 0 l0 -193 l-571 0 l-39 -403 q67 40 127.5 62 q60.5 22 138.5 22 q190 0 306 -129.5 q116 -129.5 116 -333.5 q0 -227 -130.5 -359.5 q-130.5 -132.5 -352.5 -132.5 q-216 0 -332.5 117 q-116.5 117 -128.5 319 Z" /><glyph glyph-name="six" unicode="6" d="M131 694 q0 174 31 313.5 q31 139.5 93.5 243 q62.5 103.5 164 159.5 q101.5 56 235.5 56 q195 0 305.5 -108.5 q110.5 -108.5 131.5 -288.5 l-207 0 q-21 103 -84 156 q-63 53 -150 53 q-92 0 -158 -65 q-66 -65 -98.5 -176 q-32.5 -111 -36.5 -261 q108 139 324 139 q201 0 316.5 -119.5 q115.5 -119.5 115.5 -326.5 q0 -233 -132 -367.5 q-132 -134.5 -359 -134.5 q-249 0 -370.5 175 q-121.5 175 -121.5 552 ZM375 457 q0 -140 69.5 -220.5 q69.5 -80.5 190.5 -80.5 q123 0 193.5 80.5 q70.5 80.5 70.5 220.5 q0 126 -70.5 198 q-70.5 72 -193.5 72 q-121 0 -190.5 -72 q-69.5 -72 -69.5 -198 Z" /><glyph glyph-name="seven" unicode="7" d="M160 1243 l0 191 l909 0 l0 -189 l-506 -1245 l-221 0 l506 1243 l-688 0 Z" /><glyph glyph-name="eight" unicode="8" d="M131 397 q0 119 56 210 q56 91 157 141 q-160 120 -160 309 q0 183 116 296 q116 113 314 113 q198 0 314 -113 q116 -113 116 -296 q0 -190 -159 -309 q101 -50 157 -141 q56 -91 56 -210 q0 -192 -130.5 -311 q-130.5 -119 -353.5 -119 q-223 0 -353 119 q-130 119 -130 311 ZM346 410 q0 -108 73.5 -173 q73.5 -65 194.5 -65 q121 0 195 65 q74 65 74 173 q0 112 -74.5 182 q-74.5 70 -194.5 70 q-120 0 -194 -69.5 q-74 -69.5 -74 -182.5 ZM393 1032 q0 -98 60 -155.5 q60 -57.5 161 -57.5 q102 0 162 57.5 q60 57.5 60 155.5 q0 106 -60 167 q-60 61 -162 61 q-102 0 -161.5 -60.5 q-59.5 -60.5 -59.5 -167.5 Z" /><glyph glyph-name="nine" unicode="9" d="M115 961 q0 233 131.5 367 q131.5 134 359.5 134 q249 0 370.5 -175 q121.5 -175 121.5 -552 q0 -234 -54 -404 q-54 -170 -173.5 -269 q-119.5 -99 -297.5 -99 q-195 0 -305 108.5 q-110 108.5 -131 288.5 l207 0 q21 -103 84 -155.5 q63 -52.5 150 -52.5 q92 0 157.5 65 q65.5 65 98 175.5 q32.5 110.5 36.5 260.5 q-108 -139 -323 -139 q-201 0 -316.5 120 q-115.5 120 -115.5 327 ZM330 973 q0 -126 70.5 -198.5 q70.5 -72.5 193.5 -72.5 q121 0 190.5 72.5 q69.5 72.5 69.5 198.5 q0 140 -69.5 220.5 q-69.5 80.5 -190.5 80.5 q-123 0 -193.5 -80.5 q-70.5 -80.5 -70.5 -220.5 Z" /><glyph glyph-name="colon" unicode=":" d="M178 160 l158 157 l156 -155 l-156 -158 l-158 156 ZM178 877 l158 157 l156 -155 l-156 -158 l-158 156 Z" /><glyph glyph-name="semicolon" unicode=";" d="M178 877 l158 157 l156 -155 l-156 -158 l-158 156 ZM227 -156 l0 422 l201 0 l-84 -422 l-117 0 Z" /><glyph glyph-name="less" unicode="&lt;" d="M41 397 l0 197 l612 262 l0 -184 l-442 -176 l442 -177 l0 -184 l-612 262 Z" /><glyph glyph-name="equal" unicode="=" d="M55 274 l0 185 l791 0 l0 -185 l-791 0 ZM55 633 l0 184 l791 0 l0 -184 l-791 0 Z" /><glyph glyph-name="greater" unicode="&gt;" d="M41 135 l0 184 l442 177 l-442 176 l0 184 l612 -262 l0 -197 l-612 -262 Z" /><glyph glyph-name="question" unicode="?" d="M182 162 l156 155 l158 -157 l-158 -156 l-156 158 ZM184 1278 l0 188 q120 0 224 -28.5 q104 -28.5 178.5 -77.5 q74.5 -49 128.5 -113 q54 -64 80 -136 q26 -72 26 -146 q0 -72 -53 -133 q-53 -61 -136 -97.5 q-83 -36.5 -181 -48.5 l0 -225 l-203 0 l0 346 q288 46 436 174 q-55 143 -191.5 220 q-136.5 77 -308.5 77 Z" /><glyph glyph-name="at" unicode="@" d="M72 469 q0 242 98.5 426 q98.5 184 280 284.5 q181.5 100.5 419.5 100.5 q331 0 531.5 -194 q200.5 -194 200.5 -515 q0 -244 -90.5 -391 q-90.5 -147 -239.5 -147 q-85 0 -145.5 33 q-60.5 33 -88.5 92 q-89 -125 -258 -125 q-154 0 -249 121.5 q-95 121.5 -95 316.5 l0 18 q0 199 92.5 320 q92.5 121 251.5 121 q151 0 240 -103 l8 86 l170 0 l0 -626 q0 -42 24 -69.5 q24 -27.5 60 -27.5 q66 0 100.5 96.5 q34.5 96.5 34.5 262.5 q0 260 -150.5 416.5 q-150.5 156.5 -400.5 156.5 q-275 0 -442.5 -179.5 q-167.5 -179.5 -167.5 -475.5 q0 -292 178.5 -462.5 q178.5 -170.5 483.5 -170.5 q202 0 401 62 l0 -154 q-182 -66 -418 -66 q-251 0 -438.5 96.5 q-187.5 96.5 -289 276.5 q-101.5 180 -101.5 420 ZM621 471 q0 -125 52 -203 q52 -78 148 -78 q136 0 193 134 l0 321 q-58 129 -193 129 q-98 0 -149 -79 q-51 -79 -51 -206 l0 -18 Z" /><glyph glyph-name="A" unicode="A" d="M25 0 l553 1456 l190 0 l555 -1456 l-223 0 l-131 367 l-592 0 l-131 -367 l-221 0 ZM438 541 l469 0 l-233 657 l-236 -657 Z" /><glyph glyph-name="B" unicode="B" d="M162 0 l0 1456 l481 0 q490 0 490 -389 q0 -100 -56.5 -180 q-56.5 -80 -158.5 -123 q120 -31 185.5 -120.5 q65.5 -89.5 65.5 -221.5 q0 -204 -130 -313 q-130 -109 -357 -109 l-520 0 ZM375 172 l307 0 q129 0 202.5 67 q73.5 67 73.5 181 q0 116 -65 185 q-65 69 -203 69 l-315 0 l0 -502 ZM375 838 l274 0 q125 0 198 60 q73 60 73 165 q0 116 -67 167.5 q-67 51.5 -210 51.5 l-268 0 l0 -444 Z" /><glyph glyph-name="C" unicode="C" d="M113 659 l0 138 q0 310 158 495 q158 185 431 185 q242 0 381.5 -131 q139.5 -131 163.5 -363 l-213 0 q-21 158 -98 239 q-77 81 -234 81 q-180 0 -277 -132.5 q-97 -132.5 -97 -371.5 l0 -140 q0 -231 91 -368 q91 -137 269 -137 q168 0 245.5 78 q77.5 78 100.5 235 l211 0 q-12 -136 -78 -250 q-142 -237 -479 -237 q-261 0 -418 185 q-157 185 -157 494 Z" /><glyph glyph-name="D" unicode="D" d="M162 0 l0 1456 l420 0 q292 0 468.5 -186 q176.5 -186 176.5 -502 l0 -82 q0 -317 -178 -501.5 q-178 -184.5 -484 -184.5 l-403 0 ZM375 172 l190 0 q218 0 333.5 133 q115.5 133 115.5 381 l0 84 q0 247 -113 379.5 q-113 132.5 -319 132.5 l-207 0 l0 -1110 Z" /><glyph glyph-name="E" unicode="E" d="M162 0 l0 1456 l925 0 l0 -174 l-712 0 l0 -446 l620 0 l0 -170 l-620 0 l0 -494 l723 0 l0 -172 l-936 0 Z" /><glyph glyph-name="F" unicode="F" d="M162 0 l0 1456 l911 0 l0 -174 l-698 0 l0 -475 l604 0 l0 -172 l-604 0 l0 -635 l-213 0 Z" /><glyph glyph-name="G" unicode="G" d="M117 674 l0 108 q0 330 156 512.5 q156 182.5 434 182.5 q108 0 196.5 -25 q88.5 -25 148 -67.5 q59.5 -42.5 102.5 -101.5 q43 -59 65.5 -122.5 q22.5 -63.5 31.5 -136.5 l-211 0 q-45 279 -331 279 q-187 0 -282 -132 q-95 -132 -95 -387 l0 -110 q0 -246 108.5 -384 q108.5 -138 292.5 -138 q215 0 307 100 l0 313 l-325 0 l0 166 l538 0 l0 -541 q-25 -38 -90 -90 q-149 -120 -434 -120 q-182 0 -317 81 q-141 83 -218 239.5 q-77 156.5 -77 373.5 Z" /><glyph glyph-name="H" unicode="H" d="M162 0 l0 1456 l213 0 l0 -620 l704 0 l0 620 l213 0 l0 -1456 l-213 0 l0 664 l-704 0 l0 -664 l-213 0 Z" /><glyph glyph-name="I" unicode="I" d="M176 0 l0 1456 l213 0 l0 -1456 l-213 0 Z" /><glyph glyph-name="J" unicode="J" d="M51 408 l213 0 q0 -130 67 -193 q67 -63 185 -63 q114 0 183 73.5 q69 73.5 69 202.5 l0 1028 l213 0 l0 -1028 q0 -209 -128 -328.5 q-128 -119.5 -337 -119.5 q-218 0 -341.5 109.5 q-123.5 109.5 -123.5 318.5 Z" /><glyph glyph-name="K" unicode="K" d="M162 0 l0 1456 l213 0 l0 -708 l618 708 l260 0 l-561 -643 l598 -813 l-254 0 l-487 659 l-174 -182 l0 -477 l-213 0 Z" /><glyph glyph-name="L" unicode="L" d="M162 0 l0 1456 l213 0 l0 -1284 l680 0 l0 -172 l-893 0 Z" /><glyph glyph-name="M" unicode="M" d="M162 0 l0 1456 l274 0 l459 -1163 l455 1163 l276 0 l0 -1456 l-213 0 l0 539 l21 624 l-461 -1163 l-158 0 l-461 1163 l21 -624 l0 -539 l-213 0 Z" /><glyph glyph-name="N" unicode="N" d="M162 0 l0 1456 l213 0 l706 -1098 l0 1098 l213 0 l0 -1456 l-215 0 l-704 1094 l0 -1094 l-213 0 Z" /><glyph glyph-name="O" unicode="O" d="M113 684 l0 88 q0 322 162.5 513.5 q162.5 191.5 429.5 191.5 q268 0 429.5 -188 q161.5 -188 161.5 -517 l0 -88 q0 -327 -159.5 -515.5 q-159.5 -188.5 -429.5 -188.5 q-266 0 -430 191.5 q-164 191.5 -164 512.5 ZM326 684 q0 -253 103.5 -389.5 q103.5 -136.5 277.5 -136.5 q181 0 278.5 135.5 q97.5 135.5 97.5 390.5 l0 90 q0 172 -45 285 q-90 237 -333 237 q-175 0 -277 -136.5 q-102 -136.5 -102 -385.5 l0 -90 Z" /><glyph glyph-name="P" unicode="P" d="M162 0 l0 1456 l543 0 q242 0 380 -124 q138 -124 138 -326 q0 -212 -134.5 -328.5 q-134.5 -116.5 -383.5 -116.5 l-330 0 l0 -561 l-213 0 ZM375 733 l330 0 q157 0 230 74.5 q73 74.5 73 196.5 q0 70 -31 137 q-67 141 -272 141 l-330 0 l0 -549 Z" /><glyph glyph-name="Q" unicode="Q" d="M104 684 l0 88 q0 322 163 513.5 q163 191.5 429 191.5 q272 0 433 -190 q161 -190 161 -515 l0 -88 q0 -204 -66 -358.5 q-66 -154.5 -188 -243.5 l256 -203 l-141 -129 l-307 246 q-75 -16 -146 -16 q-266 0 -430 191.5 q-164 191.5 -164 512.5 ZM317 684 q0 -253 103.5 -389.5 q103.5 -136.5 277.5 -136.5 q123 0 205 61 q174 123 174 465 l0 90 q0 252 -100 387 q-100 135 -281 135 q-115 0 -198 -59 q-87 -62 -134 -180 q-47 -118 -47 -283 l0 -90 Z" /><glyph glyph-name="R" unicode="R" d="M162 0 l0 1456 l493 0 q249 0 382.5 -113 q133.5 -113 133.5 -323 q0 -141 -72 -240 q-72 -99 -202 -153 l338 -615 l0 -12 l-229 0 l-310 580 l-321 0 l0 -580 l-213 0 ZM375 752 l287 0 q144 0 220 75 q76 75 76 187 q0 127 -74.5 197.5 q-74.5 70.5 -228.5 70.5 l-280 0 l0 -530 Z" /><glyph glyph-name="S" unicode="S" d="M80 428 l213 0 q0 -71 26.5 -125 q26.5 -54 74.5 -86.5 q48 -32.5 109 -48.5 q61 -16 134 -16 q144 0 220.5 58 q76.5 58 76.5 161 q0 102 -71.5 158.5 q-71.5 56.5 -262.5 113.5 q-147 45 -248 100 q-227 121 -227 334 q0 174 141 287 q141 113 363 113 q162 0 280 -62 q114 -61 175 -161 q61 -100 61 -220 l-213 0 q0 117 -74.5 194 q-74.5 77 -230.5 77 q-138 0 -213.5 -62 q-75.5 -62 -75.5 -164 q0 -88 81 -148.5 q81 -60.5 251 -105.5 q248 -71 363.5 -176 q115.5 -105 115.5 -276 q0 -177 -138.5 -285 q-138.5 -108 -373.5 -108 q-155 0 -280.5 51.5 q-125.5 51.5 -201 155 q-75.5 103.5 -75.5 241.5 Z" /><glyph glyph-name="T" unicode="T" d="M47 1282 l0 174 l1139 0 l0 -174 l-465 0 l0 -1282 l-211 0 l0 1282 l-463 0 Z" /><glyph glyph-name="U" unicode="U" d="M135 475 l0 981 l213 0 l0 -981 q0 -159 84.5 -241 q84.5 -82 235.5 -82 q152 0 236.5 81.5 q84.5 81.5 84.5 241.5 l0 981 l213 0 l0 -981 q0 -232 -142.5 -363.5 q-142.5 -131.5 -391.5 -131.5 q-252 0 -392.5 130 q-140.5 130 -140.5 365 Z" /><glyph glyph-name="V" unicode="V" d="M25 1456 l233 0 l397 -1180 l400 1180 l233 0 l-532 -1456 l-201 0 l-530 1456 Z" /><glyph glyph-name="W" unicode="W" d="M55 1456 l213 0 l232 -1040 l16 -127 l23 110 l288 1057 l179 0 l282 -1059 l25 -114 l16 135 l227 1038 l213 0 l-346 -1456 l-198 0 l-303 1100 l-4 24 l-5 -26 l-311 -1098 l-199 0 l-348 1456 Z" /><glyph glyph-name="X" unicode="X" d="M51 0 l463 735 l-453 721 l248 0 l336 -549 l336 549 l248 0 l-453 -721 l463 -735 l-250 0 l-344 559 l-344 -559 l-250 0 Z" /><glyph glyph-name="Y" unicode="Y" d="M12 1456 l242 0 l364 -719 l363 719 l242 0 l-498 -915 l0 -541 l-215 0 l0 541 l-498 915 Z" /><glyph glyph-name="Z" unicode="Z" d="M84 0 l0 150 l782 1132 l-772 0 l0 174 l1030 0 l0 -145 l-784 -1139 l813 0 l0 -172 l-1069 0 Z" /><glyph glyph-name="bracketleft" unicode="[" d="M156 -143 l0 1720 l356 0 l0 -131 l-207 0 l0 -1458 l207 0 l0 -131 l-356 0 Z" /><glyph glyph-name="backslash" unicode="\" d="M166 1577 l145 -2 l445 -1864 l-146 2 l-444 1864 Z" /><glyph glyph-name="bracketright" unicode="]" d="M123 -12 l207 0 l0 1458 l-207 0 l0 131 l356 0 l0 -1720 l-356 0 l0 131 Z" /><glyph glyph-name="asciicircum" unicode="^" d="M80 821 l262 613 l197 0 l262 -613 l-185 0 l-176 443 l-176 -443 l-184 0 Z" /><glyph glyph-name="underscore" unicode="_" d="M55 -96 l899 0 l0 -185 l-899 0 l0 185 Z" /><glyph glyph-name="grave" unicode="`" d="M57 1536 l242 0 l193 -297 l-175 0 l-260 297 Z" /><glyph glyph-name="a" unicode="a" d="M100 301 q0 171 130 263.5 q130 92.5 360 92.5 l174 0 l0 82 q0 94 -55.5 148.5 q-55.5 54.5 -159.5 54.5 q-97 0 -158 -48.5 q-61 -48.5 -61 -115.5 l-205 0 q0 79 53 156 q57 77 154.5 122.5 q97.5 45.5 226.5 45.5 q188 0 299 -95 q111 -95 111 -270 l0 -495 q0 -144 39 -226 l0 -16 l-213 0 q-20 58 -25 113 q-126 -133 -303 -133 q-160 0 -263.5 91.5 q-103.5 91.5 -103.5 229.5 ZM307 326 q0 -76 51 -125 q51 -49 144 -49 q89 0 160 43 q71 43 102 106 l0 219 l-148 0 q-150 0 -229.5 -49 q-79.5 -49 -79.5 -145 Z" /><glyph glyph-name="b" unicode="b" d="M133 0 l0 1536 l207 0 l0 -567 q108 133 301 133 q198 0 310 -148 q112 -148 112 -403 l0 -23 q0 -248 -113.5 -398 q-113.5 -150 -308.5 -150 q-136 0 -225 65 q-49 36 -84 80 l-10 -125 l-189 0 ZM340 309 q35 -74 99 -116.5 q64 -42.5 153 -42.5 q96 0 153 51 q111 94 111 327 l0 23 q0 101 -25 190 q-55 191 -241 191 q-179 0 -250 -152 l0 -471 Z" /><glyph glyph-name="c" unicode="c" d="M88 520 l0 41 q0 242 127.5 391.5 q127.5 149.5 355.5 149.5 q189 0 308.5 -108 q119.5 -108 128.5 -289 l-197 0 q-3 101 -71 166 q-68 65 -169 65 q-110 0 -168 -55 q-110 -102 -110 -320 l0 -41 q0 -92 24 -178 q57 -197 254 -197 q98 0 167.5 57.5 q69.5 57.5 72.5 145.5 l197 0 q-9 -154 -135 -261 q-126 -107 -302 -107 q-153 0 -263.5 70.5 q-110.5 70.5 -165 191.5 q-54.5 121 -54.5 278 Z" /><glyph glyph-name="d" unicode="d" d="M88 528 l0 23 q0 246 115 398.5 q115 152.5 313 152.5 q183 0 293 -125 l0 559 l207 0 l0 -1536 l-189 0 l-10 117 q-112 -137 -303 -137 q-190 0 -308 154.5 q-118 154.5 -118 393.5 ZM295 528 q0 -96 29 -188 q29 -89 89.5 -138.5 q60.5 -49.5 151.5 -49.5 q167 0 244 147 l0 487 q-78 146 -242 146 q-132 0 -202 -105 q-70 -105 -70 -276 l0 -23 Z" /><glyph glyph-name="e" unicode="e" d="M88 504 l0 41 q0 172 68 299 q65 123 173.5 190.5 q108.5 67.5 237.5 67.5 q222 0 337.5 -141.5 q115.5 -141.5 115.5 -389.5 l0 -90 l-725 0 q6 -150 90.5 -243 q84.5 -93 218.5 -93 q174 0 283 144 l117 -103 q-58 -89 -160.5 -147.5 q-102.5 -58.5 -249.5 -58.5 q-228 0 -367 146 q-139 146 -139 378 ZM301 641 l514 0 l0 14 q-3 61 -27 136 q-56 145 -221 145 q-106 0 -176.5 -77 q-70.5 -77 -89.5 -218 Z" /><glyph glyph-name="f" unicode="f" d="M55 928 l0 153 l168 0 l0 113 q0 172 97 267 q97 95 268 95 q62 0 131 -16 l-8 -164 q-34 10 -99 10 q-88 0 -136 -50 q-48 -50 -48 -142 l0 -113 l227 0 l0 -153 l-227 0 l0 -928 l-205 0 l0 928 l-168 0 Z" /><glyph glyph-name="g" unicode="g" d="M92 528 l0 23 q0 247 114 399 q114 152 314 152 q196 0 303 -135 l11 114 l186 0 l0 -1054 q0 -212 -127 -332.5 q-127 -120.5 -344 -120.5 q-108 0 -221.5 46 q-113.5 46 -180.5 138 l105 121 q114 -141 283 -141 q131 0 204.5 72.5 q73.5 72.5 73.5 207.5 l0 86 q-112 -124 -295 -124 q-192 0 -309 154 q-117 154 -117 394 ZM297 528 q0 -171 68.5 -273.5 q68.5 -102.5 203.5 -102.5 q167 0 244 147 l0 492 q-77 141 -242 141 q-133 0 -203.5 -105 q-70.5 -105 -70.5 -276 l0 -23 Z" /><glyph glyph-name="h" unicode="h" d="M133 0 l0 1536 l207 0 l0 -580 q121 146 311 146 q350 0 350 -397 l0 -705 l-206 0 l0 707 q0 119 -50.5 172 q-50.5 53 -156.5 53 q-84 0 -147.5 -42.5 q-63.5 -42.5 -100.5 -115.5 l0 -774 l-207 0 Z" /><glyph glyph-name="i" unicode="i" d="M135 1368 q0 51 31.5 83 q31.5 32 89.5 32 q54 0 86.5 -32.5 q32.5 -32.5 32.5 -82.5 q0 -49 -32.5 -81 q-32.5 -32 -86.5 -32 q-58 0 -89.5 32 q-31.5 32 -31.5 81 ZM150 0 l0 1081 l206 0 l0 -1081 l-206 0 Z" /><glyph glyph-name="j" unicode="j" d="M-74 -420 l2 164 q45 -10 86 -10 q65 0 97 35.5 q32 35.5 32 113.5 l0 1198 l205 0 l0 -1198 q0 -156 -76 -237.5 q-76 -81.5 -225 -81.5 q-51 0 -121 16 ZM123 1368 q0 51 31.5 83 q31.5 32 87.5 32 q56 0 88 -32 q32 -32 32 -83 q0 -49 -32.5 -81 q-32.5 -32 -87.5 -32 q-55 0 -87 32 q-32 32 -32 81 Z" /><glyph glyph-name="k" unicode="k" d="M135 0 l0 1536 l207 0 l0 -913 l90 108 l326 350 l248 0 l-416 -450 l463 -631 l-242 0 l-356 489 l-113 -116 l0 -373 l-207 0 Z" /><glyph glyph-name="l" unicode="l" d="M150 0 l0 1536 l206 0 l0 -1536 l-206 0 Z" /><glyph glyph-name="m" unicode="m" d="M133 0 l0 1081 l195 0 l6 -118 q117 139 317 139 q226 0 305 -170 q121 170 342 170 q175 0 268 -97.5 q93 -97.5 93 -297.5 l0 -707 l-207 0 l0 709 q0 123 -54.5 173 q-54.5 50 -162.5 50 q-94 0 -157 -54 q-63 -54 -81 -143 l0 -14 l0 -721 l-204 0 l0 709 q0 223 -218 223 q-169 0 -235 -139 l0 -793 l-207 0 Z" /><glyph glyph-name="n" unicode="n" d="M133 0 l0 1081 l195 0 l6 -131 q126 152 321 152 q346 0 346 -397 l0 -705 l-206 0 l0 707 q0 121 -50.5 173 q-50.5 52 -156.5 52 q-83 0 -147 -43.5 q-64 -43.5 -101 -116.5 l0 -772 l-207 0 Z" /><glyph glyph-name="o" unicode="o" d="M86 528 l0 25 q0 241 136 395 q136 154 360 154 q226 0 361.5 -151.5 q135.5 -151.5 135.5 -397.5 l0 -25 q0 -245 -136 -396.5 q-136 -151.5 -359 -151.5 q-227 0 -362.5 153 q-135.5 153 -135.5 395 ZM293 528 q0 -100 31 -188 q32 -91 98.5 -143 q66.5 -52 161.5 -52 q137 0 213.5 106.5 q76.5 106.5 76.5 276.5 l0 25 q0 106 -32 188 q-72 195 -260 195 q-137 0 -213 -106.5 q-76 -106.5 -76 -276.5 l0 -25 Z" /><glyph glyph-name="p" unicode="p" d="M133 -416 l0 1497 l191 0 l8 -114 q116 135 307 135 q198 0 310 -148 q112 -148 112 -403 l0 -21 q0 -249 -114 -399.5 q-114 -150.5 -306 -150.5 q-189 0 -301 124 l0 -520 l-207 0 ZM340 289 q79 -144 242 -144 q91 0 153.5 52.5 q62.5 52.5 90.5 137 q28 84.5 28 195.5 l0 21 q0 103 -27 192 q-29 89 -91 139 q-62 50 -156 50 q-166 0 -240 -139 l0 -504 Z" /><glyph glyph-name="q" unicode="q" d="M88 528 l0 23 q0 249 115.5 400 q115.5 151 314.5 151 q189 0 299 -129 l10 108 l187 0 l0 -1497 l-205 0 l0 514 q-109 -118 -293 -118 q-191 0 -309.5 151 q-118.5 151 -118.5 397 ZM295 528 q0 -171 70.5 -277 q70.5 -106 201.5 -106 q164 0 242 140 l0 516 q-77 135 -240 135 q-133 0 -203.5 -106 q-70.5 -106 -70.5 -279 l0 -23 Z" /><glyph glyph-name="r" unicode="r" d="M135 0 l0 1081 l199 0 l4 -123 q88 144 256 144 q56 0 82 -15 l-2 -190 q-41 8 -92 8 q-89 0 -150.5 -38.5 q-61.5 -38.5 -91.5 -108.5 l0 -758 l-205 0 Z" /><glyph glyph-name="s" unicode="s" d="M86 336 l205 0 q3 -73 41 -117 q67 -78 205 -78 q100 0 160.5 41.5 q60.5 41.5 60.5 106.5 q0 68 -54 109 q-54 41 -192 71 q-188 35 -287.5 110.5 q-99.5 75.5 -99.5 202.5 q0 136 113 228 q113 92 292 92 q189 0 304.5 -97 q115.5 -97 115.5 -243 l-205 0 q0 71 -57.5 124.5 q-57.5 53.5 -157.5 53.5 q-100 0 -151 -43.5 q-51 -43.5 -51 -108.5 q0 -61 53.5 -96 q53.5 -35 185.5 -63 q197 -44 295.5 -119.5 q98.5 -75.5 98.5 -206.5 q0 -142 -116 -232.5 q-116 -90.5 -310 -90.5 q-144 0 -244 53 q-99 52 -152 131.5 q-53 79.5 -53 171.5 Z" /><glyph glyph-name="t" unicode="t" d="M10 928 l0 153 l189 0 l0 265 l207 0 l0 -265 l196 0 l0 -153 l-196 0 l0 -649 q0 -73 28.5 -99 q28.5 -26 87.5 -26 q6 0 86 10 l2 -164 q-82 -20 -149 -20 q-50 0 -92.5 12.5 q-42.5 12.5 -83 43 q-40.5 30.5 -63.5 91.5 q-23 61 -23 147 l0 654 l-189 0 Z" /><glyph glyph-name="u" unicode="u" d="M131 385 l0 696 l205 0 l0 -698 q0 -231 190 -231 q199 0 267 143 l0 786 l206 0 l0 -1081 l-194 0 l-6 109 q-104 -129 -312 -129 q-168 0 -262 98.5 q-94 98.5 -94 306.5 Z" /><glyph glyph-name="v" unicode="v" d="M29 1081 l213 0 l260 -813 l256 813 l211 0 l-385 -1081 l-168 0 l-387 1081 Z" /><glyph glyph-name="w" unicode="w" d="M41 1081 l203 0 l198 -784 l242 784 l160 0 l246 -798 l194 798 l203 0 l-305 -1081 l-168 0 l-252 797 l-248 -797 l-168 0 l-305 1081 Z" /><glyph glyph-name="x" unicode="x" d="M39 0 l354 549 l-344 532 l232 0 l227 -381 l227 381 l236 0 l-344 -532 l354 -549 l-231 0 l-240 395 l-240 -395 l-231 0 Z" /><glyph glyph-name="y" unicode="y" d="M18 1081 l224 0 l256 -786 l243 786 l220 0 l-435 -1247 q-17 -50 -41.5 -93 q-24.5 -43 -63 -85.5 q-38.5 -42.5 -95 -67 q-56.5 -24.5 -125.5 -24.5 q-59 0 -109 16 l-2 162 q17 0 27 -2 q10 -2 22 -2 q94 0 144.5 37 q50.5 37 81.5 129 l38 106 l-385 1071 Z" /><glyph glyph-name="z" unicode="z" d="M86 0 l0 143 l582 772 l-572 0 l0 166 l830 0 l0 -137 l-586 -778 l612 0 l0 -166 l-866 0 Z" /><glyph glyph-name="braceleft" unicode="{" d="M61 629 l0 174 l86 0 q8 0 14.5 1 q6.5 1 11.5 2 q5 1 9 4 q4 3 6.5 4.5 q2.5 1.5 4 7 q1.5 5.5 2.5 7.5 q1 2 1.5 9.5 q0.5 7.5 0.5 9.5 q0 2 0 11.5 q0 9.5 0 12.5 q0 11 1 143.5 q1 132.5 1 229.5 q0 47 10.5 90.5 q10.5 43.5 39.5 88.5 q29 45 74 78 q45 33 120 54 q75 21 171 21 l0 -131 q-133 0 -200.5 -61 q-67.5 -61 -67.5 -177 l0 -319 q0 -66 -26.5 -107.5 q-26.5 -41.5 -96.5 -64.5 q68 -25 95.5 -67 q27.5 -42 27.5 -109 l0 -316 q0 -115 69.5 -176 q69.5 -61 198.5 -61 l0 -131 q-96 0 -171 21 q-75 21 -120 53.5 q-45 32.5 -74 77.5 q-29 45 -39.5 88.5 q-10.5 43.5 -10.5 90.5 l0 367 q0 20 0 25 q0 5 -2.5 18.5 q-2.5 13.5 -7.5 17.5 q-5 4 -15.5 8.5 q-10.5 4.5 -26.5 4.5 l-86 0 Z" /><glyph glyph-name="bar" unicode="|" d="M176 -236 l0 1905 l186 0 l0 -1905 l-186 0 Z" /><glyph glyph-name="braceright" unicode="}" d="M41 -12 q129 0 198.5 61 q69.5 61 69.5 176 l0 316 q0 67 27.5 109 q27.5 42 95.5 67 q-70 23 -96.5 64.5 q-26.5 41.5 -26.5 107.5 l0 319 q0 116 -67.5 177 q-67.5 61 -200.5 61 l0 131 q96 0 171 -21 q75 -21 120 -54 q45 -33 74 -78 q29 -45 40 -88.5 q11 -43.5 11 -90.5 q0 -97 1 -229.5 q1 -132.5 1 -143.5 q0 -4 0 -13.5 q0 -9.5 0 -12.5 q0 -3 0.5 -10.5 q0.5 -7.5 2 -10 q1.5 -2.5 3.5 -7.5 q2 -5 6 -7 q4 -2 9 -4.5 q5 -2.5 12 -3 q7 -0.5 16 -0.5 l86 0 l0 -174 l-86 0 q-19 0 -30 -4 q-11 -4 -15 -15 q-4 -11 -5 -19.5 q-1 -8.5 -1 -27.5 q0 -5 0 -8 l0 -367 q0 -47 -11 -90.5 q-11 -43.5 -40 -88.5 q-29 -45 -74 -77.5 q-45 -32.5 -120 -53.5 q-75 -21 -171 -21 l0 131 Z" /><glyph glyph-name="asciitilde" unicode="~" d="" /><glyph glyph-name="nonbreakingspace" unicode=" " d="" /><glyph glyph-name="cent" unicode="¢" d="M88 520 l0 41 q0 215 101.5 359 q101.5 144 285.5 174 l0 172 l187 0 l0 -170 q153 -26 246 -130 q93 -104 100 -261 l-197 0 q-3 76 -43 133 q-40 57 -106 82 l0 -760 q66 22 106 72 q40 50 43 116 l197 0 q-7 -133 -104 -233.5 q-97 -100.5 -242 -126.5 l0 -172 l-187 0 l0 172 q-185 32 -286 175 q-101 143 -101 357 ZM293 520 q0 -92 24 -178 q41 -142 158 -182 l0 762 q-38 -11 -72 -41 q-110 -102 -110 -320 l0 -41 Z" /><glyph glyph-name="sterling" unicode="£" d="" /><glyph glyph-name="currency" unicode="¤" d="" /><glyph glyph-name="yen" unicode="¥" d="" /><glyph glyph-name="section" unicode="§" d="" /><glyph glyph-name="dieresis" unicode="¨" d="M100 1370 q0 48 31 79.5 q31 31.5 84 31.5 q54 0 84.5 -31 q30.5 -31 30.5 -80 q0 -46 -30.5 -77 q-30.5 -31 -84.5 -31 q-52 0 -83.5 31 q-31.5 31 -31.5 77 ZM543 1368 q0 49 30 80 q30 31 84 31 q54 0 84.5 -31 q30.5 -31 30.5 -80 q0 -46 -30.5 -76 q-30.5 -30 -84.5 -30 q-54 0 -84 30 q-30 30 -30 76 Z" /><glyph glyph-name="copyright" unicode="©" d="" /><glyph glyph-name="ordfeminine" unicode="ª" d="M145 918 q0 112 85.5 171.5 q85.5 59.5 254.5 59.5 l109 0 l0 53 q0 64 -32 98.5 q-32 34.5 -93 34.5 q-68 0 -106.5 -27 q-38.5 -27 -38.5 -77 l-164 12 q0 103 85 168.5 q85 65.5 224 65.5 q132 0 210.5 -72 q78.5 -72 78.5 -205 l0 -313 q0 -104 24 -180 l-166 0 q-12 46 -16 71 q-78 -86 -207 -86 q-117 0 -182.5 61 q-65.5 61 -65.5 165 ZM309 922 q0 -44 31.5 -68.5 q31.5 -24.5 93.5 -24.5 q44 0 88.5 19 q44.5 19 71.5 47 l0 141 l-109 0 q-87 0 -131.5 -32 q-44.5 -32 -44.5 -82 Z" /><glyph glyph-name="guillemotleft" unicode="«" d="M123 516 l446 447 l107 -107 l-342 -342 l340 -340 l-105 -104 l-446 446 ZM582 516 l446 447 l107 -107 l-342 -342 l340 -340 l-105 -104 l-446 446 Z" /><glyph glyph-name="logicalnot" unicode="¬" d="" /><glyph glyph-name="uni00AD" unicode="­" d="M102 459 l41 186 l652 0 l-41 -186 l-652 0 Z" /><glyph glyph-name="registered" unicode="®" d="" /><glyph glyph-name="macron" unicode="¯" d="M147 1300 l0 148 l674 0 l0 -148 l-674 0 Z" /><glyph glyph-name="degree" unicode="°" d="M164.5 1027.5 q-72.5 73.5 -72.5 182.5 q0 109 72.5 182.5 q72.5 73.5 179.5 73.5 q109 0 181.5 -73.5 q72.5 -73.5 72.5 -182.5 q0 -109 -72.5 -182.5 q-72.5 -73.5 -181.5 -73.5 q-107 0 -179.5 73.5 ZM265 1292 q-32 -33 -32 -82 q0 -49 32 -81.5 q32 -32.5 79 -32.5 q48 0 80.5 32.5 q32.5 32.5 32.5 81.5 q0 49 -32.5 82 q-32.5 33 -80.5 33 q-47 0 -79 -33 Z" /><glyph glyph-name="acute" unicode="´" d="M119 1239 l194 297 l242 0 l-270 -297 l-166 0 Z" /><glyph glyph-name="paragraph" unicode="¶" d="" /><glyph glyph-name="periodcentered" unicode="·" d="M178 674 l158 157 l156 -155 l-156 -158 l-158 156 Z" /><glyph glyph-name="cedilla" unicode="¸" d="M117 -135 l30 135 l150 0 l-12 -53 q153 -28 153 -172 q0 -99 -81 -157 q-81 -58 -232 -58 l-6 118 q70 0 112.5 24 q42.5 24 42.5 73 q0 46 -36 65 q-36 19 -121 25 Z" /><glyph glyph-name="ordmasculine" unicode="º" d="M123 1042 l0 82 q0 157 93 255 q93 98 249 98 q158 0 251 -98 q93 -98 93 -255 l0 -82 q0 -156 -93 -254 q-93 -98 -249 -98 q-158 0 -251 98 q-93 98 -93 254 ZM287 1042 q0 -95 45.5 -153 q45.5 -58 134.5 -58 q85 0 130.5 58.5 q45.5 58.5 45.5 152.5 l0 82 q0 93 -45.5 152 q-45.5 59 -132.5 59 q-87 0 -132.5 -59 q-45.5 -59 -45.5 -152 l0 -82 Z" /><glyph glyph-name="guillemotright" unicode="»" d="M131 856 l107 107 l446 -447 l-446 -446 l-105 104 l340 340 l-342 342 ZM590 856 l106 107 l447 -447 l-447 -446 l-104 104 l340 340 l-342 342 Z" /><glyph glyph-name="Agrave" unicode="À" d="M25 0 l553 1456 l190 0 l555 -1456 l-223 0 l-131 367 l-592 0 l-131 -367 l-221 0 ZM354 1847 l242 0 l192 -297 l-174 0 l-260 297 ZM438 541 l469 0 l-233 657 l-236 -657 Z" /><glyph glyph-name="Aacute" unicode="Á" d="M25 0 l553 1456 l190 0 l555 -1456 l-223 0 l-131 367 l-592 0 l-131 -367 l-221 0 ZM438 541 l469 0 l-233 657 l-236 -657 ZM567 1550 l195 297 l242 0 l-271 -297 l-166 0 Z" /><glyph glyph-name="Acircumflex" unicode="Â" d="M25 0 l553 1456 l190 0 l555 -1456 l-223 0 l-131 367 l-592 0 l-131 -367 l-221 0 ZM358 1563 l0 12 l256 272 l123 0 l258 -274 l0 -10 l-168 0 l-151 163 l-150 -163 l-168 0 ZM438 541 l469 0 l-233 657 l-236 -657 Z" /><glyph glyph-name="Atilde" unicode="Ã" d="M25 0 l553 1456 l190 0 l555 -1456 l-223 0 l-131 367 l-592 0 l-131 -367 l-221 0 ZM319 1563 q0 110 60.5 179.5 q60.5 69.5 157.5 69.5 q50 0 93.5 -23 q43.5 -23 86 -46 q42.5 -23 88.5 -23 q41 0 68.5 31 q27.5 31 27.5 78 l133 -10 q0 -110 -62 -179 q-62 -69 -155 -69 q-47 0 -84.5 14.5 q-37.5 14.5 -59 32.5 q-21.5 18 -54.5 32.5 q-33 14.5 -72 14.5 q-41 0 -67.5 -31 q-26.5 -31 -26.5 -78 l-134 7 ZM438 541 l469 0 l-233 657 l-236 -657 Z" /><glyph glyph-name="Adieresis" unicode="Ä" d="M25 0 l553 1456 l190 0 l555 -1456 l-223 0 l-131 367 l-592 0 l-131 -367 l-221 0 ZM342 1681 q0 48 31 79.5 q31 31.5 84 31.5 q54 0 84 -31 q30 -31 30 -80 q0 -46 -30.5 -77 q-30.5 -31 -83.5 -31 q-52 0 -83.5 31 q-31.5 31 -31.5 77 ZM438 541 l469 0 l-233 657 l-236 -657 ZM784 1679 q0 49 30.5 80 q30.5 31 84.5 31 q54 0 84.5 -31 q30.5 -31 30.5 -80 q0 -46 -30.5 -76 q-30.5 -30 -84.5 -30 q-54 0 -84.5 30 q-30.5 30 -30.5 76 Z" /><glyph glyph-name="Aring" unicode="Å" d="M25 0 l553 1456 l190 0 l555 -1456 l-223 0 l-131 367 l-592 0 l-131 -367 l-221 0 ZM438 541 l469 0 l-233 657 l-236 -657 ZM461 1733 q0 85 62.5 145.5 q62.5 60.5 154.5 60.5 q90 0 152.5 -60.5 q62.5 -60.5 62.5 -145.5 q0 -87 -62 -146 q-62 -59 -153 -59 q-92 0 -154.5 58.5 q-62.5 58.5 -62.5 146.5 ZM595.5 1813 q-32.5 -34 -32.5 -80 q0 -46 33 -80.5 q33 -34.5 82 -34.5 q49 0 81 33.5 q32 33.5 32 81.5 q0 46 -32.5 80 q-32.5 34 -80.5 34 q-50 0 -82.5 -34 Z" /><glyph glyph-name="AE" unicode="Æ" d="M-10 0 l862 1456 l963 0 l0 -168 l-672 0 l18 -448 l572 0 l0 -166 l-564 0 l21 -506 l686 0 l0 -168 l-885 0 l-14 350 l-543 0 l-196 -350 l-248 0 ZM541 537 l428 0 l-31 706 l-397 -706 Z" /><glyph glyph-name="Ccedilla" unicode="Ç" d="M113 659 l0 138 q0 310 158 495 q158 185 431 185 q242 0 381.5 -131 q139.5 -131 163.5 -363 l-213 0 q-21 158 -98 239 q-77 81 -234 81 q-180 0 -277 -132.5 q-97 -132.5 -97 -371.5 l0 -140 q0 -231 91 -368 q91 -137 269 -137 q168 0 245.5 78 q77.5 78 100.5 235 l211 0 q-12 -136 -78 -250 q-125 -209 -407 -235 l-10 -43 q153 -28 153 -172 q0 -99 -81 -157.5 q-81 -58.5 -232 -58.5 l-6 119 q70 0 112.5 24 q42.5 24 42.5 73 q0 46 -36 65 q-36 19 -121 25 l28 127 q-228 28 -362.5 209 q-134.5 181 -134.5 466 Z" /><glyph glyph-name="Egrave" unicode="È" d="M162 0 l0 1456 l925 0 l0 -174 l-712 0 l0 -446 l620 0 l0 -170 l-620 0 l0 -494 l723 0 l0 -172 l-936 0 ZM301 1855 l242 0 l192 -296 l-174 0 l-260 296 Z" /><glyph glyph-name="Eacute" unicode="É" d="M162 0 l0 1456 l925 0 l0 -174 l-712 0 l0 -446 l620 0 l0 -170 l-620 0 l0 -494 l723 0 l0 -172 l-936 0 ZM514 1559 l195 296 l241 0 l-270 -296 l-166 0 Z" /><glyph glyph-name="Ecircumflex" unicode="Ê" d="M162 0 l0 1456 l925 0 l0 -174 l-712 0 l0 -446 l620 0 l0 -170 l-620 0 l0 -494 l723 0 l0 -172 l-936 0 ZM305 1571 l0 12 l256 272 l123 0 l258 -274 l0 -10 l-168 0 l-151 164 l-150 -164 l-168 0 Z" /><glyph glyph-name="Edieresis" unicode="Ë" d="M162 0 l0 1456 l925 0 l0 -174 l-712 0 l0 -446 l620 0 l0 -170 l-620 0 l0 -494 l723 0 l0 -172 l-936 0 ZM289 1690 q0 48 30.5 79 q30.5 31 83.5 31 q54 0 84.5 -30.5 q30.5 -30.5 30.5 -79.5 q0 -46 -31 -77.5 q-31 -31.5 -84 -31.5 q-52 0 -83 31.5 q-31 31.5 -31 77.5 ZM731 1688 q0 49 30.5 79.5 q30.5 30.5 84.5 30.5 q54 0 84.5 -30.5 q30.5 -30.5 30.5 -79.5 q0 -46 -30.5 -76.5 q-30.5 -30.5 -84.5 -30.5 q-54 0 -84.5 30.5 q-30.5 30.5 -30.5 76.5 Z" /><glyph glyph-name="Igrave" unicode="Ì" d="M-39 1855 l242 0 l192 -296 l-174 0 l-260 296 ZM176 0 l0 1456 l213 0 l0 -1456 l-213 0 Z" /><glyph glyph-name="Iacute" unicode="Í" d="M174 1559 l195 296 l241 0 l-270 -296 l-166 0 ZM176 0 l0 1456 l213 0 l0 -1456 l-213 0 Z" /><glyph glyph-name="Icircumflex" unicode="Î" d="M-35 1571 l0 12 l256 272 l123 0 l258 -274 l0 -10 l-168 0 l-151 164 l-150 -164 l-168 0 ZM176 0 l0 1456 l213 0 l0 -1456 l-213 0 Z" /><glyph glyph-name="Idieresis" unicode="Ï" d="M-51 1690 q0 48 30.5 79 q30.5 31 83.5 31 q54 0 84.5 -30.5 q30.5 -30.5 30.5 -79.5 q0 -46 -31 -77.5 q-31 -31.5 -84 -31.5 q-52 0 -83 31.5 q-31 31.5 -31 77.5 ZM176 0 l0 1456 l213 0 l0 -1456 l-213 0 ZM391 1688 q0 49 30.5 79.5 q30.5 30.5 84.5 30.5 q54 0 84.5 -30.5 q30.5 -30.5 30.5 -79.5 q0 -46 -30.5 -76.5 q-30.5 -30.5 -84.5 -30.5 q-54 0 -84.5 30.5 q-30.5 30.5 -30.5 76.5 Z" /><glyph glyph-name="Eth" unicode="Ð" d="M33 662 l0 155 l157 0 l0 639 l420 0 q294 0 470.5 -186 q176.5 -186 176.5 -502 l0 -82 q0 -316 -179 -501 q-179 -185 -482 -185 l-406 0 l0 662 l-157 0 ZM406 172 l190 0 q215 0 331.5 133.5 q116.5 133.5 116.5 380.5 l0 84 q0 246 -112.5 379 q-112.5 133 -321.5 133 l-204 0 l0 -465 l276 0 l0 -155 l-276 0 l0 -490 Z" /><glyph glyph-name="Ntilde" unicode="Ñ" d="M162 0 l0 1456 l213 0 l706 -1098 l0 1098 l213 0 l0 -1456 l-215 0 l-704 1094 l0 -1094 l-213 0 ZM371 1563 q0 110 60 179.5 q60 69.5 157 69.5 q50 0 93.5 -23 q43.5 -23 86 -46 q42.5 -23 88.5 -23 q41 0 68.5 31 q27.5 31 27.5 78 l133 -10 q0 -110 -62 -179 q-62 -69 -155 -69 q-47 0 -84.5 14.5 q-37.5 14.5 -59 32.5 q-21.5 18 -54.5 32.5 q-33 14.5 -72 14.5 q-41 0 -67.5 -31 q-26.5 -31 -26.5 -78 l-133 7 Z" /><glyph glyph-name="Ograve" unicode="Ò" d="M113 684 l0 88 q0 322 162.5 513.5 q162.5 191.5 429.5 191.5 q268 0 429.5 -188 q161.5 -188 161.5 -517 l0 -88 q0 -327 -159.5 -515.5 q-159.5 -188.5 -429.5 -188.5 q-266 0 -430 191.5 q-164 191.5 -164 512.5 ZM326 684 q0 -253 103.5 -389.5 q103.5 -136.5 277.5 -136.5 q181 0 278.5 135.5 q97.5 135.5 97.5 390.5 l0 90 q0 172 -45 285 q-90 237 -333 237 q-175 0 -277 -136.5 q-102 -136.5 -102 -385.5 l0 -90 ZM385 1849 l242 0 l192 -297 l-174 0 l-260 297 Z" /><glyph glyph-name="Oacute" unicode="Ó" d="M113 684 l0 88 q0 322 162.5 513.5 q162.5 191.5 429.5 191.5 q268 0 429.5 -188 q161.5 -188 161.5 -517 l0 -88 q0 -327 -159.5 -515.5 q-159.5 -188.5 -429.5 -188.5 q-266 0 -430 191.5 q-164 191.5 -164 512.5 ZM326 684 q0 -253 103.5 -389.5 q103.5 -136.5 277.5 -136.5 q181 0 278.5 135.5 q97.5 135.5 97.5 390.5 l0 90 q0 172 -45 285 q-90 237 -333 237 q-175 0 -277 -136.5 q-102 -136.5 -102 -385.5 l0 -90 ZM598 1552 l195 297 l241 0 l-270 -297 l-166 0 Z" /><glyph glyph-name="Ocircumflex" unicode="Ô" d="M113 684 l0 88 q0 322 162.5 513.5 q162.5 191.5 429.5 191.5 q268 0 429.5 -188 q161.5 -188 161.5 -517 l0 -88 q0 -327 -159.5 -515.5 q-159.5 -188.5 -429.5 -188.5 q-266 0 -430 191.5 q-164 191.5 -164 512.5 ZM326 684 q0 -253 103.5 -389.5 q103.5 -136.5 277.5 -136.5 q181 0 278.5 135.5 q97.5 135.5 97.5 390.5 l0 90 q0 172 -45 285 q-90 237 -333 237 q-175 0 -277 -136.5 q-102 -136.5 -102 -385.5 l0 -90 ZM389 1565 l0 12 l256 272 l123 0 l258 -274 l0 -10 l-168 0 l-151 164 l-150 -164 l-168 0 Z" /><glyph glyph-name="Otilde" unicode="Õ" d="M113 684 l0 88 q0 322 162.5 513.5 q162.5 191.5 429.5 191.5 q268 0 429.5 -188 q161.5 -188 161.5 -517 l0 -88 q0 -327 -159.5 -515.5 q-159.5 -188.5 -429.5 -188.5 q-266 0 -430 191.5 q-164 191.5 -164 512.5 ZM326 684 q0 -253 103.5 -389.5 q103.5 -136.5 277.5 -136.5 q181 0 278.5 135.5 q97.5 135.5 97.5 390.5 l0 90 q0 172 -45 285 q-90 237 -333 237 q-175 0 -277 -136.5 q-102 -136.5 -102 -385.5 l0 -90 ZM350 1565 q0 111 60 180.5 q60 69.5 157 69.5 q40 0 76.5 -14.5 q36.5 -14.5 61 -32 q24.5 -17.5 59.5 -32 q35 -14.5 72 -14.5 q41 0 68.5 31 q27.5 31 27.5 78 l133 -10 q0 -110 -62 -179 q-62 -69 -155 -69 q-47 0 -84.5 14.5 q-37.5 14.5 -59 32.5 q-21.5 18 -54.5 32.5 q-33 14.5 -72 14.5 q-41 0 -68 -30.5 q-27 -30.5 -27 -77.5 l-133 6 Z" /><glyph glyph-name="Odieresis" unicode="Ö" d="M113 684 l0 88 q0 322 162.5 513.5 q162.5 191.5 429.5 191.5 q268 0 429.5 -188 q161.5 -188 161.5 -517 l0 -88 q0 -327 -159.5 -515.5 q-159.5 -188.5 -429.5 -188.5 q-266 0 -430 191.5 q-164 191.5 -164 512.5 ZM326 684 q0 -253 103.5 -389.5 q103.5 -136.5 277.5 -136.5 q181 0 278.5 135.5 q97.5 135.5 97.5 390.5 l0 90 q0 172 -45 285 q-90 237 -333 237 q-175 0 -277 -136.5 q-102 -136.5 -102 -385.5 l0 -90 ZM373 1683 q0 49 30.5 80 q30.5 31 83.5 31 q54 0 84.5 -31 q30.5 -31 30.5 -80 q0 -46 -30.5 -77 q-30.5 -31 -84.5 -31 q-52 0 -83 31 q-31 31 -31 77 ZM815 1681 q0 49 30.5 80 q30.5 31 84.5 31 q54 0 84 -31 q30 -31 30 -80 q0 -46 -30 -76 q-30 -30 -84 -30 q-54 0 -84.5 30 q-30.5 30 -30.5 76 Z" /><glyph glyph-name="multiply" unicode="×" d="M76 301 l246 246 l-246 246 l129 129 l246 -246 l245 246 l129 -129 l-245 -246 l245 -246 l-129 -129 l-245 246 l-246 -246 l-129 129 Z" /><glyph glyph-name="Oslash" unicode="Ø" d="M115 684 l0 88 q0 322 162.5 513.5 q162.5 191.5 429.5 191.5 q205 0 354 -115 l94 154 l150 0 l-154 -248 q147 -189 147 -496 l0 -88 q0 -324 -160.5 -514 q-160.5 -190 -428.5 -190 q-172 0 -303 81 l-95 -153 l-149 0 l143 233 q-190 193 -190 543 ZM328 684 q0 -233 86 -367 l542 877 q-94 102 -249 102 q-176 0 -277.5 -136 q-101.5 -136 -101.5 -386 l0 -90 ZM504 219 q85 -61 205 -61 q181 0 278.5 135.5 q97.5 135.5 97.5 390.5 l0 90 q0 180 -53 301 l-528 -856 Z" /><glyph glyph-name="Ugrave" unicode="Ù" d="M135 475 l0 981 l213 0 l0 -981 q0 -159 84.5 -241 q84.5 -82 235.5 -82 q152 0 236.5 81.5 q84.5 81.5 84.5 241.5 l0 981 l213 0 l0 -981 q0 -232 -142.5 -363.5 q-142.5 -131.5 -391.5 -131.5 q-252 0 -392.5 130 q-140.5 130 -140.5 365 ZM346 1847 l242 0 l192 -297 l-174 0 l-260 297 Z" /><glyph glyph-name="Uacute" unicode="Ú" d="M135 475 l0 981 l213 0 l0 -981 q0 -159 84.5 -241 q84.5 -82 235.5 -82 q152 0 236.5 81.5 q84.5 81.5 84.5 241.5 l0 981 l213 0 l0 -981 q0 -232 -142.5 -363.5 q-142.5 -131.5 -391.5 -131.5 q-252 0 -392.5 130 q-140.5 130 -140.5 365 ZM559 1550 l195 297 l241 0 l-270 -297 l-166 0 Z" /><glyph glyph-name="Ucircumflex" unicode="Û" d="M135 475 l0 981 l213 0 l0 -981 q0 -159 84.5 -241 q84.5 -82 235.5 -82 q152 0 236.5 81.5 q84.5 81.5 84.5 241.5 l0 981 l213 0 l0 -981 q0 -232 -142.5 -363.5 q-142.5 -131.5 -391.5 -131.5 q-252 0 -392.5 130 q-140.5 130 -140.5 365 ZM350 1563 l0 12 l256 272 l123 0 l258 -274 l0 -10 l-168 0 l-151 163 l-150 -163 l-168 0 Z" /><glyph glyph-name="Udieresis" unicode="Ü" d="M135 475 l0 981 l213 0 l0 -981 q0 -159 84.5 -241 q84.5 -82 235.5 -82 q152 0 236.5 81.5 q84.5 81.5 84.5 241.5 l0 981 l213 0 l0 -981 q0 -232 -142.5 -363.5 q-142.5 -131.5 -391.5 -131.5 q-252 0 -392.5 130 q-140.5 130 -140.5 365 ZM334 1681 q0 48 31 79.5 q31 31.5 84 31.5 q54 0 84 -31 q30 -31 30 -80 q0 -46 -30.5 -77 q-30.5 -31 -83.5 -31 q-52 0 -83.5 31 q-31.5 31 -31.5 77 ZM776 1679 q0 49 30.5 80 q30.5 31 84.5 31 q54 0 84.5 -31 q30.5 -31 30.5 -80 q0 -46 -30.5 -76 q-30.5 -30 -84.5 -30 q-54 0 -84.5 30 q-30.5 30 -30.5 76 Z" /><glyph glyph-name="Yacute" unicode="Ý" d="M12 1456 l242 0 l364 -719 l363 719 l242 0 l-498 -915 l0 -541 l-215 0 l0 541 l-498 915 ZM512 1548 l195 297 l241 0 l-270 -297 l-166 0 Z" /><glyph glyph-name="Thorn" unicode="Þ" d="M160 0 l0 1456 l207 0 l0 -289 l266 0 q233 0 365 -117.5 q132 -117.5 132 -312.5 q0 -193 -132.5 -310.5 q-132.5 -117.5 -364.5 -117.5 l-266 0 l0 -309 l-207 0 ZM367 475 l266 0 q65 0 116.5 16.5 q51.5 16.5 84 42.5 q32.5 26 54 61 q21.5 35 30 69.5 q8.5 34.5 8.5 70.5 q0 49 -15.5 94 q-15.5 45 -47.5 84.5 q-32 39.5 -91.5 63.5 q-59.5 24 -138.5 24 l-266 0 l0 -526 Z" /><glyph glyph-name="germandbls" unicode="ß" d="M139 0 l0 1110 q0 216 110.5 330 q110.5 114 299.5 114 q176 0 280.5 -88 q104.5 -88 104.5 -254 q0 -55 -13 -102 q-13 -47 -31 -80 q-18 -33 -36.5 -64 q-18.5 -31 -31.5 -68 q-13 -37 -13 -77 q0 -82 121 -176 q38 -31 100 -86 q119 -103 119 -235 q0 -165 -103.5 -254.5 q-103.5 -89.5 -293.5 -89.5 q-87 0 -171 20.5 q-84 20.5 -124 48.5 l45 168 q42 -26 106.5 -49 q64.5 -23 126.5 -23 q104 0 156.5 47 q52.5 47 52.5 123 q0 52 -31 95 q-31 43 -88 88 q-56 43 -102 84 q-119 100 -119 239 q0 57 20.5 108.5 q20.5 51.5 45 83.5 q24.5 32 45 81 q20.5 49 20.5 102 q0 92 -50.5 143.5 q-50.5 51.5 -131.5 51.5 q-209 0 -209 -281 l0 -1110 l-205 0 Z" /><glyph glyph-name="agrave" unicode="à" d="M100 301 q0 171 130 263.5 q130 92.5 360 92.5 l174 0 l0 82 q0 94 -55.5 148.5 q-55.5 54.5 -159.5 54.5 q-97 0 -158 -48.5 q-61 -48.5 -61 -115.5 l-205 0 q0 79 53 156 q57 77 154.5 122.5 q97.5 45.5 226.5 45.5 q188 0 299 -95 q111 -95 111 -270 l0 -495 q0 -144 39 -226 l0 -16 l-213 0 q-20 58 -25 113 q-126 -133 -303 -133 q-160 0 -263.5 91.5 q-103.5 91.5 -103.5 229.5 ZM254 1536 l242 0 l192 -297 l-174 0 l-260 297 ZM307 326 q0 -76 51 -125 q51 -49 144 -49 q89 0 160 43 q71 43 102 106 l0 219 l-148 0 q-150 0 -229.5 -49 q-79.5 -49 -79.5 -145 Z" /><glyph glyph-name="aacute" unicode="á" d="M100 301 q0 171 130 263.5 q130 92.5 360 92.5 l174 0 l0 82 q0 94 -55.5 148.5 q-55.5 54.5 -159.5 54.5 q-97 0 -158 -48.5 q-61 -48.5 -61 -115.5 l-205 0 q0 79 53 156 q57 77 154.5 122.5 q97.5 45.5 226.5 45.5 q188 0 299 -95 q111 -95 111 -270 l0 -495 q0 -144 39 -226 l0 -16 l-213 0 q-20 58 -25 113 q-126 -133 -303 -133 q-160 0 -263.5 91.5 q-103.5 91.5 -103.5 229.5 ZM307 326 q0 -76 51 -125 q51 -49 144 -49 q89 0 160 43 q71 43 102 106 l0 219 l-148 0 q-150 0 -229.5 -49 q-79.5 -49 -79.5 -145 ZM467 1239 l195 297 l241 0 l-270 -297 l-166 0 Z" /><glyph glyph-name="acircumflex" unicode="â" d="M100 301 q0 171 130 263.5 q130 92.5 360 92.5 l174 0 l0 82 q0 94 -55.5 148.5 q-55.5 54.5 -159.5 54.5 q-97 0 -158 -48.5 q-61 -48.5 -61 -115.5 l-205 0 q0 79 53 156 q57 77 154.5 122.5 q97.5 45.5 226.5 45.5 q188 0 299 -95 q111 -95 111 -270 l0 -495 q0 -144 39 -226 l0 -16 l-213 0 q-20 58 -25 113 q-126 -133 -303 -133 q-160 0 -263.5 91.5 q-103.5 91.5 -103.5 229.5 ZM258 1251 l0 13 l256 272 l123 0 l258 -274 l0 -11 l-168 0 l-152 164 l-149 -164 l-168 0 ZM307 326 q0 -76 51 -125 q51 -49 144 -49 q89 0 160 43 q71 43 102 106 l0 219 l-148 0 q-150 0 -229.5 -49 q-79.5 -49 -79.5 -145 Z" /><glyph glyph-name="atilde" unicode="ã" d="M100 301 q0 171 130 263.5 q130 92.5 360 92.5 l174 0 l0 82 q0 94 -55.5 148.5 q-55.5 54.5 -159.5 54.5 q-97 0 -158 -48.5 q-61 -48.5 -61 -115.5 l-205 0 q0 79 53 156 q57 77 154.5 122.5 q97.5 45.5 226.5 45.5 q188 0 299 -95 q111 -95 111 -270 l0 -495 q0 -144 39 -226 l0 -16 l-213 0 q-20 58 -25 113 q-126 -133 -303 -133 q-160 0 -263.5 91.5 q-103.5 91.5 -103.5 229.5 ZM219 1251 q0 111 60 180.5 q60 69.5 157 69.5 q50 0 94 -23 q44 -23 86.5 -46 q42.5 -23 88.5 -23 q41 0 68.5 31 q27.5 31 27.5 78 l133 -11 q0 -110 -62 -178.5 q-62 -68.5 -155 -68.5 q-38 0 -69.5 9.5 q-31.5 9.5 -53 23.5 q-21.5 14 -42 28 q-20.5 14 -47.5 23.5 q-27 9.5 -59 9.5 q-41 0 -67.5 -31 q-26.5 -31 -26.5 -78 l-133 6 ZM307 326 q0 -76 51 -125 q51 -49 144 -49 q89 0 160 43 q71 43 102 106 l0 219 l-148 0 q-150 0 -229.5 -49 q-79.5 -49 -79.5 -145 Z" /><glyph glyph-name="adieresis" unicode="ä" d="M100 301 q0 171 130 263.5 q130 92.5 360 92.5 l174 0 l0 82 q0 94 -55.5 148.5 q-55.5 54.5 -159.5 54.5 q-97 0 -158 -48.5 q-61 -48.5 -61 -115.5 l-205 0 q0 79 53 156 q57 77 154.5 122.5 q97.5 45.5 226.5 45.5 q188 0 299 -95 q111 -95 111 -270 l0 -495 q0 -144 39 -226 l0 -16 l-213 0 q-20 58 -25 113 q-126 -133 -303 -133 q-160 0 -263.5 91.5 q-103.5 91.5 -103.5 229.5 ZM242 1370 q0 49 30.5 80 q30.5 31 83.5 31 q54 0 84.5 -31 q30.5 -31 30.5 -80 q0 -46 -30.5 -77 q-30.5 -31 -84.5 -31 q-52 0 -83 31 q-31 31 -31 77 ZM307 326 q0 -76 51 -125 q51 -49 144 -49 q89 0 160 43 q71 43 102 106 l0 219 l-148 0 q-150 0 -229.5 -49 q-79.5 -49 -79.5 -145 ZM684 1368 q0 49 30.5 80 q30.5 31 84.5 31 q54 0 84 -31 q30 -31 30 -80 q0 -46 -30 -76 q-30 -30 -84 -30 q-54 0 -84.5 30 q-30.5 30 -30.5 76 Z" /><glyph glyph-name="aring" unicode="å" d="M100 301 q0 171 130 263.5 q130 92.5 360 92.5 l174 0 l0 82 q0 94 -55.5 148.5 q-55.5 54.5 -159.5 54.5 q-97 0 -158 -48.5 q-61 -48.5 -61 -115.5 l-205 0 q0 79 53 156 q57 77 154.5 122.5 q97.5 45.5 226.5 45.5 q188 0 299 -95 q111 -95 111 -270 l0 -495 q0 -144 39 -226 l0 -16 l-213 0 q-20 58 -25 113 q-126 -133 -303 -133 q-160 0 -263.5 91.5 q-103.5 91.5 -103.5 229.5 ZM307 326 q0 -76 51 -125 q51 -49 144 -49 q89 0 160 43 q71 43 102 106 l0 219 l-148 0 q-150 0 -229.5 -49 q-79.5 -49 -79.5 -145 ZM360 1421 q0 85 63 146 q63 61 155 61 q90 0 152.5 -61 q62.5 -61 62.5 -146 q0 -87 -62 -145.5 q-62 -58.5 -153 -58.5 q-93 0 -155.5 58.5 q-62.5 58.5 -62.5 145.5 ZM496 1501.5 q-33 -34.5 -33 -80.5 q0 -46 32.5 -80 q32.5 -34 82.5 -34 q49 0 80.5 33 q31.5 33 31.5 81 q0 46 -32 80.5 q-32 34.5 -80 34.5 q-49 0 -82 -34.5 Z" /><glyph glyph-name="ae" unicode="æ" d="M78 307 q0 160 116.5 246 q116.5 86 340.5 86 l210 0 l0 78 q0 104 -52.5 161.5 q-52.5 57.5 -151.5 57.5 q-103 0 -167.5 -52 q-64.5 -52 -64.5 -126 l-203 16 q0 146 121 237 q121 91 316 91 q232 0 338 -152 q130 155 340 152 q213 0 328.5 -130 q115.5 -130 115.5 -358 l0 -125 l-717 0 q6 -158 87.5 -251 q81.5 -93 230.5 -93 q55 0 103 8.5 q48 8.5 87.5 26 q39.5 17.5 63.5 31.5 q24 14 57 37 l68 -146 q-157 -122 -385 -122 q-262 0 -398 172 q-26 -33 -55 -56 q-130 -116 -367 -116 q-174 0 -268 87.5 q-94 87.5 -94 239.5 ZM283 303 q0 -72 50 -117 q50 -45 146 -45 q67 0 142.5 34.5 q75.5 34.5 123.5 82.5 l0 231 l-208 0 q-117 0 -185.5 -54 q-68.5 -54 -68.5 -132 ZM952 641 l506 0 l0 31 q0 121 -58.5 192.5 q-58.5 71.5 -178.5 71.5 q-110 0 -180.5 -80 q-70.5 -80 -88.5 -215 Z" /><glyph glyph-name="ccedilla" unicode="ç" d="M88 520 l0 41 q0 242 127.5 391.5 q127.5 149.5 355.5 149.5 q189 0 308.5 -108 q119.5 -108 128.5 -289 l-197 0 q-3 101 -71 166 q-68 65 -169 65 q-110 0 -168 -55 q-110 -102 -110 -320 l0 -41 q0 -92 24 -178 q57 -197 254 -197 q98 0 167.5 57.5 q69.5 57.5 72.5 145.5 l197 0 q-9 -145 -120.5 -248.5 q-111.5 -103.5 -271.5 -117.5 l-10 -43 q154 -28 154 -172 q0 -99 -81.5 -157.5 q-81.5 -58.5 -232.5 -58.5 l-6 119 q70 0 113 24 q43 24 43 73 q0 46 -36 65 q-36 19 -122 25 l31 131 q-182 35 -281.5 178.5 q-99.5 143.5 -99.5 353.5 Z" /><glyph glyph-name="egrave" unicode="è" d="M88 504 l0 41 q0 172 68 299 q65 123 173.5 190.5 q108.5 67.5 237.5 67.5 q222 0 337.5 -141.5 q115.5 -141.5 115.5 -389.5 l0 -90 l-725 0 q6 -150 90.5 -243 q84.5 -93 218.5 -93 q174 0 283 144 l117 -103 q-58 -89 -160.5 -147.5 q-102.5 -58.5 -249.5 -58.5 q-228 0 -367 146 q-139 146 -139 378 ZM238 1536 l241 0 l193 -297 l-174 0 l-260 297 ZM301 641 l514 0 l0 14 q-3 61 -27 136 q-56 145 -221 145 q-106 0 -176.5 -77 q-70.5 -77 -89.5 -218 Z" /><glyph glyph-name="eacute" unicode="é" d="M88 504 l0 41 q0 172 68 299 q65 123 173.5 190.5 q108.5 67.5 237.5 67.5 q222 0 337.5 -141.5 q115.5 -141.5 115.5 -389.5 l0 -90 l-725 0 q6 -150 90.5 -243 q84.5 -93 218.5 -93 q174 0 283 144 l117 -103 q-58 -89 -160.5 -147.5 q-102.5 -58.5 -249.5 -58.5 q-228 0 -367 146 q-139 146 -139 378 ZM301 641 l514 0 l0 14 q-3 61 -27 136 q-56 145 -221 145 q-106 0 -176.5 -77 q-70.5 -77 -89.5 -218 ZM453 1239 l194 297 l242 0 l-271 -297 l-165 0 Z" /><glyph glyph-name="ecircumflex" unicode="ê" d="M88 504 l0 41 q0 172 68 299 q65 123 173.5 190.5 q108.5 67.5 237.5 67.5 q222 0 337.5 -141.5 q115.5 -141.5 115.5 -389.5 l0 -90 l-725 0 q6 -150 90.5 -243 q84.5 -93 218.5 -93 q174 0 283 144 l117 -103 q-58 -89 -160.5 -147.5 q-102.5 -58.5 -249.5 -58.5 q-228 0 -367 146 q-139 146 -139 378 ZM244 1251 l0 13 l256 272 l123 0 l258 -274 l0 -11 l-168 0 l-152 164 l-149 -164 l-168 0 ZM301 641 l514 0 l0 14 q-3 61 -27 136 q-56 145 -221 145 q-106 0 -176.5 -77 q-70.5 -77 -89.5 -218 Z" /><glyph glyph-name="edieresis" unicode="ë" d="M88 504 l0 41 q0 172 68 299 q65 123 173.5 190.5 q108.5 67.5 237.5 67.5 q222 0 337.5 -141.5 q115.5 -141.5 115.5 -389.5 l0 -90 l-725 0 q6 -150 90.5 -243 q84.5 -93 218.5 -93 q174 0 283 144 l117 -103 q-58 -89 -160.5 -147.5 q-102.5 -58.5 -249.5 -58.5 q-228 0 -367 146 q-139 146 -139 378 ZM227 1370 q0 48 31 79.5 q31 31.5 84 31.5 q54 0 84.5 -31 q30.5 -31 30.5 -80 q0 -46 -30.5 -77 q-30.5 -31 -84.5 -31 q-52 0 -83.5 31 q-31.5 31 -31.5 77 ZM301 641 l514 0 l0 14 q-3 61 -27 136 q-56 145 -221 145 q-106 0 -176.5 -77 q-70.5 -77 -89.5 -218 ZM670 1368 q0 49 30 80 q30 31 84 31 q54 0 84.5 -31 q30.5 -31 30.5 -80 q0 -46 -30.5 -76 q-30.5 -30 -84.5 -30 q-54 0 -84 30 q-30 30 -30 76 Z" /><glyph glyph-name="igrave" unicode="ì" d="M-66 1532 l242 0 l193 -297 l-174 0 l-261 297 ZM152 0 l0 1081 l204 0 l0 -1081 l-204 0 Z" /><glyph glyph-name="iacute" unicode="í" d="M150 1235 l194 297 l242 0 l-271 -297 l-165 0 ZM152 0 l0 1081 l204 0 l0 -1081 l-204 0 Z" /><glyph glyph-name="icircumflex" unicode="î" d="M-59 1247 l0 13 l256 272 l122 0 l259 -275 l0 -10 l-168 0 l-152 164 l-149 -164 l-168 0 ZM152 0 l0 1081 l204 0 l0 -1081 l-204 0 Z" /><glyph glyph-name="idieresis" unicode="ï" d="M-76 1366 q0 48 31 79.5 q31 31.5 84 31.5 q54 0 84.5 -31 q30.5 -31 30.5 -80 q0 -46 -31 -77.5 q-31 -31.5 -84 -31.5 q-52 0 -83.5 31.5 q-31.5 31.5 -31.5 77.5 ZM152 0 l0 1081 l204 0 l0 -1081 l-204 0 ZM367 1364 q0 49 30 80 q30 31 84 31 q54 0 84.5 -31 q30.5 -31 30.5 -80 q0 -46 -30.5 -76.5 q-30.5 -30.5 -84.5 -30.5 q-54 0 -84 30.5 q-30 30.5 -30 76.5 Z" /><glyph glyph-name="eth" unicode="ð" d="M119 469 q0 229 123.5 368.5 q123.5 139.5 324.5 139.5 q157 0 275 -100 q-50 185 -183 315 l-213 -143 l-73 102 l186 123 q-129 89 -307 135 l63 172 q238 -51 418 -190 l182 122 l72 -100 l-160 -106 q250 -263 250 -670 l0 -94 q0 -249 -134 -406 q-134 -157 -345 -157 q-212 0 -345.5 139 q-133.5 139 -133.5 350 ZM324 469 q0 -137 77.5 -230.5 q77.5 -93.5 200.5 -93.5 q121 0 194.5 109.5 q73.5 109.5 73.5 282.5 l0 102 q0 35 -2 53 q-31 51 -96 85 q-65 34 -158 34 q-136 0 -213 -91 q-77 -91 -77 -251 Z" /><glyph glyph-name="ntilde" unicode="ñ" d="M133 0 l0 1081 l195 0 l6 -131 q126 152 321 152 q346 0 346 -397 l0 -705 l-206 0 l0 707 q0 121 -50.5 173 q-50.5 52 -156.5 52 q-83 0 -147 -43.5 q-64 -43.5 -101 -116.5 l0 -772 l-207 0 ZM217 1251 q0 111 60 180.5 q60 69.5 157 69.5 q50 0 93.5 -23 q43.5 -23 86 -46 q42.5 -23 88.5 -23 q41 0 69 31 q28 31 28 78 l133 -11 q0 -110 -62 -178.5 q-62 -68.5 -155 -68.5 q-38 0 -69.5 9.5 q-31.5 9.5 -53 23.5 q-21.5 14 -42 28 q-20.5 14 -47.5 23.5 q-27 9.5 -59 9.5 q-41 0 -67.5 -31 q-26.5 -31 -26.5 -78 l-133 6 Z" /><glyph glyph-name="ograve" unicode="ò" d="M86 528 l0 25 q0 241 136 395 q136 154 360 154 q226 0 361.5 -151.5 q135.5 -151.5 135.5 -397.5 l0 -25 q0 -245 -136 -396.5 q-136 -151.5 -359 -151.5 q-227 0 -362.5 153 q-135.5 153 -135.5 395 ZM252 1536 l242 0 l192 -297 l-174 0 l-260 297 ZM293 528 q0 -100 31 -188 q32 -91 98.5 -143 q66.5 -52 161.5 -52 q137 0 213.5 106.5 q76.5 106.5 76.5 276.5 l0 25 q0 106 -32 188 q-72 195 -260 195 q-137 0 -213 -106.5 q-76 -106.5 -76 -276.5 l0 -25 Z" /><glyph glyph-name="oacute" unicode="ó" d="M86 528 l0 25 q0 241 136 395 q136 154 360 154 q226 0 361.5 -151.5 q135.5 -151.5 135.5 -397.5 l0 -25 q0 -245 -136 -396.5 q-136 -151.5 -359 -151.5 q-227 0 -362.5 153 q-135.5 153 -135.5 395 ZM293 528 q0 -100 31 -188 q32 -91 98.5 -143 q66.5 -52 161.5 -52 q137 0 213.5 106.5 q76.5 106.5 76.5 276.5 l0 25 q0 106 -32 188 q-72 195 -260 195 q-137 0 -213 -106.5 q-76 -106.5 -76 -276.5 l0 -25 ZM467 1239 l195 297 l241 0 l-270 -297 l-166 0 Z" /><glyph glyph-name="ocircumflex" unicode="ô" d="M86 528 l0 25 q0 241 136 395 q136 154 360 154 q226 0 361.5 -151.5 q135.5 -151.5 135.5 -397.5 l0 -25 q0 -245 -136 -396.5 q-136 -151.5 -359 -151.5 q-227 0 -362.5 153 q-135.5 153 -135.5 395 ZM258 1251 l0 13 l256 272 l123 0 l258 -274 l0 -11 l-168 0 l-152 164 l-149 -164 l-168 0 ZM293 528 q0 -100 31 -188 q32 -91 98.5 -143 q66.5 -52 161.5 -52 q137 0 213.5 106.5 q76.5 106.5 76.5 276.5 l0 25 q0 106 -32 188 q-72 195 -260 195 q-137 0 -213 -106.5 q-76 -106.5 -76 -276.5 l0 -25 Z" /><glyph glyph-name="otilde" unicode="õ" d="M86 528 l0 25 q0 241 136 395 q136 154 360 154 q226 0 361.5 -151.5 q135.5 -151.5 135.5 -397.5 l0 -25 q0 -245 -136 -396.5 q-136 -151.5 -359 -151.5 q-227 0 -362.5 153 q-135.5 153 -135.5 395 ZM219 1251 q0 111 60 180.5 q60 69.5 157 69.5 q50 0 94 -23 q44 -23 86.5 -46 q42.5 -23 88.5 -23 q41 0 68.5 31 q27.5 31 27.5 78 l133 -11 q0 -110 -62 -178.5 q-62 -68.5 -155 -68.5 q-38 0 -69.5 9.5 q-31.5 9.5 -53 23.5 q-21.5 14 -42 28 q-20.5 14 -47.5 23.5 q-27 9.5 -59 9.5 q-41 0 -67.5 -31 q-26.5 -31 -26.5 -78 l-133 6 ZM293 528 q0 -100 31 -188 q32 -91 98.5 -143 q66.5 -52 161.5 -52 q137 0 213.5 106.5 q76.5 106.5 76.5 276.5 l0 25 q0 106 -32 188 q-72 195 -260 195 q-137 0 -213 -106.5 q-76 -106.5 -76 -276.5 l0 -25 Z" /><glyph glyph-name="odieresis" unicode="ö" d="M86 528 l0 25 q0 241 136 395 q136 154 360 154 q226 0 361.5 -151.5 q135.5 -151.5 135.5 -397.5 l0 -25 q0 -245 -136 -396.5 q-136 -151.5 -359 -151.5 q-227 0 -362.5 153 q-135.5 153 -135.5 395 ZM242 1370 q0 49 30.5 80 q30.5 31 83.5 31 q54 0 84.5 -31 q30.5 -31 30.5 -80 q0 -46 -30.5 -77 q-30.5 -31 -84.5 -31 q-52 0 -83 31 q-31 31 -31 77 ZM293 528 q0 -100 31 -188 q32 -91 98.5 -143 q66.5 -52 161.5 -52 q137 0 213.5 106.5 q76.5 106.5 76.5 276.5 l0 25 q0 106 -32 188 q-72 195 -260 195 q-137 0 -213 -106.5 q-76 -106.5 -76 -276.5 l0 -25 ZM684 1368 q0 49 30.5 80 q30.5 31 84.5 31 q54 0 84 -31 q30 -31 30 -80 q0 -46 -30 -76 q-30 -30 -84 -30 q-54 0 -84.5 30 q-30.5 30 -30.5 76 Z" /><glyph glyph-name="divide" unicode="÷" d="M55 455 l0 184 l791 0 l0 -184 l-791 0 ZM334 201 q0 47 35 80.5 q35 33.5 84 33.5 q46 0 80 -33.5 q34 -33.5 34 -80.5 q0 -49 -34 -84 q-34 -35 -80 -35 q-49 0 -84 35 q-35 35 -35 84 ZM334 895 q0 47 35 81 q35 34 84 34 q46 0 80 -34 q34 -34 34 -81 q0 -49 -34 -84 q-34 -35 -80 -35 q-49 0 -84 35 q-35 35 -35 84 Z" /><glyph glyph-name="oslash" unicode="ø" d="M86 528 l0 25 q0 241 136 395 q136 154 360 154 q113 0 200 -37 l72 145 l131 0 l-100 -204 q93 -73 143.5 -189.5 q50.5 -116.5 50.5 -263.5 l0 -25 q0 -245 -136 -396.5 q-136 -151.5 -359 -151.5 q-101 0 -189 32 l-73 -147 l-129 0 l100 203 q-99 72 -153 191.5 q-54 119.5 -54 268.5 ZM293 528 q0 -100 31 -188 q19 -58 53 -98 l328 665 q-56 29 -123 29 q-137 0 -213 -106.5 q-76 -106.5 -76 -276.5 l0 -25 ZM471 168 q54 -23 113 -23 q137 0 213.5 106.5 q76.5 106.5 76.5 276.5 l0 25 q0 106 -32 188 q-17 47 -45 86 l-326 -659 Z" /><glyph glyph-name="ugrave" unicode="ù" d="M131 385 l0 696 l205 0 l0 -698 q0 -231 190 -231 q199 0 267 143 l0 786 l206 0 l0 -1081 l-194 0 l-6 109 q-104 -129 -312 -129 q-168 0 -262 98.5 q-94 98.5 -94 306.5 ZM246 1536 l241 0 l193 -297 l-174 0 l-260 297 Z" /><glyph glyph-name="uacute" unicode="ú" d="M131 385 l0 696 l205 0 l0 -698 q0 -231 190 -231 q199 0 267 143 l0 786 l206 0 l0 -1081 l-194 0 l-6 109 q-104 -129 -312 -129 q-168 0 -262 98.5 q-94 98.5 -94 306.5 ZM461 1239 l194 297 l242 0 l-270 -297 l-166 0 Z" /><glyph glyph-name="ucircumflex" unicode="û" d="M131 385 l0 696 l205 0 l0 -698 q0 -231 190 -231 q199 0 267 143 l0 786 l206 0 l0 -1081 l-194 0 l-6 109 q-104 -129 -312 -129 q-168 0 -262 98.5 q-94 98.5 -94 306.5 ZM250 1251 l0 13 l256 272 l123 0 l258 -274 l0 -11 l-168 0 l-152 164 l-149 -164 l-168 0 Z" /><glyph glyph-name="udieresis" unicode="ü" d="M131 385 l0 696 l205 0 l0 -698 q0 -231 190 -231 q199 0 267 143 l0 786 l206 0 l0 -1081 l-194 0 l-6 109 q-104 -129 -312 -129 q-168 0 -262 98.5 q-94 98.5 -94 306.5 ZM233 1370 q0 48 31 79.5 q31 31.5 84 31.5 q54 0 84.5 -31 q30.5 -31 30.5 -80 q0 -46 -30.5 -77 q-30.5 -31 -84.5 -31 q-52 0 -83.5 31 q-31.5 31 -31.5 77 ZM676 1368 q0 49 30.5 80 q30.5 31 84.5 31 q54 0 84 -31 q30 -31 30 -80 q0 -46 -30 -76 q-30 -30 -84 -30 q-54 0 -84.5 30 q-30.5 30 -30.5 76 Z" /><glyph glyph-name="yacute" unicode="ý" d="M18 1081 l224 0 l256 -786 l243 786 l220 0 l-435 -1247 q-17 -50 -41.5 -93 q-24.5 -43 -63 -85.5 q-38.5 -42.5 -95 -67 q-56.5 -24.5 -125.5 -24.5 q-59 0 -109 16 l-2 162 q17 0 27 -2 q10 -2 22 -2 q94 0 144.5 37 q50.5 37 81.5 129 l38 106 l-385 1071 ZM401 1239 l195 297 l242 0 l-271 -297 l-166 0 Z" /><glyph glyph-name="thorn" unicode="þ" d="M141 -416 l0 1952 l207 0 l0 -561 q112 127 297 127 q200 0 311 -147.5 q111 -147.5 111 -403.5 l0 -21 q0 -248 -111.5 -399 q-111.5 -151 -308.5 -151 q-187 0 -299 124 l0 -520 l-207 0 ZM348 289 l4 -8 q71 -136 238 -136 q131 0 201.5 106.5 q70.5 106.5 70.5 278.5 l0 21 q0 173 -70 277 q-70 104 -204 104 q-165 0 -240 -144 l0 -499 Z" /><glyph glyph-name="ydieresis" unicode="ÿ" d="M18 1081 l224 0 l256 -786 l243 786 l220 0 l-435 -1247 q-17 -50 -41.5 -93 q-24.5 -43 -63 -85.5 q-38.5 -42.5 -95 -67 q-56.5 -24.5 -125.5 -24.5 q-59 0 -109 16 l-2 162 q17 0 27 -2 q10 -2 22 -2 q94 0 144.5 37 q50.5 37 81.5 129 l38 106 l-385 1071 ZM176 1370 q0 48 31 79.5 q31 31.5 84 31.5 q54 0 84.5 -31 q30.5 -31 30.5 -80 q0 -46 -30.5 -77 q-30.5 -31 -84.5 -31 q-52 0 -83.5 31 q-31.5 31 -31.5 77 ZM618 1368 q0 49 30.5 80 q30.5 31 84.5 31 q54 0 84.5 -31 q30.5 -31 30.5 -80 q0 -46 -30.5 -76 q-30.5 -30 -84.5 -30 q-54 0 -84.5 30 q-30.5 30 -30.5 76 Z" /><glyph glyph-name="Amacron" unicode="&#x100;" d="M25 0 l553 1456 l190 0 l555 -1456 l-223 0 l-131 367 l-592 0 l-131 -367 l-221 0 ZM342 1618 l0 147 l674 0 l0 -147 l-674 0 ZM438 541 l469 0 l-233 657 l-236 -657 Z" /><glyph glyph-name="amacron" unicode="&#x101;" d="M100 301 q0 171 130 263.5 q130 92.5 360 92.5 l174 0 l0 82 q0 94 -55.5 148.5 q-55.5 54.5 -159.5 54.5 q-97 0 -158 -48.5 q-61 -48.5 -61 -115.5 l-205 0 q0 79 53 156 q57 77 154.5 122.5 q97.5 45.5 226.5 45.5 q188 0 299 -95 q111 -95 111 -270 l0 -495 q0 -144 39 -226 l0 -16 l-213 0 q-20 58 -25 113 q-126 -133 -303 -133 q-160 0 -263.5 91.5 q-103.5 91.5 -103.5 229.5 ZM244 1307 l0 147 l674 0 l0 -147 l-674 0 ZM307 326 q0 -76 51 -125 q51 -49 144 -49 q89 0 160 43 q71 43 102 106 l0 219 l-148 0 q-150 0 -229.5 -49 q-79.5 -49 -79.5 -145 Z" /><glyph glyph-name="Abreve" unicode="&#x102;" d="M25 0 l553 1456 l190 0 l555 -1456 l-223 0 l-131 367 l-592 0 l-131 -367 l-221 0 ZM367 1812 l161 0 q0 -63 36 -104 q36 -41 112 -41 q75 0 111 41 q36 41 36 104 l160 0 q0 -123 -83 -197.5 q-83 -74.5 -224 -74.5 q-141 0 -225 75 q-84 75 -84 197 ZM438 541 l469 0 l-233 657 l-236 -657 Z" /><glyph glyph-name="abreve" unicode="&#x103;" d="M100 301 q0 171 130 263.5 q130 92.5 360 92.5 l174 0 l0 82 q0 94 -55.5 148.5 q-55.5 54.5 -159.5 54.5 q-97 0 -158 -48.5 q-61 -48.5 -61 -115.5 l-205 0 q0 79 53 156 q57 77 154.5 122.5 q97.5 45.5 226.5 45.5 q188 0 299 -95 q111 -95 111 -270 l0 -495 q0 -144 39 -226 l0 -16 l-213 0 q-20 58 -25 113 q-126 -133 -303 -133 q-160 0 -263.5 91.5 q-103.5 91.5 -103.5 229.5 ZM266 1501 l162 0 q0 -63 35.5 -104 q35.5 -41 111.5 -41 q75 0 111.5 41.5 q36.5 41.5 36.5 103.5 l160 0 q0 -123 -83.5 -197.5 q-83.5 -74.5 -224.5 -74.5 q-141 0 -225 75 q-84 75 -84 197 ZM307 326 q0 -76 51 -125 q51 -49 144 -49 q89 0 160 43 q71 43 102 106 l0 219 l-148 0 q-150 0 -229.5 -49 q-79.5 -49 -79.5 -145 Z" /><glyph glyph-name="Aogonek" unicode="&#x104;" d="M25 0 l553 1456 l190 0 l555 -1456 l-47 0 q-79 -56 -123.5 -106.5 q-44.5 -50.5 -44.5 -106.5 q0 -72 76 -72 q38 0 94 25 l18 -127 q-65 -45 -161 -45 q-88 0 -143.5 50.5 q-55.5 50.5 -55.5 143.5 q0 141 160 248 l-127 357 l-592 0 l-131 -367 l-221 0 ZM438 541 l469 0 l-233 657 l-236 -657 Z" /><glyph glyph-name="aogonek" unicode="&#x105;" d="M100 301 q0 171 130 263.5 q130 92.5 360 92.5 l174 0 l0 82 q0 94 -55.5 148.5 q-55.5 54.5 -159.5 54.5 q-97 0 -158 -48.5 q-61 -48.5 -61 -115.5 l-205 0 q0 79 53 156 q57 77 154.5 122.5 q97.5 45.5 226.5 45.5 q188 0 299 -95 q111 -95 111 -270 l0 -495 q0 -144 39 -226 l0 -16 l-35 0 q-79 -56 -123.5 -106.5 q-44.5 -50.5 -44.5 -106.5 q0 -72 76 -72 q14 0 29.5 3 q15.5 3 25 6 q9.5 3 23.5 8.5 q14 5.5 18 7.5 l16 -127 q-65 -45 -162 -45 q-88 0 -143 50 q-55 50 -55 144 q0 144 160 246 q-17 46 -23 105 q-126 -133 -303 -133 q-160 0 -263.5 91.5 q-103.5 91.5 -103.5 229.5 ZM307 326 q0 -76 51 -125 q51 -49 144 -49 q89 0 160 43 q71 43 102 106 l0 219 l-148 0 q-150 0 -229.5 -49 q-79.5 -49 -79.5 -145 Z" /><glyph glyph-name="Cacute" unicode="&#x106;" d="M113 659 l0 138 q0 310 158 495 q158 185 431 185 q242 0 381.5 -131 q139.5 -131 163.5 -363 l-213 0 q-21 158 -98 239 q-77 81 -234 81 q-180 0 -277 -132.5 q-97 -132.5 -97 -371.5 l0 -140 q0 -231 91 -368 q91 -137 269 -137 q168 0 245.5 78 q77.5 78 100.5 235 l211 0 q-12 -136 -78 -250 q-142 -237 -479 -237 q-261 0 -418 185 q-157 185 -157 494 ZM573 1579 l195 297 l242 0 l-271 -297 l-166 0 Z" /><glyph glyph-name="cacute" unicode="&#x107;" d="M88 520 l0 41 q0 242 127.5 391.5 q127.5 149.5 355.5 149.5 q189 0 308.5 -108 q119.5 -108 128.5 -289 l-197 0 q-3 101 -71 166 q-68 65 -169 65 q-110 0 -168 -55 q-110 -102 -110 -320 l0 -41 q0 -92 24 -178 q57 -197 254 -197 q98 0 167.5 57.5 q69.5 57.5 72.5 145.5 l197 0 q-9 -154 -135 -261 q-126 -107 -302 -107 q-153 0 -263.5 70.5 q-110.5 70.5 -165 191.5 q-54.5 121 -54.5 278 ZM424 1239 l194 297 l242 0 l-270 -297 l-166 0 Z" /><glyph glyph-name="Cdotaccent" unicode="&#x10a;" d="M113 659 l0 138 q0 310 158 495 q158 185 431 185 q242 0 381.5 -131 q139.5 -131 163.5 -363 l-213 0 q-21 158 -98 239 q-77 81 -234 81 q-180 0 -277 -132.5 q-97 -132.5 -97 -371.5 l0 -140 q0 -231 91 -368 q91 -137 269 -137 q168 0 245.5 78 q77.5 78 100.5 235 l211 0 q-12 -136 -78 -250 q-142 -237 -479 -237 q-261 0 -418 185 q-157 185 -157 494 ZM565 1710 q0 49 31 81 q31 32 86 32 q54 0 85.5 -32 q31.5 -32 31.5 -81 q0 -46 -31.5 -77 q-31.5 -31 -85.5 -31 q-55 0 -86 31 q-31 31 -31 77 Z" /><glyph glyph-name="cdotaccent" unicode="&#x10b;" d="M88 520 l0 41 q0 242 127.5 391.5 q127.5 149.5 355.5 149.5 q189 0 308.5 -108 q119.5 -108 128.5 -289 l-197 0 q-3 101 -71 166 q-68 65 -169 65 q-110 0 -168 -55 q-110 -102 -110 -320 l0 -41 q0 -92 24 -178 q57 -197 254 -197 q98 0 167.5 57.5 q69.5 57.5 72.5 145.5 l197 0 q-9 -154 -135 -261 q-126 -107 -302 -107 q-153 0 -263.5 70.5 q-110.5 70.5 -165 191.5 q-54.5 121 -54.5 278 ZM416 1370 q0 49 30.5 81 q30.5 32 85.5 32 q54 0 85.5 -32 q31.5 -32 31.5 -81 q0 -46 -31.5 -77 q-31.5 -31 -85.5 -31 q-55 0 -85.5 31 q-30.5 31 -30.5 77 Z" /><glyph glyph-name="Ccaron" unicode="&#x10c;" d="M113 659 l0 138 q0 310 158 495 q158 185 431 185 q242 0 381.5 -131 q139.5 -131 163.5 -363 l-213 0 q-21 158 -98 239 q-77 81 -234 81 q-180 0 -277 -132.5 q-97 -132.5 -97 -371.5 l0 -140 q0 -231 91 -368 q91 -137 269 -137 q168 0 245.5 78 q77.5 78 100.5 235 l211 0 q-12 -136 -78 -250 q-142 -237 -479 -237 q-261 0 -418 185 q-157 185 -157 494 ZM356 1866 l0 10 l172 0 l152 -166 l149 166 l179 0 l0 -10 l-265 -277 l-127 0 l-260 277 Z" /><glyph glyph-name="ccaron" unicode="&#x10d;" d="M88 520 l0 41 q0 242 127.5 391.5 q127.5 149.5 355.5 149.5 q189 0 308.5 -108 q119.5 -108 128.5 -289 l-197 0 q-3 101 -71 166 q-68 65 -169 65 q-110 0 -168 -55 q-110 -102 -110 -320 l0 -41 q0 -92 24 -178 q57 -197 254 -197 q98 0 167.5 57.5 q69.5 57.5 72.5 145.5 l197 0 q-9 -154 -135 -261 q-126 -107 -302 -107 q-153 0 -263.5 70.5 q-110.5 70.5 -165 191.5 q-54.5 121 -54.5 278 ZM209 1526 l0 10 l172 0 l151 -166 l150 166 l178 0 l0 -10 l-264 -277 l-127 0 l-260 277 Z" /><glyph glyph-name="Dcaron" unicode="&#x10e;" d="M162 0 l0 1456 l420 0 q292 0 468.5 -186 q176.5 -186 176.5 -502 l0 -82 q0 -317 -178 -501.5 q-178 -184.5 -484 -184.5 l-403 0 ZM268 1845 l0 10 l172 0 l152 -165 l149 165 l179 0 l0 -10 l-265 -276 l-127 0 l-260 276 ZM375 172 l190 0 q218 0 333.5 133 q115.5 133 115.5 381 l0 84 q0 247 -113 379.5 q-113 132.5 -319 132.5 l-207 0 l0 -1110 Z" /><glyph glyph-name="dcaron" unicode="&#x10f;" d="M88 528 l0 23 q0 246 115 398.5 q115 152.5 313 152.5 q183 0 293 -125 l0 559 l207 0 l0 -1536 l-189 0 l-10 117 q-112 -137 -303 -137 q-190 0 -308 154.5 q-118 154.5 -118 393.5 ZM295 528 q0 -96 29 -188 q29 -89 89.5 -138.5 q60.5 -49.5 151.5 -49.5 q167 0 244 147 l0 487 q-78 146 -242 146 q-132 0 -202 -105 q-70 -105 -70 -276 l0 -23 ZM1083 1206 q74 115 74 250 l0 82 l182 0 l0 -78 q0 -87 -38 -177.5 q-38 -90.5 -107 -149.5 l-111 73 Z" /><glyph glyph-name="Dcroat" unicode="&#x110;" d="M33 662 l0 155 l157 0 l0 639 l420 0 q294 0 470.5 -186 q176.5 -186 176.5 -502 l0 -82 q0 -316 -179 -501 q-179 -185 -482 -185 l-406 0 l0 662 l-157 0 ZM406 172 l190 0 q215 0 331.5 133.5 q116.5 133.5 116.5 380.5 l0 84 q0 246 -112.5 379 q-112.5 133 -321.5 133 l-204 0 l0 -465 l276 0 l0 -155 l-276 0 l0 -490 Z" /><glyph glyph-name="dcroat" unicode="&#x111;" d="M88 528 l0 23 q0 246 115 398.5 q115 152.5 313 152.5 q183 0 293 -125 l0 254 l-262 0 l0 158 l262 0 l0 147 l207 0 l0 -147 l180 0 l0 -158 l-180 0 l0 -1231 l-189 0 l-10 117 q-112 -137 -303 -137 q-190 0 -308 154.5 q-118 154.5 -118 393.5 ZM295 528 q0 -96 29 -188 q29 -89 89.5 -138.5 q60.5 -49.5 151.5 -49.5 q167 0 244 147 l0 487 q-78 146 -242 146 q-132 0 -202 -105 q-70 -105 -70 -276 l0 -23 Z" /><glyph glyph-name="Emacron" unicode="&#x112;" d="M162 0 l0 1456 l925 0 l0 -174 l-712 0 l0 -446 l620 0 l0 -170 l-620 0 l0 -494 l723 0 l0 -172 l-936 0 ZM289 1628 l0 148 l674 0 l0 -148 l-674 0 Z" /><glyph glyph-name="emacron" unicode="&#x113;" d="M88 504 l0 41 q0 172 68 299 q65 123 173.5 190.5 q108.5 67.5 237.5 67.5 q222 0 337.5 -141.5 q115.5 -141.5 115.5 -389.5 l0 -90 l-725 0 q6 -150 90.5 -243 q84.5 -93 218.5 -93 q174 0 283 144 l117 -103 q-58 -89 -160.5 -147.5 q-102.5 -58.5 -249.5 -58.5 q-228 0 -367 146 q-139 146 -139 378 ZM229 1307 l0 147 l674 0 l0 -147 l-674 0 ZM301 641 l514 0 l0 14 q-3 61 -27 136 q-56 145 -221 145 q-106 0 -176.5 -77 q-70.5 -77 -89.5 -218 Z" /><glyph glyph-name="Edotaccent" unicode="&#x116;" d="M162 0 l0 1456 l925 0 l0 -174 l-712 0 l0 -446 l620 0 l0 -170 l-620 0 l0 -494 l723 0 l0 -172 l-936 0 ZM506 1692 q0 49 31 80.5 q31 31.5 86 31.5 q54 0 85 -31.5 q31 -31.5 31 -80.5 q0 -46 -31 -77.5 q-31 -31.5 -85 -31.5 q-55 0 -86 31.5 q-31 31.5 -31 77.5 Z" /><glyph glyph-name="edotaccent" unicode="&#x117;" d="M88 504 l0 41 q0 172 68 299 q65 123 173.5 190.5 q108.5 67.5 237.5 67.5 q222 0 337.5 -141.5 q115.5 -141.5 115.5 -389.5 l0 -90 l-725 0 q6 -150 90.5 -243 q84.5 -93 218.5 -93 q174 0 283 144 l117 -103 q-58 -89 -160.5 -147.5 q-102.5 -58.5 -249.5 -58.5 q-228 0 -367 146 q-139 146 -139 378 ZM301 641 l514 0 l0 14 q-3 61 -27 136 q-56 145 -221 145 q-106 0 -176.5 -77 q-70.5 -77 -89.5 -218 ZM444 1370 q0 49 31 81 q31 32 86 32 q54 0 85.5 -32 q31.5 -32 31.5 -81 q0 -46 -31.5 -77 q-31.5 -31 -85.5 -31 q-55 0 -86 31 q-31 31 -31 77 Z" /><glyph glyph-name="Eogonek" unicode="&#x118;" d="M162 0 l0 1456 l925 0 l0 -174 l-712 0 l0 -446 l620 0 l0 -170 l-620 0 l0 -494 l723 0 l0 -172 l-90 0 q-79 -56 -122.5 -106.5 q-43.5 -50.5 -43.5 -106.5 q0 -72 73 -72 q41 0 97 25 l18 -127 q-65 -45 -162 -45 q-88 0 -143 50 q-55 50 -55 144 q0 136 145 238 l-653 0 Z" /><glyph glyph-name="eogonek" unicode="&#x119;" d="M88 504 l0 41 q0 172 68 299 q65 123 173.5 190.5 q108.5 67.5 237.5 67.5 q222 0 337.5 -141.5 q115.5 -141.5 115.5 -389.5 l0 -90 l-725 0 q6 -150 90.5 -243 q84.5 -93 218.5 -93 q174 0 283 144 l117 -103 q-71 -107 -183 -159 q-80 -57 -124 -107 q-44 -50 -44 -106 q0 -72 76 -72 q47 0 96 27 l17 -129 q-66 -46 -160 -46 q-88 0 -144.5 52 q-56.5 52 -56.5 143 q0 104 90 191 q-219 7 -351 152.5 q-132 145.5 -132 371.5 ZM301 641 l514 0 l0 14 q-3 61 -27 136 q-56 145 -221 145 q-106 0 -176.5 -77 q-70.5 -77 -89.5 -218 Z" /><glyph glyph-name="Ecaron" unicode="&#x11a;" d="M162 0 l0 1456 l925 0 l0 -174 l-712 0 l0 -446 l620 0 l0 -170 l-620 0 l0 -494 l723 0 l0 -172 l-936 0 ZM299 1845 l0 10 l172 0 l152 -165 l149 165 l178 0 l0 -10 l-264 -276 l-127 0 l-260 276 Z" /><glyph glyph-name="ecaron" unicode="&#x11b;" d="M88 504 l0 41 q0 172 68 299 q65 123 173.5 190.5 q108.5 67.5 237.5 67.5 q222 0 337.5 -141.5 q115.5 -141.5 115.5 -389.5 l0 -90 l-725 0 q6 -150 90.5 -243 q84.5 -93 218.5 -93 q174 0 283 144 l117 -103 q-58 -89 -160.5 -147.5 q-102.5 -58.5 -249.5 -58.5 q-228 0 -367 146 q-139 146 -139 378 ZM236 1526 l0 10 l172 0 l151 -166 l150 166 l178 0 l0 -10 l-264 -277 l-127 0 l-260 277 ZM301 641 l514 0 l0 14 q-3 61 -27 136 q-56 145 -221 145 q-106 0 -176.5 -77 q-70.5 -77 -89.5 -218 Z" /><glyph glyph-name="Gbreve" unicode="&#x11e;" d="M117 674 l0 108 q0 330 156 512.5 q156 182.5 434 182.5 q108 0 196.5 -25 q88.5 -25 148 -67.5 q59.5 -42.5 102.5 -101.5 q43 -59 65.5 -122.5 q22.5 -63.5 31.5 -136.5 l-211 0 q-45 279 -331 279 q-187 0 -282 -132 q-95 -132 -95 -387 l0 -110 q0 -246 108.5 -384 q108.5 -138 292.5 -138 q215 0 307 100 l0 313 l-325 0 l0 166 l538 0 l0 -541 q-25 -38 -90 -90 q-149 -120 -434 -120 q-182 0 -317 81 q-141 83 -218 239.5 q-77 156.5 -77 373.5 ZM369 1841 l161 0 q0 -63 36 -104 q36 -41 112 -41 q75 0 111 41 q36 41 36 104 l160 0 q0 -123 -83 -197.5 q-83 -74.5 -224 -74.5 q-141 0 -225 75 q-84 75 -84 197 Z" /><glyph glyph-name="gbreve" unicode="&#x11f;" d="M92 528 l0 23 q0 247 114 399 q114 152 314 152 q196 0 303 -135 l11 114 l186 0 l0 -1054 q0 -212 -127 -332.5 q-127 -120.5 -344 -120.5 q-108 0 -221.5 46 q-113.5 46 -180.5 138 l105 121 q114 -141 283 -141 q131 0 204.5 72.5 q73.5 72.5 73.5 207.5 l0 86 q-112 -124 -295 -124 q-192 0 -309 154 q-117 154 -117 394 ZM248 1501 l162 0 q0 -63 35.5 -104 q35.5 -41 111.5 -41 q75 0 111.5 41.5 q36.5 41.5 36.5 103.5 l159 0 q0 -123 -83 -197.5 q-83 -74.5 -224 -74.5 q-141 0 -225 75 q-84 75 -84 197 ZM297 528 q0 -171 68.5 -273.5 q68.5 -102.5 203.5 -102.5 q167 0 244 147 l0 492 q-77 141 -242 141 q-133 0 -203.5 -105 q-70.5 -105 -70.5 -276 l0 -23 Z" /><glyph glyph-name="Gdotaccent" unicode="&#x120;" d="M117 674 l0 108 q0 330 156 512.5 q156 182.5 434 182.5 q108 0 196.5 -25 q88.5 -25 148 -67.5 q59.5 -42.5 102.5 -101.5 q43 -59 65.5 -122.5 q22.5 -63.5 31.5 -136.5 l-211 0 q-45 279 -331 279 q-187 0 -282 -132 q-95 -132 -95 -387 l0 -110 q0 -246 108.5 -384 q108.5 -138 292.5 -138 q215 0 307 100 l0 313 l-325 0 l0 166 l538 0 l0 -541 q-25 -38 -90 -90 q-149 -120 -434 -120 q-182 0 -317 81 q-141 83 -218 239.5 q-77 156.5 -77 373.5 ZM561 1710 q0 49 31 81 q31 32 86 32 q54 0 85.5 -32 q31.5 -32 31.5 -81 q0 -46 -31.5 -77 q-31.5 -31 -85.5 -31 q-55 0 -86 31 q-31 31 -31 77 Z" /><glyph glyph-name="gdotaccent" unicode="&#x121;" d="M92 528 l0 23 q0 247 114 399 q114 152 314 152 q196 0 303 -135 l11 114 l186 0 l0 -1054 q0 -212 -127 -332.5 q-127 -120.5 -344 -120.5 q-108 0 -221.5 46 q-113.5 46 -180.5 138 l105 121 q114 -141 283 -141 q131 0 204.5 72.5 q73.5 72.5 73.5 207.5 l0 86 q-112 -124 -295 -124 q-192 0 -309 154 q-117 154 -117 394 ZM297 528 q0 -171 68.5 -273.5 q68.5 -102.5 203.5 -102.5 q167 0 244 147 l0 492 q-77 141 -242 141 q-133 0 -203.5 -105 q-70.5 -105 -70.5 -276 l0 -23 ZM438 1370 q0 49 31 81 q31 32 86 32 q54 0 85.5 -32 q31.5 -32 31.5 -81 q0 -46 -31.5 -77 q-31.5 -31 -85.5 -31 q-55 0 -86 31 q-31 31 -31 77 Z" /><glyph glyph-name="uni0122" unicode="&#x122;" d="M117 674 l0 108 q0 330 156 512.5 q156 182.5 434 182.5 q108 0 196.5 -25 q88.5 -25 148 -67.5 q59.5 -42.5 102.5 -101.5 q43 -59 65.5 -122.5 q22.5 -63.5 31.5 -136.5 l-211 0 q-45 279 -331 279 q-187 0 -282 -132 q-95 -132 -95 -387 l0 -110 q0 -246 108.5 -384 q108.5 -138 292.5 -138 q215 0 307 100 l0 313 l-325 0 l0 166 l538 0 l0 -541 q-25 -38 -90 -90 q-149 -120 -434 -120 q-182 0 -317 81 q-141 83 -218 239.5 q-77 156.5 -77 373.5 ZM563 -451 q74 115 74 250 l0 82 l182 0 l0 -78 q0 -87 -38 -177.5 q-38 -90.5 -107 -149.5 l-111 73 Z" /><glyph glyph-name="uni0123" unicode="&#x123;" d="M92 528 l0 23 q0 247 114 399 q114 152 314 152 q196 0 303 -135 l11 114 l186 0 l0 -1054 q0 -212 -127 -332.5 q-127 -120.5 -344 -120.5 q-108 0 -221.5 46 q-113.5 46 -180.5 138 l105 121 q114 -141 283 -141 q131 0 204.5 72.5 q73.5 72.5 73.5 207.5 l0 86 q-112 -124 -295 -124 q-192 0 -309 154 q-117 154 -117 394 ZM297 528 q0 -171 68.5 -273.5 q68.5 -102.5 203.5 -102.5 q167 0 244 147 l0 492 q-77 141 -242 141 q-133 0 -203.5 -105 q-70.5 -105 -70.5 -276 l0 -23 ZM455 1255 l0 129 q0 89 38 171 q38 82 103 135 l115 -82 q-64 -113 -64 -232 l0 -121 l-192 0 Z" /><glyph glyph-name="Hbar" unicode="&#x126;" d="M31 1028 l0 150 l129 0 l0 278 l213 0 l0 -278 l704 0 l0 278 l215 0 l0 -278 l131 0 l0 -150 l-131 0 l0 -1028 l-215 0 l0 664 l-704 0 l0 -664 l-213 0 l0 1028 l-129 0 ZM373 836 l704 0 l0 192 l-704 0 l0 -192 Z" /><glyph glyph-name="hbar" unicode="&#x127;" d="M-2 1231 l0 155 l166 0 l0 150 l205 0 l0 -150 l276 0 l0 -155 l-276 0 l0 -277 q123 148 313 148 q350 0 350 -397 l0 -705 l-207 0 l0 707 q0 119 -52 172 q-52 53 -157 53 q-82 0 -145.5 -43 q-63.5 -43 -101.5 -117 l0 -772 l-205 0 l0 1231 l-166 0 Z" /><glyph glyph-name="Imacron" unicode="&#x12a;" d="M-49 1628 l0 148 l674 0 l0 -148 l-674 0 ZM176 0 l0 1456 l213 0 l0 -1456 l-213 0 Z" /><glyph glyph-name="imacron" unicode="&#x12b;" d="M-76 1303 l0 147 l674 0 l0 -147 l-674 0 ZM152 0 l0 1081 l204 0 l0 -1081 l-204 0 Z" /><glyph glyph-name="Iogonek" unicode="&#x12e;" d="M23 -229 q0 137 153 241 l0 1444 l213 0 l0 -1456 l-41 0 q-73 -54 -114 -103 q-41 -49 -41 -102 q0 -71 77 -71 q41 0 95 24 l18 -127 q-65 -45 -162 -45 q-88 0 -143 50.5 q-55 50.5 -55 144.5 Z" /><glyph glyph-name="iogonek" unicode="&#x12f;" d="M-4 -238 q0 137 154 242 l0 1077 l206 0 l0 -1081 l-22 0 q-80 -57 -124 -107 q-44 -50 -44 -106 q0 -72 78 -72 q38 0 94 25 l18 -127 q-65 -45 -161 -45 q-88 0 -143.5 50.5 q-55.5 50.5 -55.5 143.5 ZM135 1368 q0 51 31.5 83 q31.5 32 89.5 32 q54 0 86.5 -32.5 q32.5 -32.5 32.5 -82.5 q0 -49 -32.5 -81 q-32.5 -32 -86.5 -32 q-58 0 -89.5 32 q-31.5 32 -31.5 81 Z" /><glyph glyph-name="Idotaccent" unicode="&#x130;" d="M166 1692 q0 49 31 80.5 q31 31.5 86 31.5 q54 0 85 -31.5 q31 -31.5 31 -80.5 q0 -46 -31 -77.5 q-31 -31.5 -85 -31.5 q-55 0 -86 31.5 q-31 31.5 -31 77.5 ZM176 0 l0 1456 l213 0 l0 -1456 l-213 0 Z" /><glyph glyph-name="dotlessi" unicode="&#x131;" d="M152 0 l0 1081 l204 0 l0 -1081 l-204 0 Z" /><glyph glyph-name="IJ" unicode="&#x132;" d="M176 0 l0 1456 l213 0 l0 -1456 l-213 0 ZM616 408 l213 0 q0 -130 67 -193 q67 -63 185 -63 q114 0 183 73.5 q69 73.5 69 202.5 l0 1028 l213 0 l0 -1028 q0 -209 -128 -328.5 q-128 -119.5 -337 -119.5 q-218 0 -341.5 109.5 q-123.5 109.5 -123.5 318.5 Z" /><glyph glyph-name="ij" unicode="&#x133;" d="M135 1368 q0 51 31.5 83 q31.5 32 89.5 32 q54 0 86.5 -32.5 q32.5 -32.5 32.5 -82.5 q0 -49 -32.5 -81 q-32.5 -32 -86.5 -32 q-58 0 -89.5 32 q-31.5 32 -31.5 81 ZM150 0 l0 1081 l206 0 l0 -1081 l-206 0 ZM434 -420 l2 164 q45 -10 86 -10 q65 0 97 35.5 q32 35.5 32 113.5 l0 1198 l205 0 l0 -1198 q0 -156 -76 -237.5 q-76 -81.5 -225 -81.5 q-51 0 -121 16 ZM631 1368 q0 51 31.5 83 q31.5 32 87.5 32 q56 0 88 -32 q32 -32 32 -83 q0 -49 -32.5 -81 q-32.5 -32 -87.5 -32 q-55 0 -87 32 q-32 32 -32 81 Z" /><glyph glyph-name="uni0136" unicode="&#x136;" d="M162 0 l0 1456 l213 0 l0 -708 l618 708 l260 0 l-561 -643 l598 -813 l-254 0 l-487 659 l-174 -182 l0 -477 l-213 0 ZM494 -356 q73 113 73 250 l0 81 l183 0 l0 -77 q0 -86 -38.5 -177.5 q-38.5 -91.5 -107.5 -150.5 l-110 74 Z" /><glyph glyph-name="uni0137" unicode="&#x137;" d="M135 0 l0 1536 l207 0 l0 -913 l90 108 l326 350 l248 0 l-416 -450 l463 -631 l-242 0 l-356 489 l-113 -116 l0 -373 l-207 0 ZM371 -377 q73 113 73 250 l0 82 l183 0 l0 -78 q0 -86 -38.5 -177.5 q-38.5 -91.5 -107.5 -150.5 l-110 74 Z" /><glyph glyph-name="Lacute" unicode="&#x139;" d="M160 1546 l194 297 l242 0 l-270 -297 l-166 0 ZM162 0 l0 1456 l213 0 l0 -1284 l680 0 l0 -172 l-893 0 Z" /><glyph glyph-name="lacute" unicode="&#x13a;" d="M145 1642 l195 297 l242 0 l-271 -297 l-166 0 ZM150 0 l0 1536 l206 0 l0 -1536 l-206 0 Z" /><glyph glyph-name="uni013B" unicode="&#x13b;" d="M162 0 l0 1456 l213 0 l0 -1284 l680 0 l0 -172 l-893 0 ZM451 -432 q73 113 73 250 l0 82 l183 0 l0 -78 q0 -86 -38.5 -177.5 q-38.5 -91.5 -107.5 -150.5 l-110 74 Z" /><glyph glyph-name="uni013C" unicode="&#x13c;" d="M88 -432 q74 115 74 250 l0 82 l182 0 l0 -78 q0 -87 -38 -178 q-38 -91 -107 -150 l-111 74 ZM150 0 l0 1536 l206 0 l0 -1536 l-206 0 Z" /><glyph glyph-name="Lcaron" unicode="&#x13d;" d="M162 0 l0 1456 l213 0 l0 -1284 l680 0 l0 -172 l-893 0 ZM575 1126 q74 115 74 250 l0 82 l182 0 l0 -78 q0 -87 -38 -177.5 q-38 -90.5 -107 -149.5 l-111 73 Z" /><glyph glyph-name="lcaron" unicode="&#x13e;" d="M150 0 l0 1536 l206 0 l0 -1536 l-206 0 ZM449 1206 q73 113 73 250 l0 82 l183 0 l0 -78 q0 -86 -38.5 -177 q-38.5 -91 -107.5 -150 l-110 73 Z" /><glyph glyph-name="Lslash" unicode="&#x141;" d="M35 614 l0 131 l133 41 l0 670 l213 0 l0 -602 l254 80 l0 -133 l-254 -80 l0 -549 l680 0 l0 -172 l-893 0 l0 655 l-133 -41 Z" /><glyph glyph-name="lslash" unicode="&#x142;" d="M35 618 l0 130 l141 53 l0 735 l205 0 l0 -659 l156 59 l0 -131 l-156 -57 l0 -748 l-205 0 l0 672 l-141 -54 Z" /><glyph glyph-name="Nacute" unicode="&#x143;" d="M162 0 l0 1456 l213 0 l706 -1098 l0 1098 l213 0 l0 -1456 l-215 0 l-704 1094 l0 -1094 l-213 0 ZM616 1550 l195 297 l242 0 l-271 -297 l-166 0 Z" /><glyph glyph-name="nacute" unicode="&#x144;" d="M133 0 l0 1081 l195 0 l6 -131 q126 152 321 152 q346 0 346 -397 l0 -705 l-206 0 l0 707 q0 121 -50.5 173 q-50.5 52 -156.5 52 q-83 0 -147 -43.5 q-64 -43.5 -101 -116.5 l0 -772 l-207 0 ZM465 1239 l194 297 l242 0 l-270 -297 l-166 0 Z" /><glyph glyph-name="uni0145" unicode="&#x145;" d="M162 0 l0 1456 l213 0 l706 -1098 l0 1098 l213 0 l0 -1456 l-215 0 l-704 1094 l0 -1094 l-213 0 ZM555 -432 q74 115 74 250 l0 82 l182 0 l0 -78 q0 -87 -38 -178 q-38 -91 -107 -150 l-111 74 Z" /><glyph glyph-name="uni0146" unicode="&#x146;" d="M133 0 l0 1081 l195 0 l6 -131 q126 152 321 152 q346 0 346 -397 l0 -705 l-206 0 l0 707 q0 121 -50.5 173 q-50.5 52 -156.5 52 q-83 0 -147 -43.5 q-64 -43.5 -101 -116.5 l0 -772 l-207 0 ZM399 -432 q74 115 74 250 l0 82 l182 0 l0 -78 q0 -87 -38 -178 q-38 -91 -107 -150 l-111 74 Z" /><glyph glyph-name="Ncaron" unicode="&#x147;" d="M162 0 l0 1456 l213 0 l706 -1098 l0 1098 l213 0 l0 -1456 l-215 0 l-704 1094 l0 -1094 l-213 0 ZM401 1837 l0 10 l172 0 l152 -166 l149 166 l179 0 l0 -10 l-265 -276 l-126 0 l-261 276 Z" /><glyph glyph-name="ncaron" unicode="&#x148;" d="M133 0 l0 1081 l195 0 l6 -131 q126 152 321 152 q346 0 346 -397 l0 -705 l-206 0 l0 707 q0 121 -50.5 173 q-50.5 52 -156.5 52 q-83 0 -147 -43.5 q-64 -43.5 -101 -116.5 l0 -772 l-207 0 ZM250 1526 l0 10 l172 0 l151 -166 l150 166 l178 0 l0 -10 l-264 -277 l-127 0 l-260 277 Z" /><glyph glyph-name="Eng" unicode="&#x14a;" d="M156 0 l0 1456 l213 0 l692 -1104 l0 1104 l215 0 l0 -1530 q0 -175 -90 -268.5 q-90 -93.5 -250 -93.5 q-74 0 -123 16 l14 168 q50 -12 99 -12 q63 0 99 50 q36 50 36 140 l0 74 l-692 1104 l0 -1104 l-213 0 Z" /><glyph glyph-name="eng" unicode="&#x14b;" d="M139 0 l0 1081 l187 0 l12 -149 q112 170 315 170 q113 0 195 -43 q168 -90 168 -381 l0 -758 q0 -172 -87.5 -264 q-87.5 -92 -246.5 -92 q-72 0 -121 16 l14 170 q37 -12 101 -12 q64 0 99.5 46.5 q35.5 46.5 35.5 135.5 l0 756 q0 137 -54 196.5 q-54 59.5 -167 59.5 q-167 0 -246 -123 l0 -809 l-205 0 Z" /><glyph glyph-name="Omacron" unicode="&#x14c;" d="M113 684 l0 88 q0 322 162.5 513.5 q162.5 191.5 429.5 191.5 q268 0 429.5 -188 q161.5 -188 161.5 -517 l0 -88 q0 -327 -159.5 -515.5 q-159.5 -188.5 -429.5 -188.5 q-266 0 -430 191.5 q-164 191.5 -164 512.5 ZM326 684 q0 -253 103.5 -389.5 q103.5 -136.5 277.5 -136.5 q181 0 278.5 135.5 q97.5 135.5 97.5 390.5 l0 90 q0 172 -45 285 q-90 237 -333 237 q-175 0 -277 -136.5 q-102 -136.5 -102 -385.5 l0 -90 ZM373 1620 l0 147 l674 0 l0 -147 l-674 0 Z" /><glyph glyph-name="omacron" unicode="&#x14d;" d="M86 528 l0 25 q0 241 136 395 q136 154 360 154 q226 0 361.5 -151.5 q135.5 -151.5 135.5 -397.5 l0 -25 q0 -245 -136 -396.5 q-136 -151.5 -359 -151.5 q-227 0 -362.5 153 q-135.5 153 -135.5 395 ZM242 1307 l0 147 l673 0 l0 -147 l-673 0 ZM293 528 q0 -100 31 -188 q32 -91 98.5 -143 q66.5 -52 161.5 -52 q137 0 213.5 106.5 q76.5 106.5 76.5 276.5 l0 25 q0 106 -32 188 q-72 195 -260 195 q-137 0 -213 -106.5 q-76 -106.5 -76 -276.5 l0 -25 Z" /><glyph glyph-name="Ohungarumlaut" unicode="&#x150;" d="M113 684 l0 88 q0 322 162.5 513.5 q162.5 191.5 429.5 191.5 q268 0 429.5 -188 q161.5 -188 161.5 -517 l0 -88 q0 -327 -159.5 -515.5 q-159.5 -188.5 -429.5 -188.5 q-266 0 -430 191.5 q-164 191.5 -164 512.5 ZM326 684 q0 -253 103.5 -389.5 q103.5 -136.5 277.5 -136.5 q181 0 278.5 135.5 q97.5 135.5 97.5 390.5 l0 90 q0 172 -45 285 q-90 237 -333 237 q-175 0 -277 -136.5 q-102 -136.5 -102 -385.5 l0 -90 ZM446 1546 l175 303 l206 0 l-219 -303 l-162 0 ZM741 1546 l228 303 l217 0 l-268 -303 l-177 0 Z" /><glyph glyph-name="ohungarumlaut" unicode="&#x151;" d="M86 528 l0 25 q0 241 136 395 q136 154 360 154 q226 0 361.5 -151.5 q135.5 -151.5 135.5 -397.5 l0 -25 q0 -245 -136 -396.5 q-136 -151.5 -359 -151.5 q-227 0 -362.5 153 q-135.5 153 -135.5 395 ZM293 528 q0 -100 31 -188 q32 -91 98.5 -143 q66.5 -52 161.5 -52 q137 0 213.5 106.5 q76.5 106.5 76.5 276.5 l0 25 q0 106 -32 188 q-72 195 -260 195 q-137 0 -213 -106.5 q-76 -106.5 -76 -276.5 l0 -25 ZM315 1233 l174 303 l207 0 l-219 -303 l-162 0 ZM610 1233 l228 303 l217 0 l-269 -303 l-176 0 Z" /><glyph glyph-name="OE" unicode="&#x152;" d="M102 575 l0 306 q0 266 156.5 431 q156.5 165 409.5 165 q108 0 293 -21 l847 0 l0 -174 l-712 0 l0 -446 l618 0 l0 -170 l-618 0 l0 -494 l721 0 l0 -172 l-856 0 l-140 -12 q-65 -8 -151 -8 q-254 0 -411 164 q-157 164 -157 431 ZM309 575 q0 -208 96 -319 q96 -111 265 -111 q112 0 211 15 l0 1136 q-124 15 -213 15 q-168 0 -263.5 -111 q-95.5 -111 -95.5 -317 l0 -308 Z" /><glyph glyph-name="oe" unicode="&#x153;" d="M94 528 l0 25 q0 159 58 283 q58 124 170 195 q112 71 260 71 q129 0 230 -52 q101 -52 163 -147 q65 95 161 147.5 q96 52.5 207 51.5 q215 0 330 -129 q115 -129 115 -355 l0 -129 l-705 0 q8 -161 85.5 -252.5 q77.5 -91.5 207.5 -91.5 q180 0 310 103 l73 -137 q-141 -131 -389 -131 q-127 0 -229 51 q-102 51 -168 145 q-134 -196 -389 -196 q-223 0 -356.5 151 q-133.5 151 -133.5 397 ZM299 528 q0 -171 74.5 -277 q74.5 -106 210.5 -106 q137 0 209.5 105.5 q72.5 105.5 72.5 277.5 l0 25 q0 171 -73 277 q-73 106 -211 106 q-135 0 -209 -106.5 q-74 -106.5 -74 -276.5 l0 -25 ZM1090 649 l493 0 l0 27 q0 117 -61.5 188.5 q-61.5 71.5 -178.5 71.5 q-97 0 -165.5 -78.5 q-68.5 -78.5 -87.5 -208.5 Z" /><glyph glyph-name="Racute" unicode="&#x154;" d="M162 0 l0 1456 l493 0 q249 0 382.5 -113 q133.5 -113 133.5 -323 q0 -141 -72 -240 q-72 -99 -202 -153 l338 -615 l0 -12 l-229 0 l-310 580 l-321 0 l0 -580 l-213 0 ZM375 752 l287 0 q144 0 220 75 q76 75 76 187 q0 127 -74.5 197.5 q-74.5 70.5 -228.5 70.5 l-280 0 l0 -530 ZM500 1550 l194 297 l242 0 l-270 -297 l-166 0 Z" /><glyph glyph-name="racute" unicode="&#x155;" d="M135 0 l0 1081 l199 0 l4 -123 q88 144 256 144 q56 0 82 -15 l-2 -190 q-41 8 -92 8 q-89 0 -150.5 -38.5 q-61.5 -38.5 -91.5 -108.5 l0 -758 l-205 0 ZM299 1239 l195 297 l241 0 l-270 -297 l-166 0 Z" /><glyph glyph-name="uni0156" unicode="&#x156;" d="M162 0 l0 1456 l493 0 q249 0 382.5 -113 q133.5 -113 133.5 -323 q0 -141 -72 -240 q-72 -99 -202 -153 l338 -615 l0 -12 l-229 0 l-310 580 l-321 0 l0 -580 l-213 0 ZM375 752 l287 0 q144 0 220 75 q76 75 76 187 q0 127 -74.5 197.5 q-74.5 70.5 -228.5 70.5 l-280 0 l0 -530 ZM446 -432 q74 115 74 250 l0 82 l182 0 l0 -78 q0 -87 -38 -178 q-38 -91 -107 -150 l-111 74 Z" /><glyph glyph-name="uni0157" unicode="&#x157;" d="M84 -430 q74 115 74 250 l0 82 l182 0 l0 -78 q0 -87 -38 -178 q-38 -91 -107 -150 l-111 74 ZM135 0 l0 1081 l199 0 l4 -123 q88 144 256 144 q56 0 82 -15 l-2 -190 q-41 8 -92 8 q-89 0 -150.5 -38.5 q-61.5 -38.5 -91.5 -108.5 l0 -758 l-205 0 Z" /><glyph glyph-name="Rcaron" unicode="&#x158;" d="M162 0 l0 1456 l493 0 q249 0 382.5 -113 q133.5 -113 133.5 -323 q0 -141 -72 -240 q-72 -99 -202 -153 l338 -615 l0 -12 l-229 0 l-310 580 l-321 0 l0 -580 l-213 0 ZM283 1837 l0 10 l172 0 l151 -166 l150 166 l178 0 l0 -10 l-264 -276 l-127 0 l-260 276 ZM375 752 l287 0 q144 0 220 75 q76 75 76 187 q0 127 -74.5 197.5 q-74.5 70.5 -228.5 70.5 l-280 0 l0 -530 Z" /><glyph glyph-name="rcaron" unicode="&#x159;" d="M84 1526 l0 10 l172 0 l152 -166 l149 166 l178 0 l0 -10 l-264 -277 l-127 0 l-260 277 ZM135 0 l0 1081 l199 0 l4 -123 q88 144 256 144 q56 0 82 -15 l-2 -190 q-41 8 -92 8 q-89 0 -150.5 -38.5 q-61.5 -38.5 -91.5 -108.5 l0 -758 l-205 0 Z" /><glyph glyph-name="Sacute" unicode="&#x15a;" d="M80 428 l213 0 q0 -71 26.5 -125 q26.5 -54 74.5 -86.5 q48 -32.5 109 -48.5 q61 -16 134 -16 q144 0 220.5 58 q76.5 58 76.5 161 q0 102 -71.5 158.5 q-71.5 56.5 -262.5 113.5 q-147 45 -248 100 q-227 121 -227 334 q0 174 141 287 q141 113 363 113 q162 0 280 -62 q114 -61 175 -161 q61 -100 61 -220 l-213 0 q0 117 -74.5 194 q-74.5 77 -230.5 77 q-138 0 -213.5 -62 q-75.5 -62 -75.5 -164 q0 -88 81 -148.5 q81 -60.5 251 -105.5 q248 -71 363.5 -176 q115.5 -105 115.5 -276 q0 -177 -138.5 -285 q-138.5 -108 -373.5 -108 q-155 0 -280.5 51.5 q-125.5 51.5 -201 155 q-75.5 103.5 -75.5 241.5 ZM518 1552 l195 297 l241 0 l-270 -297 l-166 0 Z" /><glyph glyph-name="sacute" unicode="&#x15b;" d="M86 336 l205 0 q3 -73 41 -117 q67 -78 205 -78 q100 0 160.5 41.5 q60.5 41.5 60.5 106.5 q0 68 -54 109 q-54 41 -192 71 q-188 35 -287.5 110.5 q-99.5 75.5 -99.5 202.5 q0 136 113 228 q113 92 292 92 q189 0 304.5 -97 q115.5 -97 115.5 -243 l-205 0 q0 71 -57.5 124.5 q-57.5 53.5 -157.5 53.5 q-100 0 -151 -43.5 q-51 -43.5 -51 -108.5 q0 -61 53.5 -96 q53.5 -35 185.5 -63 q197 -44 295.5 -119.5 q98.5 -75.5 98.5 -206.5 q0 -142 -116 -232.5 q-116 -90.5 -310 -90.5 q-144 0 -244 53 q-99 52 -152 131.5 q-53 79.5 -53 171.5 ZM446 1239 l195 297 l242 0 l-271 -297 l-166 0 Z" /><glyph glyph-name="Scedilla" unicode="&#x15e;" d="M80 428 l213 0 q0 -71 26.5 -125 q26.5 -54 74.5 -86.5 q48 -32.5 109 -48.5 q61 -16 134 -16 q144 0 220.5 58 q76.5 58 76.5 161 q0 102 -71.5 158.5 q-71.5 56.5 -262.5 113.5 q-147 45 -248 100 q-227 121 -227 334 q0 174 141 287 q141 113 363 113 q162 0 280 -62 q114 -61 175 -161 q61 -100 61 -220 l-213 0 q0 117 -74.5 194 q-74.5 77 -230.5 77 q-138 0 -213.5 -62 q-75.5 -62 -75.5 -164 q0 -88 81 -148.5 q81 -60.5 251 -105.5 q248 -71 363.5 -176 q115.5 -105 115.5 -276 q0 -162 -118 -268 q-118 -106 -322 -123 l-9 -35 q154 -28 154 -172 q0 -99 -81 -157 q-81 -58 -232 -58 l-6 118 q70 0 112.5 24 q42.5 24 42.5 73 q0 46 -36 65 q-36 19 -122 25 l27 119 q-210 19 -344.5 137 q-134.5 118 -134.5 307 Z" /><glyph glyph-name="scedilla" unicode="&#x15f;" d="M86 336 l205 0 q3 -73 41 -117 q67 -78 205 -78 q100 0 160.5 41.5 q60.5 41.5 60.5 106.5 q0 68 -54 109 q-54 41 -192 71 q-188 35 -287.5 110.5 q-99.5 75.5 -99.5 202.5 q0 136 113 228 q113 92 292 92 q189 0 304.5 -97 q115.5 -97 115.5 -243 l-205 0 q0 71 -57.5 124.5 q-57.5 53.5 -157.5 53.5 q-100 0 -151 -43.5 q-51 -43.5 -51 -108.5 q0 -61 53.5 -96 q53.5 -35 185.5 -63 q197 -44 295.5 -119.5 q98.5 -75.5 98.5 -206.5 q0 -122 -87.5 -208 q-87.5 -86 -238.5 -109 l-12 -49 q66 -12 109.5 -53 q43.5 -41 43.5 -120 q0 -99 -81 -157 q-81 -58 -232 -58 l-6 119 q70 0 112.5 23.5 q42.5 23.5 42.5 72.5 q0 46 -36 65.5 q-36 19.5 -121 25.5 l28 127 q-116 9 -192 51 q-99 52 -152 131.5 q-53 79.5 -53 171.5 Z" /><glyph glyph-name="Scaron" unicode="&#x160;" d="M80 428 l213 0 q0 -71 26.5 -125 q26.5 -54 74.5 -86.5 q48 -32.5 109 -48.5 q61 -16 134 -16 q144 0 220.5 58 q76.5 58 76.5 161 q0 102 -71.5 158.5 q-71.5 56.5 -262.5 113.5 q-147 45 -248 100 q-227 121 -227 334 q0 174 141 287 q141 113 363 113 q162 0 280 -62 q114 -61 175 -161 q61 -100 61 -220 l-213 0 q0 117 -74.5 194 q-74.5 77 -230.5 77 q-138 0 -213.5 -62 q-75.5 -62 -75.5 -164 q0 -88 81 -148.5 q81 -60.5 251 -105.5 q248 -71 363.5 -176 q115.5 -105 115.5 -276 q0 -177 -138.5 -285 q-138.5 -108 -373.5 -108 q-155 0 -280.5 51.5 q-125.5 51.5 -201 155 q-75.5 103.5 -75.5 241.5 ZM303 1839 l0 10 l172 0 l152 -166 l149 166 l178 0 l0 -10 l-264 -276 l-127 0 l-260 276 Z" /><glyph glyph-name="scaron" unicode="&#x161;" d="M86 336 l205 0 q3 -73 41 -117 q67 -78 205 -78 q100 0 160.5 41.5 q60.5 41.5 60.5 106.5 q0 68 -54 109 q-54 41 -192 71 q-188 35 -287.5 110.5 q-99.5 75.5 -99.5 202.5 q0 136 113 228 q113 92 292 92 q189 0 304.5 -97 q115.5 -97 115.5 -243 l-205 0 q0 71 -57.5 124.5 q-57.5 53.5 -157.5 53.5 q-100 0 -151 -43.5 q-51 -43.5 -51 -108.5 q0 -61 53.5 -96 q53.5 -35 185.5 -63 q197 -44 295.5 -119.5 q98.5 -75.5 98.5 -206.5 q0 -142 -116 -232.5 q-116 -90.5 -310 -90.5 q-144 0 -244 53 q-99 52 -152 131.5 q-53 79.5 -53 171.5 ZM229 1526 l0 10 l172 0 l152 -166 l149 166 l179 0 l0 -10 l-265 -277 l-127 0 l-260 277 Z" /><glyph glyph-name="uni0162" unicode="&#x162;" d="M47 1282 l0 174 l1139 0 l0 -174 l-465 0 l0 -1282 l-25 0 l-12 -53 q154 -28 154 -172 q0 -99 -81.5 -157 q-81.5 -58 -232.5 -58 l-6 118 q70 0 113 24 q43 24 43 73 q0 46 -36 65 q-36 19 -122 25 l31 135 l-37 0 l0 1282 l-463 0 Z" /><glyph glyph-name="uni0163" unicode="&#x163;" d="M10 928 l0 153 l189 0 l0 265 l207 0 l0 -265 l196 0 l0 -153 l-196 0 l0 -649 q0 -73 28.5 -99 q28.5 -26 87.5 -26 q6 0 86 10 l2 -164 q-35 -10 -86 -16 l-8 -37 q154 -28 154 -172 q0 -99 -81.5 -157 q-81.5 -58 -232.5 -58 l-6 118 q70 0 113 24 q43 24 43 73 q0 46 -36 65 q-36 19 -122 25 l29 125 q-178 47 -178 284 l0 654 l-189 0 Z" /><glyph glyph-name="Tcaron" unicode="&#x164;" d="M47 1282 l0 174 l1139 0 l0 -174 l-465 0 l0 -1282 l-211 0 l0 1282 l-463 0 ZM291 1835 l0 10 l172 0 l151 -166 l150 166 l178 0 l0 -10 l-264 -276 l-127 0 l-260 276 Z" /><glyph glyph-name="tcaron" unicode="&#x165;" d="M10 928 l0 153 l189 0 l0 265 l207 0 l0 -265 l196 0 l0 -153 l-196 0 l0 -649 q0 -73 28.5 -99 q28.5 -26 87.5 -26 q6 0 86 10 l2 -164 q-82 -20 -149 -20 q-50 0 -92.5 12.5 q-42.5 12.5 -83 43 q-40.5 30.5 -63.5 91.5 q-23 61 -23 147 l0 654 l-189 0 ZM512 1327 q74 115 74 250 l0 82 l182 0 l0 -78 q0 -87 -38 -178 q-38 -91 -107 -150 l-111 74 Z" /><glyph glyph-name="Tbar" unicode="&#x166;" d="M47 1282 l0 174 l1139 0 l0 -174 l-465 0 l0 -315 l223 0 l0 -158 l-223 0 l0 -809 l-211 0 l0 809 l-215 0 l0 158 l215 0 l0 315 l-463 0 Z" /><glyph glyph-name="tbar" unicode="&#x167;" d="M-14 590 l0 158 l213 0 l0 180 l-189 0 l0 153 l189 0 l0 265 l207 0 l0 -265 l196 0 l0 -153 l-196 0 l0 -180 l229 0 l0 -158 l-229 0 l0 -311 q0 -73 28.5 -99 q28.5 -26 87.5 -26 q6 0 86 10 l2 -164 q-82 -20 -149 -20 q-50 0 -92.5 12.5 q-42.5 12.5 -83 43 q-40.5 30.5 -63.5 91.5 q-23 61 -23 147 l0 316 l-213 0 Z" /><glyph glyph-name="Umacron" unicode="&#x16a;" d="M135 475 l0 981 l213 0 l0 -981 q0 -159 84.5 -241 q84.5 -82 235.5 -82 q152 0 236.5 81.5 q84.5 81.5 84.5 241.5 l0 981 l213 0 l0 -981 q0 -232 -142.5 -363.5 q-142.5 -131.5 -391.5 -131.5 q-252 0 -392.5 130 q-140.5 130 -140.5 365 ZM336 1618 l0 147 l674 0 l0 -147 l-674 0 Z" /><glyph glyph-name="umacron" unicode="&#x16b;" d="M131 385 l0 696 l205 0 l0 -698 q0 -231 190 -231 q199 0 267 143 l0 786 l206 0 l0 -1081 l-194 0 l-6 109 q-104 -129 -312 -129 q-168 0 -262 98.5 q-94 98.5 -94 306.5 ZM236 1307 l0 147 l673 0 l0 -147 l-673 0 Z" /><glyph glyph-name="Ubreve" unicode="&#x16c;" d="M135 475 l0 981 l213 0 l0 -981 q0 -159 84.5 -241 q84.5 -82 235.5 -82 q152 0 236.5 81.5 q84.5 81.5 84.5 241.5 l0 981 l213 0 l0 -981 q0 -232 -142.5 -363.5 q-142.5 -131.5 -391.5 -131.5 q-252 0 -392.5 130 q-140.5 130 -140.5 365 ZM358 1812 l162 0 q0 -63 36 -104 q36 -41 112 -41 q75 0 111 41 q36 41 36 104 l160 0 q0 -123 -83 -197.5 q-83 -74.5 -224 -74.5 q-142 0 -226 75 q-84 75 -84 197 Z" /><glyph glyph-name="ubreve" unicode="&#x16d;" d="M131 385 l0 696 l205 0 l0 -698 q0 -231 190 -231 q199 0 267 143 l0 786 l206 0 l0 -1081 l-194 0 l-6 109 q-104 -129 -312 -129 q-168 0 -262 98.5 q-94 98.5 -94 306.5 ZM260 1501 l162 0 q0 -63 35.5 -104 q35.5 -41 111.5 -41 q75 0 111.5 41.5 q36.5 41.5 36.5 103.5 l160 0 q0 -123 -83.5 -197.5 q-83.5 -74.5 -224.5 -74.5 q-141 0 -225 75 q-84 75 -84 197 Z" /><glyph glyph-name="Uring" unicode="&#x16e;" d="M135 475 l0 981 l213 0 l0 -981 q0 -159 84.5 -241 q84.5 -82 235.5 -82 q152 0 236.5 81.5 q84.5 81.5 84.5 241.5 l0 981 l213 0 l0 -981 q0 -232 -142.5 -363.5 q-142.5 -131.5 -391.5 -131.5 q-252 0 -392.5 130 q-140.5 130 -140.5 365 ZM453 1733 q0 85 62.5 145.5 q62.5 60.5 154.5 60.5 q90 0 152.5 -60.5 q62.5 -60.5 62.5 -145.5 q0 -87 -62 -146 q-62 -59 -153 -59 q-92 0 -154.5 58.5 q-62.5 58.5 -62.5 146.5 ZM587.5 1813 q-32.5 -34 -32.5 -80 q0 -46 33 -80.5 q33 -34.5 82 -34.5 q49 0 80.5 33.5 q31.5 33.5 31.5 81.5 q0 46 -32 80 q-32 34 -80 34 q-50 0 -82.5 -34 Z" /><glyph glyph-name="uring" unicode="&#x16f;" d="M131 385 l0 696 l205 0 l0 -698 q0 -231 190 -231 q199 0 267 143 l0 786 l206 0 l0 -1081 l-194 0 l-6 109 q-104 -129 -312 -129 q-168 0 -262 98.5 q-94 98.5 -94 306.5 ZM352 1421 q0 86 63 146.5 q63 60.5 154 60.5 q90 0 152.5 -61 q62.5 -61 62.5 -146 q0 -87 -62 -145.5 q-62 -58.5 -153 -58.5 q-93 0 -155 58 q-62 58 -62 146 ZM487.5 1501.5 q-32.5 -34.5 -32.5 -80.5 q0 -46 32.5 -80 q32.5 -34 81.5 -34 q49 0 81 33 q32 33 32 81 q0 46 -32.5 80.5 q-32.5 34.5 -80.5 34.5 q-49 0 -81.5 -34.5 Z" /><glyph glyph-name="Uhungarumlaut" unicode="&#x170;" d="M135 475 l0 981 l213 0 l0 -981 q0 -159 84.5 -241 q84.5 -82 235.5 -82 q152 0 236.5 81.5 q84.5 81.5 84.5 241.5 l0 981 l213 0 l0 -981 q0 -232 -142.5 -363.5 q-142.5 -131.5 -391.5 -131.5 q-252 0 -392.5 130 q-140.5 130 -140.5 365 ZM408 1544 l174 303 l206 0 l-219 -303 l-161 0 ZM702 1544 l228 303 l217 0 l-268 -303 l-177 0 Z" /><glyph glyph-name="uhungarumlaut" unicode="&#x171;" d="M131 385 l0 696 l205 0 l0 -698 q0 -231 190 -231 q199 0 267 143 l0 786 l206 0 l0 -1081 l-194 0 l-6 109 q-104 -129 -312 -129 q-168 0 -262 98.5 q-94 98.5 -94 306.5 ZM307 1233 l174 303 l207 0 l-219 -303 l-162 0 ZM602 1233 l227 303 l218 0 l-269 -303 l-176 0 Z" /><glyph glyph-name="Uogonek" unicode="&#x172;" d="M135 475 l0 981 l213 0 l0 -981 q0 -159 84.5 -241 q84.5 -82 235.5 -82 q152 0 236.5 81.5 q84.5 81.5 84.5 241.5 l0 981 l213 0 l0 -981 q0 -160 -70 -275 q-70 -115 -200 -171 q-68 -49 -106 -95.5 q-38 -46.5 -38 -99.5 q0 -72 74 -72 q47 0 96 27 l19 -129 q-79 -43 -162 -43 q-88 0 -143.5 50.5 q-55.5 50.5 -55.5 144.5 q0 89 70 168 l-18 0 q-252 0 -392.5 130 q-140.5 130 -140.5 365 Z" /><glyph glyph-name="uogonek" unicode="&#x173;" d="M131 385 l0 696 l205 0 l0 -698 q0 -231 190 -231 q199 0 267 143 l0 786 l206 0 l0 -1081 l-14 0 q-80 -57 -124 -107 q-44 -50 -44 -106 q0 -72 76 -72 q40 0 96 25 l17 -127 q-65 -45 -162 -45 q-86 0 -142.5 50.5 q-56.5 50.5 -56.5 143.5 q0 139 160 246 l-6 101 q-104 -129 -312 -129 q-168 0 -262 98.5 q-94 98.5 -94 306.5 Z" /><glyph glyph-name="Wcircumflex" unicode="&#x174;" d="M55 1456 l213 0 l232 -1040 l16 -127 l23 110 l288 1057 l179 0 l282 -1059 l25 -114 l16 135 l227 1038 l213 0 l-346 -1456 l-198 0 l-303 1100 l-4 24 l-5 -26 l-311 -1098 l-199 0 l-348 1456 ZM602 1563 l0 12 l256 272 l123 0 l258 -274 l0 -10 l-168 0 l-151 163 l-150 -163 l-168 0 Z" /><glyph glyph-name="wcircumflex" unicode="&#x175;" d="M41 1081 l203 0 l198 -784 l242 784 l160 0 l246 -798 l194 798 l203 0 l-305 -1081 l-168 0 l-252 797 l-248 -797 l-168 0 l-305 1081 ZM442 1251 l0 13 l256 272 l123 0 l258 -274 l0 -11 l-168 0 l-151 164 l-150 -164 l-168 0 Z" /><glyph glyph-name="Ycircumflex" unicode="&#x176;" d="M12 1456 l242 0 l364 -719 l363 719 l242 0 l-498 -915 l0 -541 l-215 0 l0 541 l-498 915 ZM303 1561 l0 12 l256 272 l123 0 l258 -274 l0 -10 l-168 0 l-151 163 l-150 -163 l-168 0 Z" /><glyph glyph-name="ycircumflex" unicode="&#x177;" d="M18 1081 l224 0 l256 -786 l243 786 l220 0 l-435 -1247 q-17 -50 -41.5 -93 q-24.5 -43 -63 -85.5 q-38.5 -42.5 -95 -67 q-56.5 -24.5 -125.5 -24.5 q-59 0 -109 16 l-2 162 q17 0 27 -2 q10 -2 22 -2 q94 0 144.5 37 q50.5 37 81.5 129 l38 106 l-385 1071 ZM195 1251 l0 13 l256 272 l122 0 l258 -274 l0 -11 l-167 0 l-152 164 l-150 -164 l-167 0 Z" /><glyph glyph-name="Ydieresis" unicode="&#x178;" d="M12 1456 l242 0 l364 -719 l363 719 l242 0 l-498 -915 l0 -541 l-215 0 l0 541 l-498 915 ZM287 1679 q0 49 30.5 80 q30.5 31 83.5 31 q54 0 84.5 -31 q30.5 -31 30.5 -80 q0 -46 -30.5 -77 q-30.5 -31 -84.5 -31 q-52 0 -83 31 q-31 31 -31 77 ZM729 1677 q0 49 30.5 80 q30.5 31 84.5 31 q54 0 84 -31 q30 -31 30 -80 q0 -46 -30 -76 q-30 -30 -84 -30 q-54 0 -84.5 30 q-30.5 30 -30.5 76 Z" /><glyph glyph-name="Zacute" unicode="&#x179;" d="M84 0 l0 150 l782 1132 l-772 0 l0 174 l1030 0 l0 -145 l-784 -1139 l813 0 l0 -172 l-1069 0 ZM510 1550 l195 297 l241 0 l-270 -297 l-166 0 Z" /><glyph glyph-name="zacute" unicode="&#x17a;" d="M86 0 l0 143 l582 772 l-572 0 l0 166 l830 0 l0 -137 l-586 -778 l612 0 l0 -166 l-866 0 ZM408 1239 l194 297 l242 0 l-271 -297 l-165 0 Z" /><glyph glyph-name="Zdotaccent" unicode="&#x17b;" d="M84 0 l0 150 l782 1132 l-772 0 l0 174 l1030 0 l0 -145 l-784 -1139 l813 0 l0 -172 l-1069 0 ZM502 1681 q0 49 30.5 81 q30.5 32 85.5 32 q54 0 85.5 -32 q31.5 -32 31.5 -81 q0 -46 -31.5 -77 q-31.5 -31 -85.5 -31 q-55 0 -85.5 31 q-30.5 31 -30.5 77 Z" /><glyph glyph-name="zdotaccent" unicode="&#x17c;" d="M86 0 l0 143 l582 772 l-572 0 l0 166 l830 0 l0 -137 l-586 -778 l612 0 l0 -166 l-866 0 ZM399 1370 q0 49 31 81 q31 32 86 32 q54 0 85.5 -32 q31.5 -32 31.5 -81 q0 -46 -31.5 -77 q-31.5 -31 -85.5 -31 q-55 0 -86 31 q-31 31 -31 77 Z" /><glyph glyph-name="Zcaron" unicode="&#x17d;" d="M84 0 l0 150 l782 1132 l-772 0 l0 174 l1030 0 l0 -145 l-784 -1139 l813 0 l0 -172 l-1069 0 ZM295 1837 l0 10 l172 0 l151 -166 l150 166 l178 0 l0 -10 l-264 -276 l-127 0 l-260 276 Z" /><glyph glyph-name="zcaron" unicode="&#x17e;" d="M86 0 l0 143 l582 772 l-572 0 l0 166 l830 0 l0 -137 l-586 -778 l612 0 l0 -166 l-866 0 ZM193 1526 l0 10 l172 0 l151 -166 l150 166 l178 0 l0 -10 l-264 -277 l-127 0 l-260 277 Z" /><glyph glyph-name="uni0218" unicode="&#x218;" d="M80 428 l213 0 q0 -71 26.5 -125 q26.5 -54 74.5 -86.5 q48 -32.5 109 -48.5 q61 -16 134 -16 q144 0 220.5 58 q76.5 58 76.5 161 q0 102 -71.5 158.5 q-71.5 56.5 -262.5 113.5 q-147 45 -248 100 q-227 121 -227 334 q0 174 141 287 q141 113 363 113 q162 0 280 -62 q114 -61 175 -161 q61 -100 61 -220 l-213 0 q0 117 -74.5 194 q-74.5 77 -230.5 77 q-138 0 -213.5 -62 q-75.5 -62 -75.5 -164 q0 -88 81 -148.5 q81 -60.5 251 -105.5 q248 -71 363.5 -176 q115.5 -105 115.5 -276 q0 -177 -138.5 -285 q-138.5 -108 -373.5 -108 q-155 0 -280.5 51.5 q-125.5 51.5 -201 155 q-75.5 103.5 -75.5 241.5 ZM467 -442 q74 115 74 249 l0 82 l182 0 l0 -77 q0 -87 -38 -178 q-38 -91 -107 -150 l-111 74 Z" /><glyph glyph-name="uni0219" unicode="&#x219;" d="M86 336 l205 0 q3 -73 41 -117 q67 -78 205 -78 q100 0 160.5 41.5 q60.5 41.5 60.5 106.5 q0 68 -54 109 q-54 41 -192 71 q-188 35 -287.5 110.5 q-99.5 75.5 -99.5 202.5 q0 136 113 228 q113 92 292 92 q189 0 304.5 -97 q115.5 -97 115.5 -243 l-205 0 q0 71 -57.5 124.5 q-57.5 53.5 -157.5 53.5 q-100 0 -151 -43.5 q-51 -43.5 -51 -108.5 q0 -61 53.5 -96 q53.5 -35 185.5 -63 q197 -44 295.5 -119.5 q98.5 -75.5 98.5 -206.5 q0 -142 -116 -232.5 q-116 -90.5 -310 -90.5 q-144 0 -244 53 q-99 52 -152 131.5 q-53 79.5 -53 171.5 ZM389 -453 q74 115 74 250 l0 82 l182 0 l0 -78 q0 -87 -38 -177.5 q-38 -90.5 -107 -149.5 l-111 73 Z" /><glyph glyph-name="uni021A" unicode="&#x21a;" d="M47 1282 l0 174 l1139 0 l0 -174 l-465 0 l0 -1282 l-211 0 l0 1282 l-463 0 ZM453 -440 q73 113 73 250 l0 81 l183 0 l0 -77 q0 -86 -38.5 -177.5 q-38.5 -91.5 -107.5 -150.5 l-110 74 Z" /><glyph glyph-name="uni021B" unicode="&#x21b;" d="M10 928 l0 153 l189 0 l0 265 l207 0 l0 -265 l196 0 l0 -153 l-196 0 l0 -649 q0 -73 28.5 -99 q28.5 -26 87.5 -26 q6 0 86 10 l2 -164 q-82 -20 -149 -20 q-50 0 -92.5 12.5 q-42.5 12.5 -83 43 q-40.5 30.5 -63.5 91.5 q-23 61 -23 147 l0 654 l-189 0 ZM285 -442 q73 113 73 249 l0 82 l183 0 l0 -77 q0 -86 -38.5 -177.5 q-38.5 -91.5 -107.5 -150.5 l-110 74 Z" /><glyph glyph-name="uni0237" unicode="&#x237;" d="M-78 -420 l15 162 q34 -12 98 -12 q63 0 99 50 q36 50 36 140 l0 1161 l205 0 l0 -1161 q0 -171 -88.5 -263.5 q-88.5 -92.5 -245.5 -92.5 q-72 0 -119 16 Z" /><glyph glyph-name="circumflex" unicode="&#x2c6;" d="M160 1251 l0 13 l256 272 l123 0 l258 -274 l0 -11 l-168 0 l-152 164 l-149 -164 l-168 0 Z" /><glyph glyph-name="caron" unicode="&#x2c7;" d="M131 1526 l0 10 l172 0 l152 -166 l149 166 l178 0 l0 -10 l-264 -277 l-127 0 l-260 277 Z" /><glyph glyph-name="breve" unicode="&#x2d8;" d="M125 1501 l162 0 q0 -63 35.5 -104 q35.5 -41 111.5 -41 q75 0 111.5 41.5 q36.5 41.5 36.5 103.5 l159 0 q0 -123 -83 -197.5 q-83 -74.5 -224 -74.5 q-141 0 -225 75 q-84 75 -84 197 Z" /><glyph glyph-name="dotaccent" unicode="&#x2d9;" d="M137 1368 q0 49 31 81 q31 32 86 32 q54 0 85.5 -32 q31.5 -32 31.5 -81 q0 -46 -31.5 -77 q-31.5 -31 -85.5 -31 q-55 0 -86 31 q-31 31 -31 77 Z" /><glyph glyph-name="ring" unicode="&#x2da;" d="M121 1395 q0 86 63 146.5 q63 60.5 154 60.5 q90 0 152.5 -61 q62.5 -61 62.5 -146 q0 -87 -62 -146 q-62 -59 -153 -59 q-92 0 -154.5 58.5 q-62.5 58.5 -62.5 146.5 ZM255.5 1475 q-32.5 -34 -32.5 -80 q0 -46 33 -80.5 q33 -34.5 82 -34.5 q49 0 81 33.5 q32 33.5 32 81.5 q0 46 -32.5 80 q-32.5 34 -80.5 34 q-50 0 -82.5 -34 Z" /><glyph glyph-name="ogonek" unicode="&#x2db;" d="M47 -238 q0 179 250 295 l88 -57 q-80 -57 -124 -107 q-44 -50 -44 -106 q0 -72 78 -72 q38 0 94 25 l19 -127 q-65 -45 -162 -45 q-88 0 -143.5 50.5 q-55.5 50.5 -55.5 143.5 Z" /><glyph glyph-name="tilde" unicode="&#x2dc;" d="M123 1249 q0 111 60 180.5 q60 69.5 157 69.5 q50 0 93.5 -23 q43.5 -23 86 -46 q42.5 -23 88.5 -23 q41 0 69 31 q28 31 28 78 l133 -11 q0 -110 -62 -179 q-62 -69 -155 -69 q-47 0 -84.5 15 q-37.5 15 -59 32.5 q-21.5 17.5 -55 32.5 q-33.5 15 -72.5 15 q-41 0 -67.5 -31 q-26.5 -31 -26.5 -78 l-133 6 Z" /><glyph glyph-name="hungarumlaut" unicode="&#x2dd;" d="M88 1233 l174 303 l207 0 l-219 -303 l-162 0 ZM383 1233 l227 303 l217 0 l-268 -303 l-176 0 Z" /><glyph glyph-name="gravecomb" unicode="&#x300;" d="M-864 1536 l239 0 l195 -297 l-172 0 l-262 297 Z" /><glyph glyph-name="acutecomb" unicode="&#x301;" d="M-662 1239 l193 297 l242 0 l-271 -297 l-164 0 Z" /><glyph glyph-name="tildecomb" unicode="&#x303;" d="M-893 1249 q0 111 60 180.5 q60 69.5 157 69.5 q50 0 93.5 -23 q43.5 -23 86 -46 q42.5 -23 88.5 -23 q41 0 69 31 q28 31 28 78 l133 -11 q0 -110 -62 -179 q-62 -69 -155 -69 q-47 0 -84.5 15 q-37.5 15 -59 32.5 q-21.5 17.5 -55 32.5 q-33.5 15 -72.5 15 q-41 0 -67.5 -31 q-26.5 -31 -26.5 -78 l-133 6 Z" /><glyph glyph-name="dotbelowcomb" unicode="&#x323;" d="M-723 -244 q0 49 32.5 81 q32.5 32 88.5 32 q56 0 88.5 -32 q32.5 -32 32.5 -81 q0 -48 -32.5 -79 q-32.5 -31 -88.5 -31 q-56 0 -88.5 31 q-32.5 31 -32.5 79 Z" /><glyph glyph-name="uni0326" unicode="&#x326;" d="M86 -86 q74 115 74 250 l0 82 l182 0 l0 -78 q0 -87 -38 -178 q-38 -91 -107 -150 l-111 74 Z" /><glyph glyph-name="uni060C" unicode="&#x60c;" d="M203 -12 l84 422 l116 0 l0 -422 l-200 0 Z" /><glyph glyph-name="uni061B" unicode="&#x61b;" d="M178 160 l156 157 l158 -155 l-158 -158 l-156 156 ZM242 772 l84 422 l116 0 l0 -422 l-200 0 Z" /><glyph glyph-name="uni061F" unicode="&#x61f;" d="M102 965 q0 74 26 146 q26 72 80 136 q54 64 128.5 113 q74.5 49 178.5 77.5 q104 28.5 224 28.5 l0 -188 q-172 0 -308 -77 q-136 -77 -191 -220 q148 -128 436 -174 l0 -346 l-203 0 l0 225 q-98 12 -181.5 48.5 q-83.5 36.5 -136.5 97.5 q-53 61 -53 133 ZM428 160 l158 157 l155 -155 l-155 -158 l-158 156 Z" /><glyph glyph-name="uni0621" unicode="&#x621;" d="M215 -33 l0 160 l303 53 q-137 63 -137 170 q0 88 34.5 175 q34.5 87 105.5 148.5 q71 61.5 161 61.5 q45 0 88 -12.5 q43 -12.5 67.5 -25 q24.5 -12.5 61.5 -35.5 l-70 -140 q-10 4 -34 14.5 q-24 10.5 -39 16 q-15 5.5 -41.5 11 q-26.5 5.5 -55.5 5.5 q-65 0 -115 -60 q-50 -60 -50 -101 q0 -17 24.5 -48 q24.5 -31 61.5 -61.5 q37 -30.5 86 -53 q49 -22.5 92 -22.5 l231 41 l0 -158 l-774 -139 Z" /><glyph glyph-name="uni0622" unicode="&#x622;" d="M33 1724 l0 99 q54 32 114 32 q42 0 118.5 -16 q76.5 -16 113.5 -16 q83 0 133 32 l0 -98 q-52 -33 -133 -33 q-39 0 -115 16.5 q-76 16.5 -119 16.5 q-28 0 -51 -5.5 q-23 -5.5 -33.5 -11 q-10.5 -5.5 -27.5 -16.5 ZM166 0 l0 1462 l205 41 l0 -1503 l-205 0 Z" /><glyph glyph-name="uni0623" unicode="&#x623;" d="M-23 1645 l0 98 l179 33 q-88 36 -88 100 q0 102 67 187 q67 85 164 85 q57 0 107 -26 l0 -107 q-6 2 -20 7 q-14 5 -22 7.5 q-8 2.5 -21 6 q-13 3.5 -27.5 5 q-14.5 1.5 -30.5 1.5 q-52 0 -97 -45.5 q-45 -45.5 -45 -79.5 q0 -26 60 -66.5 q60 -40.5 119 -46.5 l167 31 l0 -98 l-512 -92 ZM166 0 l0 1462 l205 41 l0 -1503 l-205 0 Z" /><glyph glyph-name="uni0624" unicode="&#x624;" d="M213 268 q0 69 18 145.5 q18 76.5 54.5 151.5 q36.5 75 85.5 135.5 q49 60.5 118 98 q69 37.5 146 37.5 q105 0 185 -58 q80 -58 126.5 -158.5 q46.5 -100.5 69 -222.5 q22.5 -122 22.5 -262 q0 -326 -117.5 -501 q-117.5 -175 -361.5 -175 q-142 0 -309 47 l0 205 q112 -41 258 -41 q139 0 217.5 76.5 q78.5 76.5 101.5 253.5 l-311 0 q-149 0 -226 61 q-77 61 -77 207 ZM344 993 l0 99 l178 32 q-88 36 -88 101 q0 102 67.5 187 q67.5 85 164.5 85 q54 0 106 -27 l0 -106 q-6 2 -20 7 q-14 5 -22 7.5 q-8 2.5 -21 6 q-13 3.5 -27.5 5 q-14.5 1.5 -30.5 1.5 q-52 0 -96.5 -45.5 q-44.5 -45.5 -44.5 -79.5 q0 -26 59.5 -66.5 q59.5 -40.5 118.5 -46.5 l168 31 l0 -99 l-512 -92 ZM414 313 q0 -50 31 -69 q31 -19 98 -19 l293 0 q-10 179 -73.5 277 q-63.5 98 -152.5 98 q-74 0 -135 -90 q-61 -90 -61 -197 Z" /><glyph glyph-name="uni0625" unicode="&#x625;" d="M-23 -610 l177 30 q-86 40 -86 101 q0 102 67 187 q67 85 164 85 q57 0 107 -26 l0 -107 q-6 2 -20 7 q-14 5 -22 7.5 q-8 2.5 -21 6 q-13 3.5 -27.5 5 q-14.5 1.5 -30.5 1.5 q-52 0 -97 -45.5 q-45 -45.5 -45 -79.5 q0 -26 58.5 -66.5 q58.5 -40.5 117.5 -46.5 l170 31 l0 -98 l-512 -93 l0 101 ZM166 0 l0 1462 l205 41 l0 -1503 l-205 0 Z" /><glyph glyph-name="uni0626" unicode="&#x626;" d="M6 471 l0 98 l178 33 q-88 36 -88 100 q0 102 67.5 187.5 q67.5 85.5 164.5 85.5 q54 0 106 -27 l0 -106 q-3 1 -19.5 7 q-16.5 6 -23 7.5 q-6.5 1.5 -20.5 5.5 q-14 4 -28 5 q-14 1 -30 1 q-52 0 -96.5 -45.5 q-44.5 -45.5 -44.5 -79.5 q0 -26 59.5 -66 q59.5 -40 118.5 -46 l168 31 l0 -99 l-512 -92 ZM113 -88 q0 189 102 401 l180 0 q-88 -219 -88 -352 q0 -65 20.5 -113 q20.5 -48 56 -77.5 q35.5 -29.5 90.5 -48 q55 -18.5 115.5 -25 q60.5 -6.5 139.5 -6.5 q237 0 350 54.5 q113 54.5 113 145.5 q0 35 -11.5 62 q-11.5 27 -36 46.5 q-24.5 19.5 -52.5 33.5 q-28 14 -73 25 q-45 11 -85 17.5 q-40 6.5 -100 14.5 l-191 25 q4 109 31 209.5 q27 100.5 82.5 190 q55.5 89.5 133.5 155.5 q78 66 189.5 104.5 q111.5 38.5 245.5 38.5 l0 -223 q-88 0 -162 -22 q-74 -22 -122 -55.5 q-48 -33.5 -85 -78 q-37 -44.5 -55.5 -83 q-18.5 -38.5 -28.5 -77.5 l97 -10 q417 -45 417 -315 q0 -112 -34 -198.5 q-34 -86.5 -108.5 -153.5 q-74.5 -67 -205 -102.5 q-130.5 -35.5 -311.5 -35.5 q-311 0 -462.5 119 q-151.5 119 -151.5 334 Z" /><glyph glyph-name="uni0627" unicode="&#x627;" d="M166 0 l0 1462 l205 41 l0 -1503 l-205 0 Z" /><glyph glyph-name="uni0628" unicode="&#x628;" d="M96 438 q0 95 18 171.5 q18 76.5 70 193.5 l191 0 q-41 -115 -58.5 -182.5 q-17.5 -67.5 -17.5 -128.5 q0 -122 86 -194.5 q86 -72.5 277 -72.5 l770 0 l0 604 l204 41 l0 -870 l-964 0 q-274 0 -425 118 q-151 118 -151 320 ZM750 -362 l157 159 l158 -159 l-158 -158 l-157 158 Z" /><glyph glyph-name="uni0629" unicode="&#x629;" d="M133 324 q0 239 246 448 q-66 46 -119 78 l100 174 q249 -131 396 -321.5 q147 -190.5 147 -378.5 q0 -168 -96.5 -256 q-96.5 -88 -288.5 -88 q-192 0 -288.5 88 q-96.5 88 -96.5 256 ZM236 1401 l157 160 l125 -127 l125 127 l158 -160 l-158 -158 l-125 125 l-125 -125 l-157 158 ZM324 358 q0 -70 54 -106.5 q54 -36.5 134 -36.5 q87 0 144 36.5 q57 36.5 57 106.5 q0 121 -176 287 q-96 -47 -154.5 -123.5 q-58.5 -76.5 -58.5 -163.5 Z" /><glyph glyph-name="uni062A" unicode="&#x62a;" d="M96 438 q0 95 18 171.5 q18 76.5 70 193.5 l191 0 q-41 -115 -58.5 -182.5 q-17.5 -67.5 -17.5 -128.5 q0 -122 86 -194.5 q86 -72.5 277 -72.5 l770 0 l0 604 l204 41 l0 -870 l-964 0 q-274 0 -425 118 q-151 118 -151 320 ZM625 1065 l157 160 l125 -127 l125 127 l158 -160 l-158 -158 l-125 125 l-125 -125 l-157 158 Z" /><glyph glyph-name="uni062B" unicode="&#x62b;" d="M96 438 q0 95 18 171.5 q18 76.5 70 193.5 l191 0 q-41 -115 -58.5 -182.5 q-17.5 -67.5 -17.5 -128.5 q0 -122 86 -194.5 q86 -72.5 277 -72.5 l770 0 l0 604 l204 41 l0 -870 l-964 0 q-274 0 -425 118 q-151 118 -151 320 ZM649 1049 l144 145 l112 -115 l113 115 l145 -145 l-145 -144 l-113 113 l-112 -113 l-144 144 ZM764 1321 l143 143 l144 -143 l-144 -143 l-143 143 Z" /><glyph glyph-name="uni062C" unicode="&#x62c;" d="M143 -244 q0 152 61 290.5 q61 138.5 166.5 245 q105.5 106.5 241 186 q135.5 79.5 291.5 126.5 q-79 10 -234 39 q-155 29 -233 29 q-76 0 -143 -24 q-67 -24 -111 -64 l0 204 q117 109 283 109 q97 0 265 -41 q168 -41 319.5 -82 q151.5 -41 207.5 -41 q123 0 158 4 l0 -211 q-186 -4 -356.5 -48.5 q-170.5 -44.5 -298 -116 q-127.5 -71.5 -222 -162.5 q-94.5 -91 -143.5 -191 q-49 -100 -49 -198 q0 -175 153.5 -279 q153.5 -104 454.5 -104 q332 0 537 108 l0 -203 q-91 -44 -172.5 -71 q-81.5 -27 -158.5 -37 q-77 -10 -121 -12.5 q-44 -2.5 -117 -2.5 q-169 0 -310 34.5 q-141 34.5 -246.5 101.5 q-105.5 67 -164 172 q-58.5 105 -58.5 239 ZM766 -86 l158 160 l157 -160 l-157 -158 l-158 158 Z" /><glyph glyph-name="uni062D" unicode="&#x62d;" d="M143 -244 q0 152 61 290.5 q61 138.5 166.5 245 q105.5 106.5 241 186 q135.5 79.5 291.5 126.5 q-79 10 -234 39 q-155 29 -233 29 q-76 0 -143 -24 q-67 -24 -111 -64 l0 204 q117 109 283 109 q97 0 265 -41 q168 -41 319.5 -82 q151.5 -41 207.5 -41 q123 0 158 4 l0 -211 q-186 -4 -356.5 -48.5 q-170.5 -44.5 -298 -116 q-127.5 -71.5 -222 -162.5 q-94.5 -91 -143.5 -191 q-49 -100 -49 -198 q0 -175 153.5 -279 q153.5 -104 454.5 -104 q332 0 537 108 l0 -203 q-91 -44 -172.5 -71 q-81.5 -27 -158.5 -37 q-77 -10 -121 -12.5 q-44 -2.5 -117 -2.5 q-169 0 -310 34.5 q-141 34.5 -246.5 101.5 q-105.5 67 -164 172 q-58.5 105 -58.5 239 Z" /><glyph glyph-name="uni062E" unicode="&#x62e;" d="M143 -244 q0 152 61 290.5 q61 138.5 166.5 245 q105.5 106.5 241 186 q135.5 79.5 291.5 126.5 q-79 10 -234 39 q-155 29 -233 29 q-76 0 -143 -24 q-67 -24 -111 -64 l0 204 q117 109 283 109 q97 0 265 -41 q168 -41 319.5 -82 q151.5 -41 207.5 -41 q123 0 158 4 l0 -211 q-186 -4 -356.5 -48.5 q-170.5 -44.5 -298 -116 q-127.5 -71.5 -222 -162.5 q-94.5 -91 -143.5 -191 q-49 -100 -49 -198 q0 -175 153.5 -279 q153.5 -104 454.5 -104 q332 0 537 108 l0 -203 q-91 -44 -172.5 -71 q-81.5 -27 -158.5 -37 q-77 -10 -121 -12.5 q-44 -2.5 -117 -2.5 q-169 0 -310 34.5 q-141 34.5 -246.5 101.5 q-105.5 67 -164 172 q-58.5 105 -58.5 239 ZM373 1243 l157 160 l158 -160 l-158 -158 l-157 158 Z" /><glyph glyph-name="uni062F" unicode="&#x62f;" d="M137 53 l0 221 q58 -27 122.5 -37 q64.5 -10 189.5 -10 l258 0 q-4 211 -86 339 q-82 128 -242 196 l86 211 q434 -204 434 -733 l0 -240 l-418 0 q-5 0 -44 -0.5 q-39 -0.5 -50.5 0 q-11.5 0.5 -46.5 2 q-35 1.5 -54 5 q-19 3.5 -48 9 q-29 5.5 -53.5 15 q-24.5 9.5 -47.5 22.5 Z" /><glyph glyph-name="uni0630" unicode="&#x630;" d="M137 53 l0 221 q58 -27 122.5 -37 q64.5 -10 189.5 -10 l258 0 q-4 211 -86 339 q-82 128 -242 196 l86 211 q434 -204 434 -733 l0 -240 l-418 0 q-5 0 -44 -0.5 q-39 -0.5 -50.5 0 q-11.5 0.5 -46.5 2 q-35 1.5 -54 5 q-19 3.5 -48 9 q-29 5.5 -53.5 15 q-24.5 9.5 -47.5 22.5 ZM326 1296 l157 160 l158 -160 l-158 -157 l-157 157 Z" /><glyph glyph-name="uni0631" unicode="&#x631;" d="M41 -260 q112 -41 258 -41 q121 0 183.5 89.5 q62.5 89.5 62.5 260.5 l0 785 l205 40 l0 -825 q0 -89 -11.5 -166 q-11.5 -77 -41.5 -151.5 q-30 -74.5 -77.5 -127 q-47.5 -52.5 -124 -84.5 q-76.5 -32 -176.5 -32 q-70 0 -123.5 11.5 q-53.5 11.5 -154.5 43.5 l0 197 Z" /><glyph glyph-name="uni0632" unicode="&#x632;" d="M41 -260 q112 -41 258 -41 q121 0 183.5 89.5 q62.5 89.5 62.5 260.5 l0 785 l205 40 l0 -825 q0 -89 -11.5 -166 q-11.5 -77 -41.5 -151.5 q-30 -74.5 -77.5 -127 q-47.5 -52.5 -124 -84.5 q-76.5 -32 -176.5 -32 q-70 0 -123.5 11.5 q-53.5 11.5 -154.5 43.5 l0 197 ZM494 1178 l157 159 l158 -159 l-158 -158 l-157 158 Z" /><glyph glyph-name="uni0633" unicode="&#x633;" d="M78 -29 q0 269 115 508 l190 0 q-100 -249 -100 -454 q0 -197 130 -294.5 q130 -97.5 359 -97.5 q138 0 235 25.5 q97 25.5 153 75 q56 49.5 81 114.5 q25 65 25 152 l0 696 l204 41 l0 -512 l308 0 l0 551 l204 41 l0 -592 l308 0 l0 633 l204 41 l0 -899 l-1024 0 l0 -53 q0 -135 -54 -238.5 q-54 -103.5 -151 -166.5 q-97 -63 -223 -94.5 q-126 -31.5 -278 -31.5 q-172 0 -305.5 43 q-133.5 43 -215.5 119.5 q-82 76.5 -123.5 176 q-41.5 99.5 -41.5 216.5 Z" /><glyph glyph-name="uni0634" unicode="&#x634;" d="M78 -29 q0 269 115 508 l190 0 q-100 -249 -100 -454 q0 -197 130 -294.5 q130 -97.5 359 -97.5 q138 0 235 25.5 q97 25.5 153 75 q56 49.5 81 114.5 q25 65 25 152 l0 696 l204 41 l0 -512 l308 0 l0 551 l204 41 l0 -592 l308 0 l0 633 l204 41 l0 -899 l-1024 0 l0 -53 q0 -135 -54 -238.5 q-54 -103.5 -151 -166.5 q-97 -63 -223 -94.5 q-126 -31.5 -278 -31.5 q-172 0 -305.5 43 q-133.5 43 -215.5 119.5 q-82 76.5 -123.5 176 q-41.5 99.5 -41.5 216.5 ZM1626 1130 l143 146 l113 -115 l113 115 l145 -146 l-145 -143 l-113 113 l-113 -113 l-143 143 ZM1741 1403 l143 143 l144 -143 l-144 -143 l-143 143 Z" /><glyph glyph-name="uni0635" unicode="&#x635;" d="M109 -29 q0 271 114 508 l191 0 q-101 -252 -101 -454 q0 -197 130.5 -294.5 q130.5 -97.5 359.5 -97.5 q138 0 235 25.5 q97 25.5 152.5 75 q55.5 49.5 80.5 114.5 q25 65 25 152 l0 799 l205 41 l0 -389 q51 63 94 111.5 q43 48.5 112.5 112.5 q69.5 64 134.5 106 q65 42 149 72 q84 30 166 30 q203 0 321.5 -169 q118.5 -169 118.5 -489 l0 -225 l-1096 0 l0 -53 q0 -135 -54 -238.5 q-54 -103.5 -151 -166.5 q-97 -63 -223 -94.5 q-126 -31.5 -278 -31.5 q-172 0 -305.5 43 q-133.5 43 -215.5 119.5 q-82 76.5 -123.5 176 q-41.5 99.5 -41.5 216.5 ZM1501 225 l889 0 q0 225 -72.5 329.5 q-72.5 104.5 -195.5 104.5 q-65 0 -137 -28 q-72 -28 -133.5 -69.5 q-61.5 -41.5 -129.5 -103 q-68 -61.5 -117 -115 q-49 -53.5 -104 -118.5 Z" /><glyph glyph-name="uni0636" unicode="&#x636;" d="M109 -29 q0 271 114 508 l191 0 q-101 -252 -101 -454 q0 -197 130.5 -294.5 q130.5 -97.5 359.5 -97.5 q138 0 235 25.5 q97 25.5 152.5 75 q55.5 49.5 80.5 114.5 q25 65 25 152 l0 799 l205 41 l0 -389 q51 63 94 111.5 q43 48.5 112.5 112.5 q69.5 64 134.5 106 q65 42 149 72 q84 30 166 30 q203 0 321.5 -169 q118.5 -169 118.5 -489 l0 -225 l-1096 0 l0 -53 q0 -135 -54 -238.5 q-54 -103.5 -151 -166.5 q-97 -63 -223 -94.5 q-126 -31.5 -278 -31.5 q-172 0 -305.5 43 q-133.5 43 -215.5 119.5 q-82 76.5 -123.5 176 q-41.5 99.5 -41.5 216.5 ZM1501 225 l889 0 q0 225 -72.5 329.5 q-72.5 104.5 -195.5 104.5 q-65 0 -137 -28 q-72 -28 -133.5 -69.5 q-61.5 -41.5 -129.5 -103 q-68 -61.5 -117 -115 q-49 -53.5 -104 -118.5 ZM1999 1204 l158 160 l157 -160 l-157 -157 l-158 157 Z" /><glyph glyph-name="uni0637" unicode="&#x637;" d="M0 0 l0 225 l291 0 l0 1237 l205 41 l0 -1042 q49 61 93.5 110 q44.5 49 112 110.5 q67.5 61.5 132 103 q64.5 41.5 146.5 70 q82 28.5 163 28.5 q203 0 321.5 -169 q118.5 -169 118.5 -489 l0 -225 l-1583 0 ZM496 225 l880 0 q0 225 -72.5 329.5 q-72.5 104.5 -195.5 104.5 q-80 0 -166 -38 q-86 -38 -168 -106 q-82 -68 -145 -132.5 q-63 -64.5 -133 -146.5 l0 -11 Z" /><glyph glyph-name="uni0638" unicode="&#x638;" d="M0 0 l0 225 l291 0 l0 1237 l205 41 l0 -1042 q49 61 93.5 110 q44.5 49 112 110.5 q67.5 61.5 132 103 q64.5 41.5 146.5 70 q82 28.5 163 28.5 q203 0 321.5 -169 q118.5 -169 118.5 -489 l0 -225 l-1583 0 ZM496 225 l880 0 q0 225 -72.5 329.5 q-72.5 104.5 -195.5 104.5 q-80 0 -166 -38 q-86 -38 -168 -106 q-82 -68 -145 -132.5 q-63 -64.5 -133 -146.5 l0 -11 ZM985 1204 l158 160 l157 -160 l-157 -157 l-158 157 Z" /><glyph glyph-name="uni0639" unicode="&#x639;" d="M113 -287 q0 183 109 310 q109 127 286 176 q-109 94 -109 237 q0 187 121.5 297.5 q121.5 110.5 308.5 110.5 q72 0 131 -12.5 q59 -12.5 90.5 -26.5 q31.5 -14 69.5 -37 l0 -227 q-46 26 -72 38 q-26 12 -81.5 25.5 q-55.5 13.5 -120.5 13.5 q-109 0 -174.5 -53 q-65.5 -53 -65.5 -141 q0 -58 26.5 -99 q26.5 -41 72.5 -61.5 q46 -20.5 94 -29.5 q48 -9 104 -9 l301 0 l0 -225 l-370 0 q-91 0 -158.5 -5 q-67.5 -5 -139 -21.5 q-71.5 -16.5 -116.5 -45.5 q-45 -29 -74 -80 q-29 -51 -29 -122 q0 -121 126.5 -200 q126.5 -79 316.5 -79 q307 0 536 92 l0 -194 q-91 -44 -172.5 -71 q-81.5 -27 -158.5 -37 q-77 -10 -121 -12.5 q-44 -2.5 -117 -2.5 q-96 0 -184 17 q-88 17 -167 55.5 q-79 38.5 -137 94.5 q-58 56 -92 139 q-34 83 -34 185 Z" /><glyph glyph-name="uni063A" unicode="&#x63a;" d="M113 -287 q0 183 109 310 q109 127 286 176 q-109 94 -109 237 q0 187 121.5 297.5 q121.5 110.5 308.5 110.5 q72 0 131 -12.5 q59 -12.5 90.5 -26.5 q31.5 -14 69.5 -37 l0 -227 q-46 26 -72 38 q-26 12 -81.5 25.5 q-55.5 13.5 -120.5 13.5 q-109 0 -174.5 -53 q-65.5 -53 -65.5 -141 q0 -58 26.5 -99 q26.5 -41 72.5 -61.5 q46 -20.5 94 -29.5 q48 -9 104 -9 l301 0 l0 -225 l-370 0 q-91 0 -158.5 -5 q-67.5 -5 -139 -21.5 q-71.5 -16.5 -116.5 -45.5 q-45 -29 -74 -80 q-29 -51 -29 -122 q0 -121 126.5 -200 q126.5 -79 316.5 -79 q307 0 536 92 l0 -194 q-91 -44 -172.5 -71 q-81.5 -27 -158.5 -37 q-77 -10 -121 -12.5 q-44 -2.5 -117 -2.5 q-96 0 -184 17 q-88 17 -167 55.5 q-79 38.5 -137 94.5 q-58 56 -92 139 q-34 83 -34 185 ZM657 1165 l158 160 l158 -160 l-158 -157 l-158 157 Z" /><glyph glyph-name="uni0640" unicode="&#x640;" d="M-41 4 l0 217 l41 4 l102 0 l41 -4 l0 -217 l-41 -4 l-102 0 l-41 4 Z" /><glyph glyph-name="uni0641" unicode="&#x641;" d="M117 438 q0 95 18 171.5 q18 76.5 70 193.5 l190 0 q-41 -115 -58.5 -182.5 q-17.5 -67.5 -17.5 -128.5 q0 -122 86 -194.5 q86 -72.5 277 -72.5 l422 0 q48 0 78.5 2 q30.5 2 67 11.5 q36.5 9.5 60.5 26.5 q24 17 46 48 q22 31 35 76 l-258 0 q-51 0 -96 14.5 q-45 14.5 -83.5 44.5 q-38.5 30 -61 83.5 q-22.5 53.5 -22.5 125.5 q0 63 15 129 q15 66 46.5 128.5 q31.5 62.5 74.5 111.5 q43 49 103.5 79 q60.5 30 129.5 30 q88 0 160.5 -48.5 q72.5 -48.5 118.5 -128.5 q46 -80 71 -179.5 q25 -99.5 25 -205.5 q0 -292 -124.5 -432.5 q-124.5 -140.5 -385.5 -140.5 l-412 0 q-274 0 -424.5 117.5 q-150.5 117.5 -150.5 320.5 ZM1071 702 q0 -56 25 -82 q25 -26 65 -26 l252 0 l0 6 q0 153 -53.5 236.5 q-53.5 83.5 -132.5 83.5 q-66 0 -111 -67 q-45 -67 -45 -151 ZM1081 1456 l158 160 l158 -160 l-158 -158 l-158 158 Z" /><glyph glyph-name="uni0642" unicode="&#x642;" d="M51 -29 q0 269 115 508 l190 0 q-100 -249 -100 -454 q0 -197 130 -294.5 q130 -97.5 359 -97.5 q138 0 235.5 25.5 q97.5 25.5 154.5 75 q57 49.5 82.5 114.5 q25.5 65 25.5 152 l-321 0 q-41 0 -77 6.5 q-36 6.5 -71 23.5 q-35 17 -60 44.5 q-25 27.5 -40 71.5 q-15 44 -15 102 q0 88 26.5 180 q26.5 92 75 172 q48.5 80 126.5 131 q78 51 170 51 q118 0 207 -91 q89 -91 134.5 -244 q45.5 -153 45.5 -345 q0 -686 -707 -686 q-172 0 -305.5 43 q-133.5 43 -215.5 119.5 q-82 76.5 -123.5 176 q-41.5 99.5 -41.5 216.5 ZM774 1106 l158 160 l125 -127 l125 127 l157 -160 l-157 -158 l-125 125 l-125 -125 l-158 158 ZM860 313 q0 -42 25.5 -65 q25.5 -23 64.5 -23 l293 0 q-5 326 -199 326 q-80 0 -132 -75.5 q-52 -75.5 -52 -162.5 Z" /><glyph glyph-name="uni0643" unicode="&#x643;" d="M100 438 q0 95 18 171.5 q18 76.5 70 193.5 l191 0 q-41 -115 -58.5 -182.5 q-17.5 -67.5 -17.5 -128.5 q0 -122 86 -194.5 q86 -72.5 277 -72.5 l770 0 l0 1237 l204 41 l0 -1503 l-964 0 q-274 0 -425 118 q-151 118 -151 320 ZM598 797 l0 143 l147 27 q-47 32 -47 88 q0 67 28 131 q28 64 85 108.5 q57 44.5 129 44.5 q20 0 35 -1 q15 -1 27.5 -5 q12.5 -4 16.5 -5 q4 -1 16 -8 l12 -7 l0 -150 q-7 2 -31 12.5 q-24 10.5 -44 15.5 q-20 5 -46 5 q-39 0 -80 -37 q-41 -37 -41 -63 q0 -19 36.5 -50 q36.5 -31 82.5 -49 l227 41 l0 -141 l-553 -100 Z" /><glyph glyph-name="uni0644" unicode="&#x644;" d="M78 -29 q0 269 115 508 l190 0 q-100 -249 -100 -454 q0 -197 130 -294.5 q130 -97.5 359 -97.5 q138 0 235 25.5 q97 25.5 153 75 q56 49.5 81 114.5 q25 65 25 152 l0 1462 l204 41 l0 -1556 q0 -135 -54 -238.5 q-54 -103.5 -151 -166.5 q-97 -63 -223 -94.5 q-126 -31.5 -278 -31.5 q-172 0 -305.5 43 q-133.5 43 -215.5 119.5 q-82 76.5 -123.5 176 q-41.5 99.5 -41.5 216.5 Z" /><glyph glyph-name="uni0645" unicode="&#x645;" d="M100 -211 q0 104 17.5 182.5 q17.5 78.5 45.5 126.5 q28 48 70 77.5 q42 29.5 86 40.5 q44 11 97 11 l102 0 q239 512 486 512 q72 0 128.5 -25 q56.5 -25 94 -74 q37.5 -49 63 -110 q25.5 -61 38.5 -143.5 q13 -82.5 18.5 -163 q5.5 -80.5 5.5 -180.5 q0 -27 -7.5 -56.5 q-7.5 -29.5 -24.5 -60 q-17 -30.5 -42.5 -54.5 q-25.5 -24 -64.5 -39 q-39 -15 -87 -15 q-218 0 -499 182 l-164 0 q-59 0 -90.5 -19 q-31.5 -19 -49.5 -80.5 q-18 -61.5 -18 -181.5 l0 -278 l-205 0 l0 348 ZM725 205 q212 -148 377 -148 q57 0 57 76 q0 192 -34.5 281.5 q-34.5 89.5 -116.5 89.5 q-64 0 -143.5 -82 q-79.5 -82 -139.5 -217 Z" /><glyph glyph-name="uni0646" unicode="&#x646;" d="M98 -29 q0 269 115 508 l190 0 q-100 -249 -100 -454 q0 -197 130.5 -294.5 q130.5 -97.5 359.5 -97.5 q138 0 235 25.5 q97 25.5 152.5 75 q55.5 49.5 80.5 114.5 q25 65 25 152 l0 553 l205 41 l0 -647 q0 -135 -54.5 -238.5 q-54.5 -103.5 -151.5 -166.5 q-97 -63 -223 -94.5 q-126 -31.5 -278 -31.5 q-172 0 -305.5 43 q-133.5 43 -215.5 119.5 q-82 76.5 -123.5 176 q-41.5 99.5 -41.5 216.5 ZM657 791 l158 159 l158 -159 l-158 -158 l-158 158 Z" /><glyph glyph-name="uni0647" unicode="&#x647;" d="M133 324 q0 239 246 448 q-66 46 -119 78 l100 174 q249 -131 396 -321.5 q147 -190.5 147 -378.5 q0 -168 -96.5 -256 q-96.5 -88 -288.5 -88 q-192 0 -288.5 88 q-96.5 88 -96.5 256 ZM324 358 q0 -70 54 -106.5 q54 -36.5 134 -36.5 q87 0 144 36.5 q57 36.5 57 106.5 q0 121 -176 287 q-96 -47 -154.5 -123.5 q-58.5 -76.5 -58.5 -163.5 Z" /><glyph glyph-name="uni0648" unicode="&#x648;" d="M213 268 q0 69 18 145.5 q18 76.5 54.5 151.5 q36.5 75 85.5 135.5 q49 60.5 118 98 q69 37.5 146 37.5 q105 0 185 -58 q80 -58 126.5 -158.5 q46.5 -100.5 69 -222.5 q22.5 -122 22.5 -262 q0 -326 -117.5 -501 q-117.5 -175 -361.5 -175 q-142 0 -309 47 l0 205 q112 -41 258 -41 q139 0 217.5 76.5 q78.5 76.5 101.5 253.5 l-311 0 q-149 0 -226 61 q-77 61 -77 207 ZM414 313 q0 -50 31 -69 q31 -19 98 -19 l293 0 q-10 179 -73.5 277 q-63.5 98 -152.5 98 q-74 0 -135 -90 q-61 -90 -61 -197 Z" /><glyph glyph-name="uni0649" unicode="&#x649;" d="M113 -88 q0 189 102 401 l180 0 q-88 -219 -88 -352 q0 -65 20.5 -113 q20.5 -48 56 -77.5 q35.5 -29.5 90.5 -48 q55 -18.5 115.5 -25 q60.5 -6.5 139.5 -6.5 q237 0 350 54.5 q113 54.5 113 145.5 q0 35 -11.5 62 q-11.5 27 -36 46.5 q-24.5 19.5 -52.5 33.5 q-28 14 -73 25 q-45 11 -85 17.5 q-40 6.5 -100 14.5 l-191 25 q4 109 31 209.5 q27 100.5 82.5 190 q55.5 89.5 133.5 155.5 q78 66 189.5 104.5 q111.5 38.5 245.5 38.5 l0 -223 q-88 0 -162 -22 q-74 -22 -122 -55.5 q-48 -33.5 -85 -78 q-37 -44.5 -55.5 -83 q-18.5 -38.5 -28.5 -77.5 l97 -10 q417 -45 417 -315 q0 -112 -34 -198.5 q-34 -86.5 -108.5 -153.5 q-74.5 -67 -205 -102.5 q-130.5 -35.5 -311.5 -35.5 q-311 0 -462.5 119 q-151.5 119 -151.5 334 Z" /><glyph glyph-name="uni064A" unicode="&#x64a;" d="M113 -88 q0 189 102 401 l180 0 q-88 -219 -88 -352 q0 -65 20.5 -113 q20.5 -48 56 -77.5 q35.5 -29.5 90.5 -48 q55 -18.5 115.5 -25 q60.5 -6.5 139.5 -6.5 q237 0 350 54.5 q113 54.5 113 145.5 q0 35 -11.5 62 q-11.5 27 -36 46.5 q-24.5 19.5 -52.5 33.5 q-28 14 -73 25 q-45 11 -85 17.5 q-40 6.5 -100 14.5 l-191 25 q4 109 31 209.5 q27 100.5 82.5 190 q55.5 89.5 133.5 155.5 q78 66 189.5 104.5 q111.5 38.5 245.5 38.5 l0 -223 q-88 0 -162 -22 q-74 -22 -122 -55.5 q-48 -33.5 -85 -78 q-37 -44.5 -55.5 -83 q-18.5 -38.5 -28.5 -77.5 l97 -10 q417 -45 417 -315 q0 -112 -34 -198.5 q-34 -86.5 -108.5 -153.5 q-74.5 -67 -205 -102.5 q-130.5 -35.5 -311.5 -35.5 q-311 0 -462.5 119 q-151.5 119 -151.5 334 ZM430 -936 l158 160 l125 -127 l125 127 l157 -160 l-157 -158 l-125 125 l-125 -125 l-158 158 Z" /><glyph glyph-name="uni064B" unicode="&#x64b;" d="M193 905 l0 101 l512 92 l0 -101 l-512 -92 ZM193 1190 l0 100 l512 92 l0 -100 l-512 -92 Z" /><glyph glyph-name="uni064C" unicode="&#x64c;" d="M113 850 l0 86 q24 31 64.5 51.5 q40.5 20.5 74.5 20.5 q26 0 44.5 -7 q18.5 -7 32.5 -25 q14 -18 20.5 -29.5 q6.5 -11.5 19.5 -39.5 q218 44 290 90 q-44 -12 -118 -12 q-30 0 -48 2 q-18 2 -38 10 q-20 8 -29.5 26.5 q-9.5 18.5 -9.5 47.5 q0 53 21.5 113 q21.5 60 67 107.5 q45.5 47.5 101.5 47.5 q70 0 120 -90.5 q50 -90.5 50 -195.5 q0 -173 -459 -252 q-17 60 -38 92.5 q-21 32.5 -54 32.5 q-25 0 -61 -27 q-36 -27 -51 -49 ZM512 1110 q0 -26 9.5 -31.5 q9.5 -5.5 41.5 -5.5 q62 0 127 14 q-13 61 -38 110.5 q-25 49.5 -48 49.5 q-34 0 -63 -51.5 q-29 -51.5 -29 -85.5 Z" /><glyph glyph-name="uni064D" unicode="&#x64d;" d="M397 -315 l512 92 l0 -101 l-512 -92 l0 101 ZM397 -600 l512 92 l0 -100 l-512 -92 l0 100 Z" /><glyph glyph-name="uni064E" unicode="&#x64e;" d="M193 905 l0 101 l512 92 l0 -101 l-512 -92 Z" /><glyph glyph-name="uni064F" unicode="&#x64f;" d="M63 795 l0 98 q1 0 76.5 15 q75.5 15 111.5 23.5 q36 8.5 94.5 26 q58.5 17.5 92.5 35.5 q-44 -8 -106 -8 q-30 0 -48 2 q-18 2 -38 10 q-20 8 -29.5 26.5 q-9.5 18.5 -9.5 47.5 q0 53 21.5 113 q21.5 60 67 107.5 q45.5 47.5 101.5 47.5 q70 0 120 -90.5 q50 -90.5 50 -195.5 q0 -53 -40.5 -95.5 q-40.5 -42.5 -116 -73 q-75.5 -30.5 -157.5 -51 q-82 -20.5 -190 -38.5 ZM303 1110 q0 -26 9.5 -31.5 q9.5 -5.5 41.5 -5.5 q62 0 127 14 q-13 61 -38 110.5 q-25 49.5 -48 49.5 q-34 0 -63 -51.5 q-29 -51.5 -29 -85.5 Z" /><glyph glyph-name="uni0650" unicode="&#x650;" d="M397 -315 l512 92 l0 -101 l-512 -92 l0 101 Z" /><glyph glyph-name="uni0651" unicode="&#x651;" d="M152 1036 l0 84 l94 0 l0 -53 q0 -63 20 -91 q20 -28 70 -28 q53 0 73.5 29.5 q20.5 29.5 20.5 101.5 l0 62 l94 0 l0 -41 q0 -72 19.5 -101.5 q19.5 -29.5 70.5 -29.5 q93 0 93 118 l0 74 l94 0 l0 -104 q0 -84 -46 -134.5 q-46 -50.5 -130 -50.5 q-103 0 -146 74 q-42 -94 -149 -94 q-97 0 -137.5 48 q-40.5 48 -40.5 136 Z" /><glyph glyph-name="uni0652" unicode="&#x652;" d="M420 1096 q0 52 21 107.5 q21 55.5 64.5 96.5 q43.5 41 96.5 41 q77 0 134 -75 q57 -75 57 -168 q0 -68 -54.5 -111 q-54.5 -43 -140.5 -43 q-78 0 -128 43 q-50 43 -50 109 ZM508 1110 q0 -66 92 -66 q47 0 76 17 q29 17 29 49 q0 45 -34 91 q-34 46 -71 46 q-36 0 -64 -45.5 q-28 -45.5 -28 -91.5 Z" /><glyph glyph-name="uni0653" unicode="&#x653;" d="M244 1315 l0 98 q20 12 29.5 16.5 q9.5 4.5 33 10.5 q23.5 6 51.5 6 q42 0 118.5 -16.5 q76.5 -16.5 113.5 -16.5 q81 0 133 33 l0 -98 q-52 -33 -133 -33 q-40 0 -116 16.5 q-76 16.5 -118 16.5 q-28 0 -51 -5.5 q-23 -5.5 -33.5 -11 q-10.5 -5.5 -27.5 -16.5 Z" /><glyph glyph-name="uni0654" unicode="&#x654;" d="M346 1182 l0 98 l178 33 q-88 36 -88 100 q0 102 67.5 187.5 q67.5 85.5 164.5 85.5 q54 0 106 -27 l0 -107 q-6 2 -20 7 q-14 5 -22 7.5 q-8 2.5 -21 6 q-13 3.5 -27.5 5 q-14.5 1.5 -30.5 1.5 q-52 0 -96.5 -45.5 q-44.5 -45.5 -44.5 -79.5 q0 -26 59.5 -66.5 q59.5 -40.5 118.5 -46.5 l168 31 l0 -98 l-512 -92 Z" /><glyph glyph-name="uni0655" unicode="&#x655;" d="M346 -610 l176 30 q-86 40 -86 101 q0 102 67.5 187 q67.5 85 164.5 85 q56 0 106 -26 l0 -107 q-6 2 -20 7 q-14 5 -22 7.5 q-8 2.5 -21 6 q-13 3.5 -27.5 5 q-14.5 1.5 -30.5 1.5 q-52 0 -96.5 -45.5 q-44.5 -45.5 -44.5 -79.5 q0 -26 58.5 -66.5 q58.5 -40.5 117.5 -46.5 l170 31 l0 -98 l-512 -93 l0 101 Z" /><glyph glyph-name="uni0656" unicode="&#x656;" d="" /><glyph glyph-name="uni0660" unicode="&#x660;" d="M150 715 q0 751 464 751 q465 0 465 -751 q0 -752 -465 -752 q-464 0 -464 752 ZM614 1278 q-239 0 -239 -563 q0 -563 239 -563 q122 0 181 146 q59 146 59 417 q0 271 -59 417 q-59 146 -181 146 Z" /><glyph glyph-name="uni0661" unicode="&#x661;" d="M270 1053 l0 204 l533 209 l10 0 l0 -1466 l-205 0 l0 1184 l-338 -131 Z" /><glyph glyph-name="uni0662" unicode="&#x662;" d="M123 0 l0 201 l459 415 q120 108 188 222.5 q68 114.5 68 212.5 q0 106 -61 162.5 q-61 56.5 -167 56.5 q-106 0 -169 -69 q-63 -69 -72 -193 l-201 0 q9 209 123 333.5 q114 124.5 330 124.5 q204 0 313.5 -112 q109.5 -112 109.5 -307 q0 -259 -315 -547 l-336 -307 l711 0 l0 -193 l-981 0 Z" /><glyph glyph-name="uni0663" unicode="&#x663;" d="M121 408 l203 0 q9 -114 77.5 -179 q68.5 -65 178.5 -65 q121 0 190.5 60.5 q69.5 60.5 69.5 166.5 q0 118 -69 186 q-69 68 -189 68 l-99 0 l0 174 l99 0 q215 0 215 234 q0 101 -58.5 159 q-58.5 58 -158.5 58 q-97 0 -156.5 -63 q-59.5 -63 -71.5 -189 l-200 0 q13 208 128.5 328 q115.5 120 299.5 120 q196 0 310 -109.5 q114 -109.5 114 -299.5 q0 -100 -42 -182 q-42 -82 -116 -132 q96 -47 148.5 -137.5 q52.5 -90.5 52.5 -208.5 q0 -200 -125 -315 q-125 -115 -342 -115 q-209 0 -331 118 q-122 118 -128 323 Z" /><glyph glyph-name="uni0664" unicode="&#x664;" d="M90 313 l0 176 l617 945 l258 0 l0 -928 l217 0 l0 -193 l-217 0 l0 -313 l-205 0 l0 313 l-670 0 ZM311 506 l449 0 l0 686 l-449 -686 Z" /><glyph glyph-name="uni0665" unicode="&#x665;" d="M164 403 l203 0 q13 -113 83.5 -180 q70.5 -67 172.5 -67 q131 0 197.5 78 q66.5 78 66.5 219 q0 125 -64 202.5 q-64 77.5 -188 77.5 q-76 0 -133.5 -27 q-57.5 -27 -85.5 -69 l-201 14 l72 783 l743 0 l0 -193 l-571 0 l-39 -403 q67 40 127.5 62 q60.5 22 138.5 22 q190 0 306 -129.5 q116 -129.5 116 -333.5 q0 -227 -130.5 -359.5 q-130.5 -132.5 -352.5 -132.5 q-216 0 -332.5 117 q-116.5 117 -128.5 319 Z" /><glyph glyph-name="uni0666" unicode="&#x666;" d="M131 694 q0 174 31 313.5 q31 139.5 93.5 243 q62.5 103.5 164 159.5 q101.5 56 235.5 56 q195 0 305.5 -108.5 q110.5 -108.5 131.5 -288.5 l-207 0 q-21 103 -84 156 q-63 53 -150 53 q-92 0 -158 -65 q-66 -65 -98.5 -176 q-32.5 -111 -36.5 -261 q108 139 324 139 q201 0 316.5 -119.5 q115.5 -119.5 115.5 -326.5 q0 -233 -132 -367.5 q-132 -134.5 -359 -134.5 q-249 0 -370.5 175 q-121.5 175 -121.5 552 ZM375 457 q0 -140 69.5 -220.5 q69.5 -80.5 190.5 -80.5 q123 0 193.5 80.5 q70.5 80.5 70.5 220.5 q0 126 -70.5 198 q-70.5 72 -193.5 72 q-121 0 -190.5 -72 q-69.5 -72 -69.5 -198 Z" /><glyph glyph-name="uni0667" unicode="&#x667;" d="M160 1243 l0 191 l909 0 l0 -189 l-506 -1245 l-221 0 l506 1243 l-688 0 Z" /><glyph glyph-name="uni0668" unicode="&#x668;" d="M131 397 q0 119 56 210 q56 91 157 141 q-160 120 -160 309 q0 183 116 296 q116 113 314 113 q198 0 314 -113 q116 -113 116 -296 q0 -190 -159 -309 q101 -50 157 -141 q56 -91 56 -210 q0 -192 -130.5 -311 q-130.5 -119 -353.5 -119 q-223 0 -353 119 q-130 119 -130 311 ZM346 410 q0 -108 73.5 -173 q73.5 -65 194.5 -65 q121 0 195 65 q74 65 74 173 q0 112 -74.5 182 q-74.5 70 -194.5 70 q-120 0 -194 -69.5 q-74 -69.5 -74 -182.5 ZM393 1032 q0 -98 60 -155.5 q60 -57.5 161 -57.5 q102 0 162 57.5 q60 57.5 60 155.5 q0 106 -60 167 q-60 61 -162 61 q-102 0 -161.5 -60.5 q-59.5 -60.5 -59.5 -167.5 Z" /><glyph glyph-name="uni0669" unicode="&#x669;" d="M115 961 q0 233 131.5 367 q131.5 134 359.5 134 q249 0 370.5 -175 q121.5 -175 121.5 -552 q0 -234 -54 -404 q-54 -170 -173.5 -269 q-119.5 -99 -297.5 -99 q-195 0 -305 108.5 q-110 108.5 -131 288.5 l207 0 q21 -103 84 -155.5 q63 -52.5 150 -52.5 q92 0 157.5 65 q65.5 65 98 175.5 q32.5 110.5 36.5 260.5 q-108 -139 -323 -139 q-201 0 -316.5 120 q-115.5 120 -115.5 327 ZM330 973 q0 -126 70.5 -198.5 q70.5 -72.5 193.5 -72.5 q121 0 190.5 72.5 q69.5 72.5 69.5 198.5 q0 140 -69.5 220.5 q-69.5 80.5 -190.5 80.5 q-123 0 -193.5 -80.5 q-70.5 -80.5 -70.5 -220.5 Z" /><glyph glyph-name="uni066A" unicode="&#x66a;" d="M80 1309 l158 157 l155 -155 l-155 -158 l-158 156 ZM166 0 l713 1434 l143 0 l-713 -1434 l-143 0 ZM795 123 l157 158 l156 -156 l-156 -158 l-157 156 Z" /><glyph glyph-name="uni066B" unicode="&#x66b;" d="" /><glyph glyph-name="uni066C" unicode="&#x66c;" d="" /><glyph glyph-name="uni066D" unicode="&#x66d;" d="M127 279 l338 159 l-338 162 l68 119 l309 -215 l-31 375 l137 0 l-30 -373 l309 213 l67 -119 l-338 -160 l338 -161 l-67 -119 l-309 215 l30 -375 l-137 0 l31 373 l-309 -213 l-68 119 ZM473 440 l35 -59 l67 0 l35 57 l-35 60 l-67 0 l-35 -58 Z" /><glyph glyph-name="uni066E" unicode="&#x66e;" d="M96 438 q0 95 18 171.5 q18 76.5 70 193.5 l191 0 q-41 -115 -58.5 -182.5 q-17.5 -67.5 -17.5 -128.5 q0 -122 86 -194.5 q86 -72.5 277 -72.5 l770 0 l0 604 l204 41 l0 -870 l-964 0 q-274 0 -425 118 q-151 118 -151 320 Z" /><glyph glyph-name="uni066F" unicode="&#x66f;" d="M51 -29 q0 269 115 508 l190 0 q-100 -249 -100 -454 q0 -197 130 -294.5 q130 -97.5 359 -97.5 q138 0 235.5 25.5 q97.5 25.5 154.5 75 q57 49.5 82.5 114.5 q25.5 65 25.5 152 l-321 0 q-41 0 -77 6.5 q-36 6.5 -71 23.5 q-35 17 -60 44.5 q-25 27.5 -40 71.5 q-15 44 -15 102 q0 88 26.5 180 q26.5 92 75 172 q48.5 80 126.5 131 q78 51 170 51 q118 0 207 -91 q89 -91 134.5 -244 q45.5 -153 45.5 -345 q0 -686 -707 -686 q-172 0 -305.5 43 q-133.5 43 -215.5 119.5 q-82 76.5 -123.5 176 q-41.5 99.5 -41.5 216.5 ZM860 313 q0 -42 25.5 -65 q25.5 -23 64.5 -23 l293 0 q-5 326 -199 326 q-80 0 -132 -75.5 q-52 -75.5 -52 -162.5 Z" /><glyph glyph-name="uni0670" unicode="&#x670;" d="" /><glyph glyph-name="uni0671" unicode="&#x671;" d="M166 0 l0 1462 l205 41 l0 -1503 l-205 0 Z" /><glyph glyph-name="uni06A1" unicode="&#x6a1;" d="M117 438 q0 95 18 171.5 q18 76.5 70 193.5 l190 0 q-41 -115 -58.5 -182.5 q-17.5 -67.5 -17.5 -128.5 q0 -122 86 -194.5 q86 -72.5 277 -72.5 l422 0 q48 0 78.5 2 q30.5 2 67 11.5 q36.5 9.5 60.5 26.5 q24 17 46 48 q22 31 35 76 l-258 0 q-51 0 -96 14.5 q-45 14.5 -83.5 44.5 q-38.5 30 -61 83.5 q-22.5 53.5 -22.5 125.5 q0 63 15 129 q15 66 46.5 128.5 q31.5 62.5 74.5 111.5 q43 49 103.5 79 q60.5 30 129.5 30 q88 0 160.5 -48.5 q72.5 -48.5 118.5 -128.5 q46 -80 71 -179.5 q25 -99.5 25 -205.5 q0 -292 -124.5 -432.5 q-124.5 -140.5 -385.5 -140.5 l-412 0 q-274 0 -424.5 117.5 q-150.5 117.5 -150.5 320.5 ZM1071 702 q0 -56 25 -82 q25 -26 65 -26 l252 0 l0 6 q0 153 -53.5 236.5 q-53.5 83.5 -132.5 83.5 q-66 0 -111 -67 q-45 -67 -45 -151 Z" /><glyph glyph-name="uni06A4" unicode="&#x6a4;" d="M117 438 q0 95 18 171.5 q18 76.5 70 193.5 l190 0 q-41 -115 -58.5 -182.5 q-17.5 -67.5 -17.5 -128.5 q0 -122 86 -194.5 q86 -72.5 277 -72.5 l422 0 q48 0 78.5 2 q30.5 2 67 11.5 q36.5 9.5 60.5 26.5 q24 17 46 48 q22 31 35 76 l-258 0 q-51 0 -96 14.5 q-45 14.5 -83.5 44.5 q-38.5 30 -61 83.5 q-22.5 53.5 -22.5 125.5 q0 63 15 129 q15 66 46.5 128.5 q31.5 62.5 74.5 111.5 q43 49 103.5 79 q60.5 30 129.5 30 q88 0 160.5 -48.5 q72.5 -48.5 118.5 -128.5 q46 -80 71 -179.5 q25 -99.5 25 -205.5 q0 -292 -124.5 -432.5 q-124.5 -140.5 -385.5 -140.5 l-412 0 q-274 0 -424.5 117.5 q-150.5 117.5 -150.5 320.5 ZM981 1442 l143 145 l113 -114 l113 114 l145 -145 l-145 -144 l-113 113 l-113 -113 l-143 144 ZM1071 702 q0 -56 25 -82 q25 -26 65 -26 l252 0 l0 6 q0 153 -53.5 236.5 q-53.5 83.5 -132.5 83.5 q-66 0 -111 -67 q-45 -67 -45 -151 ZM1096 1714 l143 144 l143 -144 l-143 -143 l-143 143 Z" /><glyph glyph-name="uni06BA" unicode="&#x6ba;" d="M98 -29 q0 269 115 508 l190 0 q-100 -249 -100 -454 q0 -197 130.5 -294.5 q130.5 -97.5 359.5 -97.5 q138 0 235 25.5 q97 25.5 152.5 75 q55.5 49.5 80.5 114.5 q25 65 25 152 l0 553 l205 41 l0 -647 q0 -135 -54.5 -238.5 q-54.5 -103.5 -151.5 -166.5 q-97 -63 -223 -94.5 q-126 -31.5 -278 -31.5 q-172 0 -305.5 43 q-133.5 43 -215.5 119.5 q-82 76.5 -123.5 176 q-41.5 99.5 -41.5 216.5 Z" /><glyph glyph-name="uni1E0C" unicode="&#x1e0c;" d="M162 0 l0 1456 l420 0 q292 0 468.5 -186 q176.5 -186 176.5 -502 l0 -82 q0 -317 -178 -501.5 q-178 -184.5 -484 -184.5 l-403 0 ZM375 172 l190 0 q218 0 333.5 133 q115.5 133 115.5 381 l0 84 q0 247 -113 379.5 q-113 132.5 -319 132.5 l-207 0 l0 -1110 ZM471 -233 q0 49 32.5 80.5 q32.5 31.5 88.5 31.5 q56 0 88.5 -31.5 q32.5 -31.5 32.5 -80.5 q0 -48 -32.5 -79.5 q-32.5 -31.5 -88.5 -31.5 q-56 0 -88.5 31.5 q-32.5 31.5 -32.5 79.5 Z" /><glyph glyph-name="uni1E0D" unicode="&#x1e0d;" d="M88 528 l0 23 q0 246 115 398.5 q115 152.5 313 152.5 q183 0 293 -125 l0 559 l207 0 l0 -1536 l-189 0 l-10 117 q-112 -137 -303 -137 q-190 0 -308 154.5 q-118 154.5 -118 393.5 ZM295 528 q0 -96 29 -188 q29 -89 89.5 -138.5 q60.5 -49.5 151.5 -49.5 q167 0 244 147 l0 487 q-78 146 -242 146 q-132 0 -202 -105 q-70 -105 -70 -276 l0 -23 ZM485 -244 q0 49 32.5 81 q32.5 32 88.5 32 q56 0 88.5 -32 q32.5 -32 32.5 -81 q0 -48 -32.5 -79 q-32.5 -31 -88.5 -31 q-56 0 -88.5 31 q-32.5 31 -32.5 79 Z" /><glyph glyph-name="uni1E24" unicode="&#x1e24;" d="M162 0 l0 1456 l213 0 l0 -620 l704 0 l0 620 l213 0 l0 -1456 l-213 0 l0 664 l-704 0 l0 -664 l-213 0 ZM592 -233 q0 49 32.5 80.5 q32.5 31.5 88.5 31.5 q56 0 88.5 -31.5 q32.5 -31.5 32.5 -80.5 q0 -48 -32.5 -79.5 q-32.5 -31.5 -88.5 -31.5 q-56 0 -88.5 31.5 q-32.5 31.5 -32.5 79.5 Z" /><glyph glyph-name="uni1E25" unicode="&#x1e25;" d="M133 0 l0 1536 l207 0 l0 -580 q121 146 311 146 q350 0 350 -397 l0 -705 l-206 0 l0 707 q0 119 -50.5 172 q-50.5 53 -156.5 53 q-84 0 -147.5 -42.5 q-63.5 -42.5 -100.5 -115.5 l0 -774 l-207 0 ZM461 -233 q0 49 32.5 80.5 q32.5 31.5 88.5 31.5 q56 0 88 -31.5 q32 -31.5 32 -80.5 q0 -49 -32 -80 q-32 -31 -88 -31 q-56 0 -88.5 31.5 q-32.5 31.5 -32.5 79.5 Z" /><glyph glyph-name="uni1E62" unicode="&#x1e62;" d="M80 428 l213 0 q0 -71 26.5 -125 q26.5 -54 74.5 -86.5 q48 -32.5 109 -48.5 q61 -16 134 -16 q144 0 220.5 58 q76.5 58 76.5 161 q0 102 -71.5 158.5 q-71.5 56.5 -262.5 113.5 q-147 45 -248 100 q-227 121 -227 334 q0 174 141 287 q141 113 363 113 q162 0 280 -62 q114 -61 175 -161 q61 -100 61 -220 l-213 0 q0 117 -74.5 194 q-74.5 77 -230.5 77 q-138 0 -213.5 -62 q-75.5 -62 -75.5 -164 q0 -88 81 -148.5 q81 -60.5 251 -105.5 q248 -71 363.5 -176 q115.5 -105 115.5 -276 q0 -177 -138.5 -285 q-138.5 -108 -373.5 -108 q-155 0 -280.5 51.5 q-125.5 51.5 -201 155 q-75.5 103.5 -75.5 241.5 ZM508 -244 q0 49 32.5 81 q32.5 32 88.5 32 q56 0 88.5 -32 q32.5 -32 32.5 -81 q0 -48 -32.5 -79 q-32.5 -31 -88.5 -31 q-56 0 -88.5 31 q-32.5 31 -32.5 79 Z" /><glyph glyph-name="uni1E63" unicode="&#x1e63;" d="M86 336 l205 0 q3 -73 41 -117 q67 -78 205 -78 q100 0 160.5 41.5 q60.5 41.5 60.5 106.5 q0 68 -54 109 q-54 41 -192 71 q-188 35 -287.5 110.5 q-99.5 75.5 -99.5 202.5 q0 136 113 228 q113 92 292 92 q189 0 304.5 -97 q115.5 -97 115.5 -243 l-205 0 q0 71 -57.5 124.5 q-57.5 53.5 -157.5 53.5 q-100 0 -151 -43.5 q-51 -43.5 -51 -108.5 q0 -61 53.5 -96 q53.5 -35 185.5 -63 q197 -44 295.5 -119.5 q98.5 -75.5 98.5 -206.5 q0 -142 -116 -232.5 q-116 -90.5 -310 -90.5 q-144 0 -244 53 q-99 52 -152 131.5 q-53 79.5 -53 171.5 ZM430 -254 q0 49 32.5 81 q32.5 32 88.5 32 q56 0 88.5 -32 q32.5 -32 32.5 -81 q0 -48 -32.5 -79.5 q-32.5 -31.5 -88.5 -31.5 q-56 0 -88.5 31.5 q-32.5 31.5 -32.5 79.5 Z" /><glyph glyph-name="uni1E6C" unicode="&#x1e6c;" d="M47 1282 l0 174 l1139 0 l0 -174 l-465 0 l0 -1282 l-211 0 l0 1282 l-463 0 ZM492 -244 q0 49 32.5 81 q32.5 32 87.5 32 q56 0 88.5 -32 q32.5 -32 32.5 -81 q0 -48 -32.5 -79 q-32.5 -31 -88.5 -31 q-56 0 -88 31 q-32 31 -32 79 Z" /><glyph glyph-name="uni1E6D" unicode="&#x1e6d;" d="M10 928 l0 153 l189 0 l0 265 l207 0 l0 -265 l196 0 l0 -153 l-196 0 l0 -649 q0 -73 28.5 -99 q28.5 -26 87.5 -26 q6 0 86 10 l2 -164 q-82 -20 -149 -20 q-50 0 -92.5 12.5 q-42.5 12.5 -83 43 q-40.5 30.5 -63.5 91.5 q-23 61 -23 147 l0 654 l-189 0 ZM324 -244 q0 49 32.5 81 q32.5 32 87.5 32 q56 0 88.5 -32 q32.5 -32 32.5 -81 q0 -48 -32.5 -79 q-32.5 -31 -88.5 -31 q-56 0 -88 31 q-32 31 -32 79 Z" /><glyph glyph-name="Wgrave" unicode="&#x1e80;" d="M55 1456 l213 0 l232 -1040 l16 -127 l23 110 l288 1057 l179 0 l282 -1059 l25 -114 l16 135 l227 1038 l213 0 l-346 -1456 l-198 0 l-303 1100 l-4 24 l-5 -26 l-311 -1098 l-199 0 l-348 1456 ZM598 1847 l242 0 l192 -297 l-174 0 l-260 297 Z" /><glyph glyph-name="wgrave" unicode="&#x1e81;" d="M41 1081 l203 0 l198 -784 l242 784 l160 0 l246 -798 l194 798 l203 0 l-305 -1081 l-168 0 l-252 797 l-248 -797 l-168 0 l-305 1081 ZM438 1536 l242 0 l192 -297 l-174 0 l-260 297 Z" /><glyph glyph-name="Wacute" unicode="&#x1e82;" d="M55 1456 l213 0 l232 -1040 l16 -127 l23 110 l288 1057 l179 0 l282 -1059 l25 -114 l16 135 l227 1038 l213 0 l-346 -1456 l-198 0 l-303 1100 l-4 24 l-5 -26 l-311 -1098 l-199 0 l-348 1456 ZM811 1550 l195 297 l241 0 l-270 -297 l-166 0 Z" /><glyph glyph-name="wacute" unicode="&#x1e83;" d="M41 1081 l203 0 l198 -784 l242 784 l160 0 l246 -798 l194 798 l203 0 l-305 -1081 l-168 0 l-252 797 l-248 -797 l-168 0 l-305 1081 ZM651 1239 l195 297 l241 0 l-270 -297 l-166 0 Z" /><glyph glyph-name="uni1E92" unicode="&#x1e92;" d="M84 0 l0 150 l782 1132 l-772 0 l0 174 l1030 0 l0 -145 l-784 -1139 l813 0 l0 -172 l-1069 0 ZM489 -233 q0 49 32.5 80.5 q32.5 31.5 88.5 31.5 q56 0 88.5 -31.5 q32.5 -31.5 32.5 -80.5 q0 -48 -32.5 -79.5 q-32.5 -31.5 -88.5 -31.5 q-56 0 -88.5 31.5 q-32.5 31.5 -32.5 79.5 Z" /><glyph glyph-name="uni1E93" unicode="&#x1e93;" d="M86 0 l0 143 l582 772 l-572 0 l0 166 l830 0 l0 -137 l-586 -778 l612 0 l0 -166 l-866 0 ZM399 -233 q0 49 32.5 80.5 q32.5 31.5 88.5 31.5 q56 0 88.5 -31.5 q32.5 -31.5 32.5 -80.5 q0 -48 -32.5 -79.5 q-32.5 -31.5 -88.5 -31.5 q-56 0 -88.5 31.5 q-32.5 31.5 -32.5 79.5 Z" /><glyph glyph-name="Ygrave" unicode="&#x1ef2;" d="M12 1456 l242 0 l364 -719 l363 719 l242 0 l-498 -915 l0 -541 l-215 0 l0 541 l-498 915 ZM299 1845 l242 0 l192 -297 l-174 0 l-260 297 Z" /><glyph glyph-name="ygrave" unicode="&#x1ef3;" d="M18 1081 l224 0 l256 -786 l243 786 l220 0 l-435 -1247 q-17 -50 -41.5 -93 q-24.5 -43 -63 -85.5 q-38.5 -42.5 -95 -67 q-56.5 -24.5 -125.5 -24.5 q-59 0 -109 16 l-2 162 q17 0 27 -2 q10 -2 22 -2 q94 0 144.5 37 q50.5 37 81.5 129 l38 106 l-385 1071 ZM188 1536 l242 0 l193 -297 l-174 0 l-261 297 Z" /><glyph glyph-name="uni2000" unicode="&#x2000;" d="" /><glyph glyph-name="uni2001" unicode="&#x2001;" d="" /><glyph glyph-name="uni2002" unicode="&#x2002;" d="" /><glyph glyph-name="uni2003" unicode="&#x2003;" d="" /><glyph glyph-name="uni2004" unicode="&#x2004;" d="" /><glyph glyph-name="uni2005" unicode="&#x2005;" d="" /><glyph glyph-name="uni2006" unicode="&#x2006;" d="" /><glyph glyph-name="uni2007" unicode="&#x2007;" d="" /><glyph glyph-name="uni2008" unicode="&#x2008;" d="" /><glyph glyph-name="uni2009" unicode="&#x2009;" d="" /><glyph glyph-name="uni200A" unicode="&#x200a;" d="" /><glyph glyph-name="uni2010" unicode="&#x2010;" d="M102 459 l41 186 l652 0 l-41 -186 l-652 0 Z" /><glyph glyph-name="uni2011" unicode="&#x2011;" d="M102 459 l41 186 l652 0 l-41 -186 l-652 0 Z" /><glyph glyph-name="figuredash" unicode="&#x2012;" d="M102 459 l41 186 l652 0 l-41 -186 l-652 0 Z" /><glyph glyph-name="endash" unicode="&#x2013;" d="M55 455 l0 184 l899 0 l0 -184 l-899 0 Z" /><glyph glyph-name="emdash" unicode="&#x2014;" d="M55 455 l0 184 l1344 0 l0 -184 l-1344 0 Z" /><glyph glyph-name="quoteleft" unicode="&#x2018;" d="M145 1057 l72 377 l105 0 l0 -377 l-177 0 Z" /><glyph glyph-name="quoteright" unicode="&#x2019;" d="M145 1057 l0 377 l177 0 l-72 -377 l-105 0 Z" /><glyph glyph-name="quotesinglbase" unicode="&#x201a;" d="M186 -156 l0 422 l201 0 l-84 -422 l-117 0 Z" /><glyph glyph-name="quotedblleft" unicode="&#x201c;" d="M168 1057 l74 377 l104 0 l0 -377 l-178 0 ZM428 1057 l74 377 l104 0 l0 -377 l-178 0 Z" /><glyph glyph-name="quotedblright" unicode="&#x201d;" d="M168 1057 l0 377 l178 0 l-74 -377 l-104 0 ZM428 1057 l0 377 l178 0 l-74 -377 l-104 0 Z" /><glyph glyph-name="quotedblbase" unicode="&#x201e;" d="M197 -111 l0 377 l178 0 l-74 -377 l-104 0 Z" /><glyph glyph-name="bullet" unicode="&#x2022;" d="M260 674 l232 229 l227 -227 l-227 -232 l-232 230 Z" /><glyph glyph-name="ellipsis" unicode="&#x2026;" d="M178 160 l158 157 l156 -155 l-156 -158 l-158 156 ZM670 160 l157 157 l156 -155 l-156 -158 l-157 156 ZM1161 160 l158 157 l156 -155 l-156 -158 l-158 156 Z" /><glyph glyph-name="uni202F" unicode="&#x202f;" d="" /><glyph glyph-name="guilsinglleft" unicode="&#x2039;" d="M123 514 l446 447 l107 -107 l-342 -342 l340 -340 l-105 -104 l-446 446 Z" /><glyph glyph-name="guilsinglright" unicode="&#x203a;" d="M111 854 l106 107 l447 -447 l-447 -446 l-104 104 l340 340 l-342 342 Z" /><glyph glyph-name="fraction" unicode="&#x2044;" d="M20 0 l713 1434 l205 0 l-713 -1434 l-205 0 Z" /><glyph glyph-name="uni205F" unicode="&#x205f;" d="" /><glyph glyph-name="Euro" unicode="&#x20ac;" d="M61 498 l0 153 l113 0 l0 8 l0 138 l0 8 l-113 0 l0 153 l125 0 q40 241 192 380 q152 139 386 139 q242 0 381.5 -131 q139.5 -131 163.5 -363 l-213 0 q-21 158 -98 239 q-77 81 -234 81 q-148 0 -240.5 -89.5 q-92.5 -89.5 -122.5 -255.5 l428 0 l0 -153 l-440 0 l0 -6 l0 -140 l0 -8 l440 0 l0 -153 l-428 0 q29 -161 116.5 -252.5 q87.5 -91.5 232.5 -91.5 q168 0 245.5 78 q77.5 78 100.5 235 l211 0 q-12 -136 -78 -250 q-142 -237 -479 -237 q-225 0 -374.5 138.5 q-149.5 138.5 -189.5 379.5 l-125 0 Z" /><glyph glyph-name="trademark" unicode="&#x2122;" d="" /><glyph glyph-name="minus" unicode="&#x2212;" d="M55 455 l0 184 l791 0 l0 -184 l-791 0 Z" /><glyph glyph-name="approxequal" unicode="&#x2248;" d="" /><glyph glyph-name="notequal" unicode="&#x2260;" d="M55 274 l0 185 l269 0 l73 174 l-342 0 l0 184 l424 0 l74 172 l182 0 l-73 -172 l184 0 l0 -184 l-266 0 l-74 -174 l340 0 l0 -185 l-422 0 l-74 -172 l-182 0 l74 172 l-187 0 Z" /><glyph glyph-name="lessequal" unicode="&#x2264;" d="" /><glyph glyph-name="greaterequal" unicode="&#x2265;" d="" /><glyph glyph-name="lozenge" unicode="&#x25ca;" d="" /><glyph glyph-name="uni25FC" unicode="&#x25fc;" d="M0 0 l0 1085 l1085 0 l0 -1085 l-1085 0 Z" /><glyph glyph-name="uniF8FF" unicode="&#xf8ff;" d="M98 362 l0 64 l213 0 l0 -64 l-59 0 l0 -362 l-92 0 l0 362 l-62 0 ZM98 649 l0 115 q0 59 68 104 q36 25 84 25 l0 57 l88 56 l0 -269 l129 0 q-43 30 -43 78 q0 19 6 37 q8 25 33 44 q25 19 59 19 q17 0 35 -6 q14 -5 25.5 -13 q11.5 -8 18 -16 q6.5 -8 11 -15 q4.5 -7 6.5 -12 l3 -5 l4 -14 l-15 6 q-21 8 -45 8 q-27 0 -44 -13.5 q-17 -13.5 -17 -37.5 q0 -20 8 -39 q12 -23 63 -23 l87 -2 l0 -84 l-564 0 ZM117 1051 q0 20 13.5 34.5 q13.5 14.5 33.5 14.5 q20 0 33.5 -14.5 q13.5 -14.5 13.5 -34.5 q0 -19 -13.5 -33 q-13.5 -14 -33.5 -14 q-20 0 -33.5 14 q-13.5 14 -13.5 33 ZM184 737 l66 0 l0 74 q-32 0 -49 -20.5 q-17 -20.5 -17 -45.5 l0 -8 ZM219 1051 q0 20 13.5 34.5 q13.5 14.5 33.5 14.5 q20 0 34.5 -14.5 q14.5 -14.5 14.5 -34.5 q0 -19 -14.5 -33 q-14.5 -14 -34.5 -14 q-20 0 -33.5 14 q-13.5 14 -13.5 33 ZM346 0 l0 426 l90 0 l0 -182 l125 0 l0 182 l90 0 l0 -426 l-90 0 l0 182 l-125 0 l0 -182 l-90 0 ZM543 1392 q-103 177 -103 386 q0 209 103 386 q103 177 280.5 280.5 q177.5 103.5 386.5 103.5 q208 0 385 -103.5 q177 -103.5 280 -280.5 q103 -177 103 -386 q0 -209 -103 -386 q-103 -177 -280 -280.5 q-177 -103.5 -385 -103.5 q-209 0 -386.5 103.5 q-177.5 103.5 -280.5 280.5 ZM453 1778 q0 -154 60 -294.5 q60 -140.5 161.5 -242 q101.5 -101.5 241.5 -161.5 q140 -60 294 -60 q154 0 294 60 q140 60 241 161.5 q101 101.5 161 242 q60 140.5 60 294.5 q0 154 -60 294 q-60 140 -161 241.5 q-101 101.5 -241 161.5 q-140 60 -294 60 q-206 0 -380 -101.5 q-174 -101.5 -275.5 -275.5 q-101.5 -174 -101.5 -380 ZM510 1784 q0 185 99.5 346 q99.5 161 259.5 253.5 q160 92.5 335 92.5 q95 0 192.5 -28 q97.5 -28 190 -87 q92.5 -59 164.5 -141 q72 -82 115.5 -200 q43.5 -118 42.5 -255 q0 -111 -30 -210 q-30 -99 -82.5 -172.5 q-52.5 -73.5 -120.5 -132.5 q-68 -59 -146 -95.5 q-78 -36.5 -158.5 -56 q-80.5 -19.5 -157.5 -19.5 q-137 0 -264.5 52 q-127.5 52 -225 143 q-97.5 91 -156 224.5 q-58.5 133.5 -58.5 285.5 ZM655 2009 q-71 -173 -33 -355.5 q38 -182.5 171 -312.5 l4 -4 l-2 6 q-2 14 -2 33 l0 8 l-2 17 l-5 8 q-10 10 -10 29 q0 12 6 30 l11 54 l0 147 l-2 43 q-5 13 -5 27 q0 10 2 14 l0 2 l-2 12 q-4 20 -4 43 q0 11 4 39 q2 6 2 21 l0 8 q-4 9 -4 23 q6 6 9 24 l12 31 l4 16 q5 38 25 53 q10 14 20 33 q12 24 23 35 l6 2 q6 0 12 6 q5 5 9.5 12.5 q4.5 7.5 7 12.5 q2.5 5 3.5 6 q27 14 43 39 l17 10 q33 21 51 23 q12 10 43 16 l61 18 l19 3 q61 5 88 0 q27 -11 86.5 -31 q59.5 -20 87.5 -25 q36 -11 73 -40 q37 -29 44 -64 l0 -2 l2 0 q44 -27 63 -64 q13 -30 13 -80 q0 -39 -11 -67 q-6 -23 -22 -33 l0 12 q0 21 -4.5 37.5 q-4.5 16.5 -8.5 22.5 l-4 6 q-9 18 -38 18 q-12 0 -15 -8 q-4 -4 -4 -8 l0 -2 q0 -1 1 -3 q1 -2 1 -3 q0 -42 -20 -62 q-4 -8 -4 -14 q0 -3 6 -21 q9 -12 12 -34 q20 -10 45 -43 q3 -3 8.5 -10 q5.5 -7 8.5 -10.5 q3 -3.5 8 -8 q5 -4.5 10 -6.5 q-22 -7 -68 8 l-4 2 l4 -12 q4 -11 2 -13 q0 -2 -2 -2 q-40 0 -106 25 q-11 6 -60 55 l-20 25 q-11 16 -31 26 q-22 14 -30 27 l-3 8 q0 21 14 46.5 q14 25.5 48 43.5 l6 5 q68 30 158 22 l8 0 q58 -6 80 -49 l0 -4 q4 -26 16 -29 q10 3 12.5 31 q2.5 28 -8.5 67 q0 34 -28 70 q-13 3 -30.5 14 q-17.5 11 -23.5 17 l0 2 q0 21 -16 26 l2 5 l0 6 q-7 16 -29 20 q0 3 -8.5 12 q-8.5 9 -31.5 19.5 q-23 10.5 -52 11.5 l-4 2 q-40 11 -74 -6 l-2 -2 q-10 -10 -10 -16 l0 -2 q0 -11 14 -29 q-32 16 -41 16 q-16 0 -16 -6 q-3 -5 12 -14 l9 -6 q37 -21 32 -39 q-2 -2 -12 4 l-14 10 l0 -2 l-4 -10 q0 -33 -39 -66 q-6 0 -11 -10 q-3 -9 0 -12 q4 -7 21 -4 q15 2 35.5 15 q20.5 13 32.5 36 q-5 -35 -31 -55 l-4 -2 q-33 -7 -35 -29 q0 -10 9 -16.5 q9 -6.5 22 -6.5 l-7 -8 l-14 -16 l-4 -13 q-11 -22 -16 -26 l-2 -2 q-2 -2 -13 -2 l-6 2 l4 -6 l45 -45 q2 -5 0 -7 q-3 -6 -12 -2 q-33 0 -49 -32 q-39 0 -53 -35 l-2 0 q-34 -7 -45 -38 q-4 -12 -5 -26 q0 -4 -8 -12 q-14 -14 -14 -27 l0 -2 q0 -2 -2 -2 l-2 0 q-2 0 -2 4 l4 25 l-27 37 q-39 7 -41 16 q-3 9 5.5 22 q8.5 13 19.5 19 l2 0 q3 16 -6 25 q-7 7 -4 10 q0 6 4 10 l8 13 q5 7 -4 20 q-8 16 -6 23 q6 6 30 2 q21 0 25 4 l4 8 q0 7 -5.5 12.5 q-5.5 5.5 -12.5 7.5 q-9 9 -33 9 q-25 0 -37 8 q-6 6 -6 24 q0 36 -23 54 q-3 3 -14 4 q-11 1 -20 -2 q-16 -6 -19 -21 q-10 5 -18 0 q-4 0 -4 -8 q0 -4 2 -8 q-7 -36 -23 -41 q-4 -12 -4 -41 q0 -23 2 -33 l-2 -2 q-19 -31 2 -92 l-8 -12 q-6 -9 -12 -27 l-5 -37 q-4 -32 -4 -41 q0 -5 7 -12 q14 -9 18 -55 q0 -11 10 -21 q8 -8 8 -10 l15 -35 l2 0 q19 0 33 -4 q4 -20 30 -33 q2 -2 5.5 -4 q3.5 -2 5 -3 q1.5 -1 3 -3 q1.5 -2 1.5 -4 l-88 0 q-13 -2 -19 -10 q-4 -4 -4 -9 l2 -2 l2 -18 l4 -25 l2 0 q17 -7 22.5 -9.5 q5.5 -2.5 18 -10 q12.5 -7.5 19.5 -17.5 q7 -10 12 -24 l10 -4 q57 -19 80 -82 l4 -8 q0 -1 1 -2 q15 -31 34 -33 q22 -4 96 -2 q74 2 80 4 q0 -3 27 -19 q27 -16 68 -27.5 q41 -11.5 91 5.5 l9 2 q90 22 80 127 q0 42 28 55 q25 25 25 37 q0 2 -2.5 11.5 q-2.5 9.5 -3.5 15.5 q-14 38 -7 43 l5 4 q20 16 61 8 l2 0 l2 6 q6 23 -20 51 q0 3 -11 7 q-31 5 -53 30 q-12 17 -16 53 l-4 23 l-2 0 l-2 2 q-15 5 -23 0 l-6 -8 q-15 -20 -41 -10 q-25 11 -47 49 q-20 2 -33.5 11 q-13.5 9 -17.5 16 q-4 7 -4 10 l-19 22 q0 8 2 10 q6 0 10 -4 q12 -11 24.5 -20 q12.5 -9 22.5 -14 q10 -5 17.5 -8 q7.5 -3 12.5 -5 l5 -2 q80 -7 86 -10 q11 -11 15 -6 q4 0 4 8 l0 4 l90 -86 l4 -3 q5 -2 12.5 -7.5 q7.5 -5.5 17 -13 q9.5 -7.5 20.5 -21 q11 -13.5 20 -29.5 l6 -4 q4 -6 33 -24 l2 -2 l2 2 q78 126 77.5 291 q-0.5 165 -79.5 309 q-78 142 -215.5 220.5 q-137.5 78.5 -309.5 78.5 q-186 0 -334 -99.5 q-148 -99.5 -217 -269.5 ZM690 0 l0 426 l187 0 l0 -64 l-95 0 l0 -94 l92 0 l0 -63 l-92 0 l0 -137 l97 0 l0 -68 l-189 0 ZM743 649 l0 8 q0 6 1 27.5 q1 21.5 2 34.5 q1 13 7 35 q6 22 16 38 q10 16 30 34 q20 18 47 32 q51 25 88 25 l12 0 q31 -92 31 -146 l98 0 q12 39 46.5 64.5 q34.5 25.5 76.5 25.5 q43 0 76.5 -26 q33.5 -26 44.5 -66 l248 0 q-29 38 -61.5 61 q-32.5 23 -57.5 23 q-32 0 -86 -35 l0 13 q0 41 27 72 q27 31 67 34 l8 0 q84 0 197 -166 l88 0 q12 39 45.5 64.5 q33.5 25.5 75.5 25.5 q42 0 76 -25.5 q34 -25.5 45 -64.5 l98 0 l0 445 l88 53 l0 -586 l-190 0 q-14 -34 -46 -56 q-32 -22 -71 -22 q-39 0 -71 22 q-32 22 -46 56 l-438 0 q-15 -34 -47 -56 q-32 -22 -70 -22 q-39 0 -71 22 q-32 22 -46 56 l-96 0 l0 -2 q0 -79 -49 -119 q-40 -32 -92 -32 q-38 0 -64.5 19 q-26.5 19 -31.5 44 q-3 28 0 47 q27 -59 71 -59 q28 0 51 19.5 q23 19.5 27 51.5 l0 17 l0 14 l-154 0 ZM827 729 l74 0 l-10 68 q-29 -5 -45 -25 q-8 -9 -13 -19.5 q-5 -10.5 -5 -16.5 l-1 -7 ZM983 113 l0 196 q0 125 117 125 q112 0 112 -106 l0 -52 l-90 0 l0 58 q0 35 -24 35 q-23 0 -23 -31 l0 -242 q0 -15 6.5 -25 q6.5 -10 16.5 -10 q22 0 22 29 l0 60 l-33 0 l0 65 l125 0 l0 -211 l-53 0 l-4 23 q-35 -35 -78 -35 q-47 0 -70.5 33.5 q-23.5 33.5 -23.5 87.5 ZM1083 2075 q-14 -7 2 -17 l5 0 q4 1 6 0.5 q2 -0.5 5.5 -5 q3.5 -4.5 6.5 -13.5 q5 -4 10 -8 q5 -4 12 -11 q7 -7 13 -12 q5 -1 11.5 -0.5 q6.5 0.5 16.5 1.5 q10 1 13 1 q7 0 9 3.5 q2 3.5 -5 6.5 l-21 7 q-19 1 -37 34 q-6 12 3 54 q-6 3 -10.5 -6.5 q-4.5 -9.5 -4.5 -14.5 q-5 1 -7.5 -0.5 q-2.5 -1.5 -6.5 -5.5 q-4 -4 -6 -6 l-15 -8 ZM1106 2150.5 q-7 -2.5 -10 -4 q-3 -1.5 2 -8.5 q3 -1 13 2 q10 3 19 6 l9 4 l30 2 q21 3 29 11 l-41 6 q-41 2 -43 -12 q-1 -4 -8 -6.5 ZM1151 698 q0 -19 13.5 -33 q13.5 -14 33.5 -14 q19 0 33 14 q14 14 14 33 q0 20 -14 33.5 q-14 13.5 -33 13.5 q-20 0 -33.5 -13.5 q-13.5 -13.5 -13.5 -33.5 ZM1184 2089 q0 -12 14 -12 q14 0 14 12 q0 14 -14 14 q-14 0 -14 -14 ZM1262 4 l0 422 l124 0 q103 0 103 -98 q0 -44 -15 -65.5 q-15 -21.5 -55 -31.5 l0 -2 q70 0 70 -75 l0 -86 q0 -39 12 -64 l-92 0 q-10 15 -10 62 l0 61 q0 23 -1 35 q-1 12 -9.5 23.5 q-8.5 11.5 -24.5 11.5 l-12 0 l0 -193 l-90 0 ZM1352 258 l14 0 q33 0 33 57 q0 52 -31 52 l-16 0 l0 -109 ZM1399 1774 q3 -11 8 -15.5 q5 -4.5 20 -11.5 q27 -7 55.5 -19.5 q28.5 -12.5 47 -20 q18.5 -7.5 29.5 -5.5 q-11 11 -34 29.5 q-23 18.5 -32 21.5 q-12 5 -28.5 18.5 q-16.5 13.5 -22.5 14.5 q-8 2 -18.5 2 q-10.5 0 -18.5 -4 q-8 -4 -6 -10 ZM1415 2048 l2 0 q0 4 2 8 l2 0 q1 2 2 6.5 q1 4.5 2 5.5 l2 0 l3 5 l4 2 l0 6 l10 0 l0 2 l2 0 l0 -2 l4 0 q0 -1 1 -3 q1 -2 1 -3 l2 0 l0 -4 l4 0 l0 -5 l2 0 q0 -2 1 -5.5 q1 -3.5 1 -6.5 l-2 0 l0 -4 l-2 0 l0 -2 q-4 2 -8 2 l0 -2 l-4 0 l0 -2 q-2 -2 -2 -6 l2 0 l2 -6 l4 0 l-2 -9 l-4 -2 l-14 0 l0 2 q-7 0 -13 3 q-2 4 -2 16 l-2 4 ZM1432 573 q0 21 13.5 35.5 q13.5 14.5 33.5 14.5 q20 0 33.5 -14.5 q13.5 -14.5 13.5 -35.5 q0 -20 -13.5 -33.5 q-13.5 -13.5 -33.5 -13.5 q-20 0 -33.5 13.5 q-13.5 13.5 -13.5 33.5 ZM1540 106 l0 211 q0 117 113 117 q60 0 86 -29 q26 -29 26 -92 l0 -202 q0 -119 -114 -119 q-45 0 -78 24.5 q-33 24.5 -33 89.5 ZM1630 92 q0 -31 23 -31 q22 0 22 31 l0 248 q0 29 -22 29 q-23 0 -23 -29 l0 -248 ZM1815 113 l0 313 l90 0 l0 -324 q0 -41 22 -41 q23 0 23 41 l0 324 l90 0 l0 -309 q0 -125 -111 -125 q-114 0 -114 121 ZM1823 698 q0 -19 13.5 -33 q13.5 -14 33.5 -14 q20 0 33.5 14 q13.5 14 13.5 33 q0 20 -13.5 33.5 q-13.5 13.5 -33.5 13.5 q-20 0 -33.5 -13.5 q-13.5 -13.5 -13.5 -33.5 ZM2093 4 l0 422 l131 0 q38 0 68 -21.5 q30 -21.5 30 -78.5 l0 -56 q0 -53 -27 -77.5 q-27 -24.5 -91 -24.5 l-19 0 l0 -164 l-92 0 ZM2185 229 l17 0 q30 0 30 43 l0 43 q0 18 -1.5 26.5 q-1.5 8.5 -8 16 q-6.5 7.5 -20.5 7.5 l-17 0 l0 -136 ZM2224 649 l0 586 l88 -53 l0 -533 l-88 0 Z" /><glyph glyph-name="fi" unicode="&#xfb01;" d="M31 928 l0 153 l168 0 l0 86 q0 188 108.5 288.5 q108.5 100.5 302.5 100.5 q119 0 293 -61 l-35 -170 q-129 51 -243 51 q-114 0 -168 -52 q-54 -52 -54 -157 l0 -86 l222 0 l0 -153 l-222 0 l0 -928 l-204 0 l0 928 l-168 0 ZM797 0 l0 1081 l204 0 l0 -1081 l-204 0 Z" /><glyph glyph-name="fl" unicode="&#xfb02;" d="M55 928 l0 153 l168 0 l0 109 q0 177 100.5 271.5 q100.5 94.5 284.5 94.5 q145 0 418 -55 l0 -1501 l-205 0 l0 1368 q-114 18 -192 18 q-98 0 -149.5 -51 q-51.5 -51 -51.5 -145 l0 -109 l227 0 l0 -153 l-227 0 l0 -928 l-205 0 l0 928 l-168 0 Z" /><glyph glyph-name="uniFD3E" unicode="&#xfd3e;" d="M158 717 q0 512 225 860 l109 0 q-158 -369 -158 -860 q0 -488 158 -860 l-109 0 q-225 351 -225 860 Z" /><glyph glyph-name="uniFD3F" unicode="&#xfd3f;" d="M123 -143 q158 372 158 860 q0 491 -158 860 l108 0 q226 -349 226 -860 q0 -508 -226 -860 l-108 0 Z" /><glyph glyph-name="uniFDF2" unicode="&#xfdf2;" d="M133 358 q0 62 20.5 121 q20.5 59 55 106 q34.5 47 83 90.5 q48.5 43.5 99.5 77 q51 33.5 111 63.5 q60 30 111.5 50.5 q51.5 20.5 105.5 38.5 l0 209 l205 41 l0 -928 l215 0 l39 -2 l172 0 l0 1237 l204 41 l0 -1278 l111 0 l21 2 l294 0 l0 1235 l205 41 l0 -1503 l-1521 0 q-282 0 -406.5 83 q-124.5 83 -124.5 275 ZM324 379 q0 -77 62 -114.5 q62 -37.5 206 -37.5 l127 0 l0 441 q-74 -25 -122 -43 q-48 -18 -105 -46 q-57 -28 -90 -55 q-33 -27 -55.5 -64.5 q-22.5 -37.5 -22.5 -80.5 ZM1112 1821 l0 84 l94 0 l0 -54 q0 -63 20 -90.5 q20 -27.5 70 -27.5 q53 0 74 29.5 q21 29.5 21 101.5 l0 61 l94 0 l0 -41 q0 -72 19.5 -101.5 q19.5 -29.5 70.5 -29.5 q92 0 92 119 l0 74 l94 0 l0 -105 q0 -84 -46 -134 q-46 -50 -130 -50 q-102 0 -145 74 q-42 -95 -150 -95 q-97 0 -137.5 48 q-40.5 48 -40.5 137 ZM2505 0 l0 1462 l205 41 l0 -1503 l-205 0 Z" /></font>
</defs>
</svg>
